<svg width="840" height="840" viewBox="0 0 840 840" fill="none" xmlns="http://www.w3.org/2000/svg">
<circle cx="420" cy="420" r="420" fill="#2C2C2C"/>
<path d="M413.143 606.876C388.381 606.876 365.524 604.004 344.572 598.259C324.001 592.515 303.81 584.616 284.001 574.563C287.048 560.202 288.953 545.661 289.715 530.941C290.477 516.221 290.858 502.757 290.858 490.55C298.477 488.396 306.858 486.959 316.001 486.241C325.143 485.523 333.905 485.164 342.286 485.164C343.81 505.629 346.858 522.324 351.429 535.249C356.381 547.815 364 556.971 374.286 562.715C384.572 568.46 398.286 571.332 415.429 571.332C437.905 571.332 454.095 566.844 464 557.868C473.904 548.533 478.857 537.942 478.857 526.094C478.857 513.528 474.285 503.116 465.143 494.858C456 486.241 444.381 478.702 430.286 472.239C416.19 465.777 401.143 459.134 385.143 452.313C369.524 445.491 354.477 437.234 340 427.54C325.905 417.846 314.286 405.818 305.144 391.457C296.382 377.096 292.001 359.144 292.001 337.602C292.001 313.906 297.525 294.339 308.572 278.9C320.001 263.462 335.239 251.973 354.286 244.433C373.715 236.894 395.429 233.124 419.429 233.124C433.524 233.124 447.428 234.201 461.143 236.355C474.857 238.509 487.428 241.382 498.857 244.972C510.285 248.203 519.618 252.152 526.856 256.82C526.856 269.745 527.047 283.568 527.428 298.288C527.809 312.649 528.761 324.318 530.285 333.294C524.19 336.525 516.19 338.859 506.285 340.295C496.761 341.372 488.19 341.911 480.571 341.911C477.142 321.805 472.381 306.366 466.285 295.595C460.571 284.824 453.333 277.464 444.571 273.515C436.19 269.207 426.286 267.052 414.857 267.052C399.238 267.052 386.476 270.643 376.572 277.823C366.667 284.645 361.715 294.877 361.715 308.521C361.715 321.805 366.286 332.935 375.429 341.911C384.953 350.886 396.953 358.785 411.429 365.607C426.286 372.428 441.905 379.429 458.285 386.61C475.047 393.791 490.666 402.228 505.142 411.922C519.999 421.257 532.19 432.925 541.713 446.927C551.237 460.93 555.999 478.343 555.999 499.167C555.999 519.631 550.666 538.122 539.999 554.637C529.333 570.793 513.523 583.539 492.571 592.874C471.619 602.209 445.143 606.876 413.143 606.876Z" fill="#F8F5F1"/>
</svg>
