<?xml version="1.0" encoding="UTF-8" standalone="no"?>
<!-- Created with Inkscape (http://www.inkscape.org/) -->

<svg
   version="1.1"
   id="svg1"
   width="4240.2402"
   height="4936.8535"
   viewBox="0 0 4240.2402 4936.8535"
   xmlns="http://www.w3.org/2000/svg"
   xmlns:svg="http://www.w3.org/2000/svg">
  <defs
     id="defs1" />
  <g
     id="g1">
    <g
       id="group-R5">
      <path
         id="path2"
         d="m 217.418,1866.7 c 0,1030.9 7021.722,1866.7 15683.482,1866.7 8661.7,0 15683.4,-835.8 15683.4,-1866.7 C 31584.3,835.699 24562.6,0 15900.9,0 7239.14,0 217.418,835.699 217.418,1866.7"
         style="fill:#e6eaed;fill-opacity:1;fill-rule:nonzero;stroke:none"
         transform="matrix(0.13333333,0,0,-0.13333333,0,4936.8533)" />
      <path
         id="path3"
         d="m 17108.8,36698.1 c -6361.3,0 -15410.23,-4908.6 -15409.36,-11497 0.66,-4932.5 3809.59,-3205.3 2688.16,-9142.1 -288.06,-1525 -286.03,-3296.3 711.94,-4484.9 2096.31,-2496.7 6371.76,-4837.7 9626.76,-4704.4 3150.5,129.1 7294.9,5550.8 10117.9,6940.1 2409.1,1185.7 6655.5,4532.1 6927,8379.8 589.9,8358.4 -7480.9,14508.5 -14662.4,14508.5"
         style="fill:#e6eaed;fill-opacity:1;fill-rule:nonzero;stroke:none"
         transform="matrix(0.13333333,0,0,-0.13333333,0,4936.8533)" />
      <path
         id="path4"
         d="m 20405.7,8589.1 c 725.9,820.2 2388.3,2155.8 3378.2,3145.7 1304.4,1304.4 3003.9,2111.1 4467.5,2844.7 207.9,104.1 957.7,476.3 1242.3,327.5 497,-259.8 458.1,-1132.4 406.6,-1490.8 -104.4,-727.1 -301.2,-1978.1 -900.5,-2787 -599.4,-809 -1423.3,-1411.7 -2253.2,-1970.4 C 25085,7540 23248.2,6515 21259.5,6475.2 c -514,-10.3 -1068.4,63.7 -1445.6,418.6 -455.5,428.8 -37.4,984.4 591.8,1695.3"
         style="fill:#e6eaed;fill-opacity:1;fill-rule:nonzero;stroke:none"
         transform="matrix(0.13333333,0,0,-0.13333333,0,4936.8533)" />
      <path
         id="path5"
         d="m 1090.36,21990.4 c 1766.52,-1930.6 2603.61,-4675.9 2214.83,-7263.7 -54.78,-364.7 -159.92,-766.7 -474.97,-958.3 -343.35,-208.8 -815.94,-65.3 -1089.1,229.4 -273.15,294.8 -387.26,701.3 -459.54,1096.6 -196.88,1076.8 -151.24,2193.6 -428.56,3252.5 -252.129,962.7 -767.4419,1862.6 -845.50047,2854.7 -22.28513,283.2 -2.33203,586.8 160.53147,819.6 162.863,232.8 539.613,387.4 922.309,-30.8"
         style="fill:#e6eaed;fill-opacity:1;fill-rule:nonzero;stroke:none"
         transform="matrix(0.13333333,0,0,-0.13333333,0,4936.8533)" />
      <path
         id="path6"
         d="m 4834.14,29626.6 c -419.13,0 -822.49,-142.1 -1152.92,-409.4 -381.87,-308.9 -620.6,-748 -672.2,-1236.4 -51.61,-488.5 90.08,-967.8 398.97,-1349.6 308.88,-381.9 747.99,-620.6 1236.43,-672.2 488.43,-51.6 967.73,90.1 1349.6,398.9 788.3,637.7 910.87,1797.8 273.23,2586.1 -308.88,381.8 -747.99,620.6 -1236.43,672.2 -65.79,6.9 -131.44,10.4 -196.68,10.4 z m 7.15,-3778 c -68.83,0 -137.98,3.6 -207.38,10.9 -515,54.4 -977.99,306.2 -1303.67,708.8 -325.69,402.6 -475.08,908 -420.67,1423 54.41,515 306.12,978 708.76,1303.7 402.63,325.6 907.99,475 1423,420.6 515,-54.4 977.98,-306.1 1303.67,-708.7 672.32,-831.2 543.08,-2054.4 -288.09,-2726.7 -348.37,-281.8 -773.73,-431.6 -1215.62,-431.6"
         style="fill:#000000;fill-opacity:1;fill-rule:nonzero;stroke:none"
         transform="matrix(0.13333333,0,0,-0.13333333,0,4936.8533)" />
      <path
         id="path7"
         d="m 3809.03,28726.6 c -19.45,0 -39.01,-6.3 -55.35,-19.1 -20.87,-16.4 -38.31,-30.3 -45.25,-35.9 -133.36,-107.9 -216.73,-261.3 -234.76,-431.8 -18.02,-170.6 31.46,-338 139.33,-471.4 l 964.72,-1192.6 c 222.69,-275.3 627.83,-318.1 903.12,-95.4 6.94,5.6 24.17,19.7 44.61,36.7 37.54,31.2 43.13,87.4 12.44,125.4 l -381.67,471.8 c -15.07,18.6 -36.49,30.3 -60.33,32.8 -23.84,2.5 -47.24,-4.5 -65.87,-19.5 l -87.64,-70.9 c -63.2,-51.1 -142.52,-74.6 -223.36,-66.1 -80.84,8.6 -153.52,48.1 -204.64,111.3 l -400.12,494.7 c -51.12,63.1 -74.57,142.5 -66.03,223.3 8.54,80.9 48.06,153.5 111.25,204.6 l 87.41,70.7 c 18.89,15.3 30.56,36.7 33.1,60.6 2.53,23.8 -4.37,47.2 -19.43,65.8 l -381.67,471.9 c -17.62,21.7 -43.64,33.1 -69.86,33.1 z M 5077.7,26237.8 c -216.53,0 -431.27,94 -577.73,275.1 l -964.71,1192.6 c -124.67,154.2 -181.86,347.6 -161.03,544.8 20.83,197.1 117.18,374.3 271.31,499 7.07,5.7 24.92,19.9 46.28,36.8 81.09,63.8 199.9,50.5 264.82,-29.8 l 381.67,-471.8 c 31.88,-39.4 46.48,-88.9 41.12,-139.3 -5.37,-50.4 -30.04,-95.7 -69.47,-127.6 l -87.59,-70.8 c -87.59,-70.9 -101.21,-199.8 -30.36,-287.4 l 400.12,-494.6 c 34.32,-42.5 83.12,-69 137.39,-74.7 54.3,-5.8 107.54,10 149.97,44.3 l 87.41,70.7 c 39.55,32.1 88.97,46.7 139.42,41.4 50.43,-5.2 95.77,-29.9 127.65,-69.3 l 381.67,-471.8 c 64.91,-80.3 53.11,-199.2 -26.29,-265.2 -20.91,-17.4 -38.52,-31.9 -45.61,-37.6 -137.1,-110.9 -302.09,-164.8 -466.04,-164.8"
         style="fill:#000000;fill-opacity:1;fill-rule:nonzero;stroke:none"
         transform="matrix(0.13333333,0,0,-0.13333333,0,4936.8533)" />
      <path
         id="path8"
         d="m 5945.65,28194.8 c -100.41,277.4 -302.84,499.1 -570,624.3 -267.15,125.1 -567.04,138.7 -844.46,38.3 -22.1,-8 -44.87,-17.1 -67.68,-27 l -23.1,-10.1 34.68,-95.9 26.34,11.7 c 21.51,9.4 43.16,18.1 64.35,25.8 251.88,91.2 524.19,78.8 766.77,-34.8 242.57,-113.7 426.38,-315 517.55,-566.9 91.17,-251.9 78.8,-524.2 -34.83,-766.7 -20.11,-43 -43.5,-84.9 -69.52,-124.8 l -16.93,-25.9 93.03,-43.6 12.73,19.8 c 27.15,42.1 51.61,86.3 72.71,131.4 125.15,267.1 138.77,567 38.36,844.4"
         style="fill:#000000;fill-opacity:1;fill-rule:nonzero;stroke:none"
         transform="matrix(0.13333333,0,0,-0.13333333,0,4936.8533)" />
      <path
         id="path9"
         d="m 5704.03,28107.4 c -77.17,213.2 -232.45,383.4 -437.22,479.3 -226.85,106.3 -487.86,106.7 -716.11,1.1 l -22.4,-10.4 34.76,-96 26.68,12.5 c 201.83,94.7 432.9,95 633.96,0.8 372.64,-174.6 533.79,-619.8 359.22,-992.4 -20.04,-42.8 -44.28,-83.9 -72.05,-122.1 l -19.13,-26.4 93.94,-44 13,18.4 c 29.12,41.1 54.78,85.1 76.26,131 95.93,204.8 106.26,435 29.09,648.2"
         style="fill:#000000;fill-opacity:1;fill-rule:nonzero;stroke:none"
         transform="matrix(0.13333333,0,0,-0.13333333,0,4936.8533)" />
      <path
         id="path10"
         d="m 5164.57,28368.5 c -170.11,79.7 -364.13,76.5 -532.32,-8.8 l -21.23,-10.8 34.97,-96.6 27.26,14.2 c 141.24,73.6 304.61,77.2 448.21,9.9 252.3,-118.1 361.4,-419.6 243.21,-671.8 -20,-42.7 -45.72,-82.3 -76.45,-117.5 l -23.44,-26.9 96.01,-45 13.28,16 c 32.87,39.6 60.67,83.4 82.62,130.2 141.96,303.1 10.91,665.1 -292.12,807.1"
         style="fill:#000000;fill-opacity:1;fill-rule:nonzero;stroke:none"
         transform="matrix(0.13333333,0,0,-0.13333333,0,4936.8533)" />
      <path
         id="path11"
         d="m 8317.81,28470.7 c -122.58,-55.3 -260.28,-93.8 -415.39,-106.7 -105.47,-8.8 -280.01,42.4 -395.8,154.7 -95.65,92.7 -140.38,212 -132.95,354.6 11.22,215.1 145.23,382.4 358.47,447.4 52.06,15.9 109.54,24.7 168.39,24.7 144.29,0 296.73,-53.2 397.02,-186.7 95.21,-126.8 80.49,-398.1 20.26,-688 z m -256.14,-1932 c 160,-77.8 280.36,-201.3 338.91,-347.8 62.9,-157.3 39.48,-353.2 -61.12,-511.3 -86.63,-136.1 -215.96,-218.7 -354.84,-226.7 -122.07,-6.9 -247.15,40.2 -352.16,132.7 -100.58,88.6 -175.46,213.3 -205.45,342 -56.71,243.5 12.48,490.6 99.93,682 11.13,2.1 22.38,4 33.71,5.8 167.8,26 345.73,-1.3 501.02,-76.7 z m 1729.87,3300.9 c -8.58,12 -22.02,19.6 -36.72,20.8 l -373.43,29.4 c -27.65,2.3 -51.6,-18.4 -53.78,-45.9 -2.17,-27.5 18.38,-51.6 45.91,-53.8 l 221.01,-17.4 c -149.93,-123.2 -310.87,-289.9 -412.02,-430.6 -22.85,-31.7 -48.01,-69 -74.64,-108.4 -141.56,-209.6 -348.7,-516.2 -677.04,-705.1 47.4,264.7 58.18,541.7 -53.32,690.1 -147.43,196.3 -418.5,275.7 -674.54,197.7 -251.41,-76.7 -415.85,-282.8 -429.16,-537.9 -8.88,-170.2 47.56,-319.5 163.21,-431.6 138.45,-134.2 343.07,-193.4 473.7,-182.6 139.54,11.7 265.63,42.1 379.79,85.9 -89.21,-364.9 -235.4,-731.7 -313.64,-856.1 -62.2,-98.9 -131.46,-196.5 -198.45,-290.8 -97.86,-137.8 -199.05,-280.3 -282.24,-432.3 -12.85,-23.5 -25.78,-48.2 -38.52,-74.2 -304.91,-73.7 -592.39,-282.6 -817.4,-596 -248.48,-346.2 -369.25,-904 -307,-1389.6 l -345.96,188.6 c -24.24,13.2 -54.61,4.3 -67.84,-20 -13.21,-24.2 -4.27,-54.6 19.97,-67.8 l 434.91,-237.1 c 2.06,-1.1 4.19,-2.1 6.36,-2.9 l 1.93,-0.6 c 1.82,-0.6 3.66,-1.1 5.52,-1.5 l 2.47,-0.4 c 2.35,-0.4 4.72,-0.6 7.1,-0.7 h 0.5 c 3.04,0 6.12,0.3 9.21,0.8 h 0.04 c 3.07,0.6 6.1,1.5 9.05,2.6 l 0.24,0.2 c 3.31,1.3 6.43,2.9 9.32,4.9 l 1.27,1 c 2.34,1.7 4.57,3.5 6.57,5.5 0.84,0.9 1.51,1.9 2.28,2.8 1.45,1.7 2.85,3.4 4.06,5.3 0.72,1.1 1.3,2.3 1.92,3.4 1.02,1.9 1.95,3.9 2.72,5.9 l 0.76,1.6 c 56.14,166.9 149.31,323 269.44,451.7 18.85,20.2 17.77,51.8 -2.41,70.6 -20.18,18.9 -51.82,17.8 -70.67,-2.4 -87.04,-93.2 -160.98,-199.8 -218.54,-314.2 -36.41,440.7 77.34,926.6 298.01,1233.9 116.31,162.1 348.62,427 683.17,535.7 -78.4,-195.2 -130.74,-434 -75.04,-673.2 66.61,-285.9 331.93,-570.6 660.69,-551.8 171.39,9.8 329.4,109.2 433.52,272.8 117.57,184.7 144.24,415.5 69.6,602.1 -67.8,169.6 -205.61,311.9 -388.03,400.6 -162.25,78.9 -346.78,110.6 -523.63,90.5 0.71,1.3 1.42,2.6 2.13,3.9 80.38,146.8 179.86,286.9 276.06,422.4 67.79,95.5 137.87,194.2 201.56,295.5 80.22,127.5 223.11,483.8 314.05,836.9 10.17,39.5 20.11,80.6 29.45,122.6 391.25,193.3 627.51,543.1 785.72,777.3 26.2,38.8 50.96,75.5 72.95,106.1 100.47,139.6 262.69,306.2 410.52,424.8 -26.97,-111.5 -52.22,-224.1 -75.15,-336 -5.54,-27 11.89,-53.4 38.95,-59 3.38,-0.7 6.76,-1 10.09,-1 23.24,0 44.07,16.3 48.93,40 30.46,148.7 64.88,298.6 102.31,445.6 3.64,14.3 0.78,29.4 -7.8,41.4"
         style="fill:#000000;fill-opacity:1;fill-rule:nonzero;stroke:none"
         transform="matrix(0.13333333,0,0,-0.13333333,0,4936.8533)" />
      <path
         id="path12"
         d="m 9726.98,33068.4 c 99.11,-389.3 496.42,-625.3 885.62,-526.2 l 1857.1,472.8 c 188.6,48 347.2,166.6 446.6,333.8 99.4,167.3 127.7,363.3 79.6,551.8 l -472.8,1857.1 c -99.1,389.3 -496.4,625.4 -885.6,526.3 l -1857.13,-472.9 c -188.56,-48 -347.14,-166.5 -446.53,-333.8 -99.39,-167.3 -127.68,-363.3 -79.67,-551.8 z m 706.02,-638.8 c -365.3,0 -699.07,246.7 -793.24,616.6 l -472.81,1857.1 c -111.35,437.3 153.87,883.7 591.22,995 l 1857.13,472.9 c 437.3,111.3 883.7,-153.9 995,-591.3 l 472.9,-1857 c 53.9,-211.9 22.1,-432.1 -89.6,-620 -111.6,-188 -289.8,-321.2 -501.7,-375.1 l -1857,-472.9 c -67.5,-17.1 -135.2,-25.3 -201.9,-25.3"
         style="fill:#000000;fill-opacity:1;fill-rule:nonzero;stroke:none"
         transform="matrix(0.13333333,0,0,-0.13333333,0,4936.8533)" />
      <path
         id="path13"
         d="m 9235.95,34852.7 -21.68,87.3 3352.03,831.8 21.6,-87.3 -3351.95,-831.8"
         style="fill:#000000;fill-opacity:1;fill-rule:nonzero;stroke:none"
         transform="matrix(0.13333333,0,0,-0.13333333,0,4936.8533)" />
      <path
         id="path14"
         d="m 10104.4,36441.5 c -18.9,0 -38,-2.4 -56.9,-7.2 l -42.7,-10.9 c -59.26,-15.1 -109.07,-52.3 -140.29,-104.9 -31.22,-52.5 -40.11,-114.1 -25.03,-173.3 l 54.07,-212.4 486.25,123.8 -54.1,212.4 c -15,59.2 -52.3,109.1 -104.8,140.3 -35.9,21.3 -75.9,32.2 -116.5,32.2 z m -275.86,-618.1 -76.27,299.6 c -21.01,82.5 -8.63,168.3 34.87,241.5 43.5,73.2 112.91,125.1 195.43,146.1 l 42.73,10.9 c 82.6,21 168.3,8.6 241.5,-34.9 73.3,-43.5 125.2,-112.9 146.2,-195.4 l 76.2,-299.6 -660.66,-168.2"
         style="fill:#000000;fill-opacity:1;fill-rule:nonzero;stroke:none"
         transform="matrix(0.13333333,0,0,-0.13333333,0,4936.8533)" />
      <path
         id="path15"
         d="m 10166.1,35371.8 c -135.9,10.9 -249.86,107 -283.52,239.2 l -76.27,299.6 617.09,157.1 22.2,-87.2 -529.87,-134.9 54.07,-212.4 c 24.16,-94.9 105.9,-163.9 203.5,-171.7 l -7.2,-89.7"
         style="fill:#000000;fill-opacity:1;fill-rule:nonzero;stroke:none"
         transform="matrix(0.13333333,0,0,-0.13333333,0,4936.8533)" />
      <path
         id="path16"
         d="m 10216.1,35413.4 c 10.4,-40.8 52,-65.6 92.8,-55.2 19.7,5.1 36.3,17.5 46.7,35 10.5,17.5 13.4,38.1 8.4,57.8 -5,19.8 -17.5,36.4 -35,46.8 -17.5,10.4 -38,13.4 -57.8,8.3 -40.8,-10.3 -65.5,-52 -55.1,-92.8 z m 74,-147.6 c -74.3,0 -142.1,50.2 -161.2,125.3 v 0.1 c -22.7,88.8 31.2,179.5 120.1,202.2 43,10.9 87.8,4.5 126,-18.2 38.2,-22.7 65.3,-58.9 76.2,-102 11,-43 4.5,-87.8 -18.2,-126 -22.7,-38.2 -58.9,-65.2 -101.9,-76.2 -13.7,-3.5 -27.5,-5.2 -41,-5.2"
         style="fill:#000000;fill-opacity:1;fill-rule:nonzero;stroke:none"
         transform="matrix(0.13333333,0,0,-0.13333333,0,4936.8533)" />
      <path
         id="path17"
         d="m 11204.5,36721.6 c -19,0 -38,-2.4 -56.9,-7.2 l -42.7,-10.9 c -59.3,-15.1 -109.1,-52.3 -140.3,-104.9 -31.2,-52.5 -40.1,-114.1 -25,-173.3 l 54,-212.4 486.3,123.8 -54.1,212.4 c -15.1,59.2 -52.3,109 -104.8,140.3 -35.9,21.2 -75.9,32.2 -116.5,32.2 z m -275.9,-618.1 -76.3,299.6 c -21,82.5 -8.6,168.3 34.9,241.5 43.5,73.2 112.9,125.1 195.4,146.1 l 42.8,10.9 c 82.6,21 168.3,8.6 241.5,-34.9 73.2,-43.5 125.1,-112.9 146.1,-195.4 l 76.3,-299.6 -660.7,-168.2"
         style="fill:#000000;fill-opacity:1;fill-rule:nonzero;stroke:none"
         transform="matrix(0.13333333,0,0,-0.13333333,0,4936.8533)" />
      <path
         id="path18"
         d="m 11266.2,35651.9 c -135.9,10.9 -249.9,107 -283.5,239.2 l -76.3,299.6 617.1,157.1 22.2,-87.2 -529.9,-134.9 54.1,-212.4 c 24.1,-94.9 105.9,-163.9 203.4,-171.7 l -7.1,-89.7"
         style="fill:#000000;fill-opacity:1;fill-rule:nonzero;stroke:none"
         transform="matrix(0.13333333,0,0,-0.13333333,0,4936.8533)" />
      <path
         id="path19"
         d="m 11390.3,35788.6 c -6.4,0 -12.7,-0.8 -19,-2.4 -19.8,-5 -36.4,-17.4 -46.8,-34.9 -10.4,-17.6 -13.4,-38.1 -8.3,-57.9 v 0 c 5,-19.7 17.4,-36.3 34.9,-46.7 17.6,-10.5 38.1,-13.4 57.8,-8.4 19.8,5 36.4,17.5 46.8,35 10.4,17.5 13.4,38 8.4,57.8 -5.1,19.7 -17.5,36.4 -35,46.8 -12,7.1 -25.3,10.7 -38.8,10.7 z m -0.5,-242.7 c -29.5,0 -58.6,7.9 -84.6,23.4 -38.2,22.7 -65.3,58.9 -76.3,101.9 -10.9,43.1 -4.5,87.8 18.2,126 22.7,38.2 58.9,65.3 102,76.2 43,11 87.8,4.5 126,-18.1 38.2,-22.7 65.2,-58.9 76.2,-102 11,-43 4.5,-87.8 -18.2,-126 -22.7,-38.2 -58.9,-65.3 -102,-76.2 -13.6,-3.5 -27.5,-5.2 -41.3,-5.2"
         style="fill:#000000;fill-opacity:1;fill-rule:nonzero;stroke:none"
         transform="matrix(0.13333333,0,0,-0.13333333,0,4936.8533)" />
      <path
         id="path20"
         d="m 10450.6,34446.4 -275.4,-70.1 -32.3,127.1 291.9,192.2 150.7,38.3 381.8,-1501.9 -195.1,-49.6 -321.6,1264"
         style="fill:#000000;fill-opacity:1;fill-rule:nonzero;stroke:none"
         transform="matrix(0.13333333,0,0,-0.13333333,0,4936.8533)" />
      <path
         id="path21"
         d="m 11255.7,33493.4 61.1,153.5 c 112.3,-66.7 246.2,-120.3 422.8,-75.4 183.6,46.8 293.6,215.1 240.2,424.6 -52.7,207.2 -216.3,320.8 -401,246.3 -113.1,-45.6 -119,-171.1 -119,-171.1 l -195.5,-48.5 -211.4,830.1 790.4,201.3 43.2,-169.5 -594.7,-151.4 103,-406.8 c 61.1,55.6 103.3,79.3 195,102.7 229.1,58.3 503.9,-53.2 586.6,-378 82.7,-324.8 -115.4,-570.8 -376.7,-637.3 -240,-61.1 -414.1,2.4 -544,79.5"
         style="fill:#000000;fill-opacity:1;fill-rule:nonzero;stroke:none"
         transform="matrix(0.13333333,0,0,-0.13333333,0,4936.8533)" />
      <path
         id="path22"
         d="m 16485.3,25688.6 c 251.2,0 503.7,-45.2 736.2,-133.8 38.5,-14.7 76.1,-30.4 112.9,-47.1 264.1,104.7 548.4,172.6 836.6,200.1 -37.2,25 -75.1,49.1 -113.8,72.4 -248.1,148.8 -489.4,234.8 -717.1,255.6 -362,33 -753.3,-99.2 -1094.2,-361.1 79.2,9.2 159.2,13.9 239.4,13.9 m 1976.6,33 c 365.8,0 732.5,-65.3 1066.6,-190.6 174.2,-65.4 335.7,-149.1 476.5,-246.6 -55.6,335.5 -218.8,751.4 -595.1,1228.4 -393.8,499.2 -817.4,822.1 -1259.1,959.8 -441.5,137.6 -966.8,113.2 -1561.2,-72.8 -360.8,-112.8 -601.3,-241.7 -780,-417.8 -386.9,-381.2 -431.8,-961.1 -424.2,-1272.8 2.4,-99.3 9.9,-200.2 22.3,-302.2 196.8,102.9 411.4,185.4 643.1,235.1 156.5,140.9 329.1,257.2 507.5,341.3 264.4,124.6 530.5,175.7 790.9,152 242.8,-22.2 498.3,-112.8 759.5,-269.5 76.1,-45.6 149.4,-94.8 219.5,-147.2 10.2,0.5 20.5,0.9 30.7,1.2 34.3,1.2 68.7,1.7 103,1.7 m -3039.7,-420.1 c 18,-117.2 42.4,-235.8 73.2,-355.8 118.1,195.3 250.8,381.9 408,551.2 1.9,2.1 3.9,4.2 5.8,6.2 -173.1,-50.6 -335.5,-119.8 -487,-201.6 m -3237.7,974.4 c 269.1,-7 531.9,-52.1 783.1,-134.7 314,-103.3 594.1,-260.2 832.3,-466.4 301.2,-260.8 537.2,-587.1 758.8,-913.7 122.1,125.2 259.8,250.5 412.7,366.9 -37.2,262 -113.8,531.3 -229.2,799.7 -252,586.4 -651.3,1107.1 -1072.9,1633 -608.3,759.1 -1050.1,786.7 -1313.6,676.3 -166.6,-69.9 -296.8,-213.7 -376.7,-416.1 -70.6,-178.8 -99.7,-397.3 -82.1,-615.1 26.4,-324.7 127.3,-644.1 287.6,-929.9 m 60.8,-102.4 c 136.6,-217 308.5,-411.5 508.4,-569.8 304.3,-240.9 669.8,-402.3 1023.2,-558.3 233,-102.9 472.3,-208.6 697.3,-337.9 -217.5,320.3 -448.6,639.6 -739.8,891.7 -228.1,197.5 -496.6,347.9 -798.1,447 -222.1,73 -453.7,115.6 -691,127.3 m 2437.4,-1596.4 c 98.4,-67.4 191.4,-141.4 278.9,-221.1 38.4,208.7 46.2,429.2 23.8,656.3 -136.2,-107.5 -259.4,-221.8 -369.5,-335.8 14.4,-21.3 28.7,-42.7 43,-63.9 7.9,-11.8 15.9,-23.7 23.8,-35.5 m 849.6,234.4 c 31.3,-106.8 67.6,-214.4 108.8,-322.8 25.3,-66.7 52.5,-133.7 81.6,-201.4 431.3,470 901.1,901.5 1482,1165.3 l 1.7,0.8 c -6.8,2.7 -13.7,5.3 -20.5,7.9 -333.5,127.1 -710.3,160.4 -1061,93.8 -9.1,-1.7 -18.1,-3.5 -27.1,-5.3 -41.4,-38.3 -81.8,-78.6 -121.1,-120.9 -173.5,-186.9 -317.1,-397.1 -444.4,-617.4 m -664.2,-505.8 c 20.8,-29.6 41.8,-59.2 63,-88.7 2.2,8.4 4.3,16.7 6.3,25.1 -22.8,21.6 -45.9,42.9 -69.3,63.6 m 179.2,-31.4 c 21.6,-21.5 42.8,-43.4 63.7,-65.6 98.3,206.4 199.4,414.7 313.5,615.9 -40.5,143.1 -72.2,284.7 -95.2,424.4 -87.7,-51.8 -171.4,-107.6 -251.1,-166.1 33.9,-281 23.8,-553.6 -30.9,-808.6 m -40.8,-159.6 c 12.2,-16.2 24.4,-32.4 36.8,-48.4 l 21.5,45.4 c -14.9,16.4 -30,32.6 -45.3,48.5 -4.2,-15.2 -8.5,-30.4 -13,-45.5 m 176.9,13.6 c 66.4,-76.5 128.5,-156.8 186.2,-240.1 92,106.6 184.8,213 279.3,317.9 -36.5,83.2 -70.2,165.4 -101.3,247.1 -30.2,79.6 -57.9,158.8 -83,237.6 -100.6,-184.6 -191.7,-374.5 -281.2,-562.5 m -71.1,-149.7 c 53.9,-66.7 109.7,-131.8 167.8,-194.4 7.4,8.6 14.8,17.3 22.3,25.9 -51.9,76.4 -107.2,149.7 -165.8,219.6 l -24.3,-51.1 m 237.3,-267 c 13.7,-13.8 27.5,-27.6 41.6,-41.1 -10.5,17.6 -21.2,35 -32,52.3 -3.2,-3.7 -6.4,-7.4 -9.6,-11.2 m 3100.7,1910 c 164.3,-139 307.2,-296 422.3,-465 283.4,-416.2 421.2,-941.5 406.1,-1498.3 357.2,281.3 589.1,591.2 690.2,922.5 40.6,133.3 74.8,325.2 53.5,567.1 -150.1,116.1 -330.7,215 -529.1,289.4 -326.4,122.5 -685.1,185.5 -1043,184.3 M 10181.9,23819 c 17.1,0 34.2,-0.6 51.3,-1.7 256.1,-16.8 475.8,-143.6 684.3,-312.6 41.6,50.1 88.7,97.4 141,141.6 172.3,145.5 390.1,244.8 613.5,279.6 300.3,46.9 629.2,2.4 1035,-140.1 60.3,-21.1 120.2,-43.6 179.7,-67.1 -403,447.4 -813.8,822.7 -1222.4,1116.5 -422.5,303.8 -856.4,530.6 -1293.3,676.5 -6.1,-5.8 -12.1,-11.7 -18.2,-17.6 -588.35,-577.1 -680.83,-1288.2 -511.95,-1747.6 110.71,47.6 226.35,72.5 341.05,72.5 m 2916.2,-188.7 c 146.2,-64.2 290.1,-133.2 431.9,-203.3 132.3,164.5 254.6,338.3 374,508 120,170.5 244.1,346.8 377.3,512.5 44.9,55.8 93.4,113.5 145.4,171.9 -221.4,127.5 -458.9,232.4 -690.2,334.5 -359.2,158.6 -730.6,322.6 -1044.8,571.4 -226,178.9 -417.7,402 -565.4,651.5 -33.9,0.2 -68,-0.2 -102.2,-1.3 -314.6,-9.8 -618.2,-72.3 -902.5,-185.7 -249.3,-99.5 -472.8,-234.2 -666.1,-401.2 428.5,-149.5 853.4,-374.7 1267.2,-672.2 444.1,-319.3 890.1,-732.9 1325.8,-1229.2 16.6,-18.9 33.1,-37.9 49.6,-56.9 m 152.6,-179.3 c 49.7,-59.5 99,-119.5 147.9,-179.8 22.4,25.1 44.4,50.7 66.1,76.5 -70.8,34.9 -142.2,69.5 -214,103.3 m -2316.4,-91 c -20.3,-30.6 -38.5,-62.1 -54.5,-94.3 41,12.5 82.8,23.2 125.2,31.4 -23.5,21.4 -47.1,42.4 -70.7,62.9 m 4130.5,518.6 -352,-740.5 c 14.1,15.2 28.1,30.4 42.1,45.7 155.4,169.9 309.9,349.5 459.6,524 -51.7,55.3 -101.5,112.4 -149.7,170.8 m 538.2,-392 c 190.9,-146.9 406.2,-264.9 639,-351.7 -36.6,56.3 -72.7,112.8 -108.2,169.4 -175.8,281 -321.3,546.1 -439.9,802.2 -90.1,-100.7 -178.8,-202.6 -266.7,-304.7 64.8,-101.2 123.5,-206.6 175.8,-315.2 m -1981.4,-105.2 c 49.8,-24.9 99.3,-49.8 148.6,-74.6 156.1,-78.6 315.7,-158.9 477.1,-234.7 263.1,292.2 498.7,604.9 630.1,969.8 6.4,17.8 12.5,35.8 18.4,53.8 -99.2,134.4 -193.1,272.5 -285.3,409.5 -1.2,0.9 -2.6,1.8 -3.8,2.6 -30.4,20.4 -61.2,40.2 -92.4,59.5 -55.8,-62.1 -107.5,-123.3 -155.1,-182.5 -131.2,-163.2 -254.3,-338.1 -373.4,-507.3 -116.3,-165.3 -235.3,-334.5 -364.2,-496.1 m 3834.8,2065.5 c 263.3,-143.7 473.7,-343.4 616,-586.7 179.7,-307 245.7,-675.1 190.9,-1064.5 -36.8,-261.4 -127.8,-518.8 -262.5,-748.1 424.1,99.5 827,280.9 1174.7,532.8 30.9,565.7 -100.3,1101.1 -385.6,1519.9 -130.3,191.3 -298,366.7 -493,516.7 -287.6,-16 -573.5,-74.1 -840.5,-170.1 M 9878.9,23655.1 c 116.64,-251.7 308.9,-451.7 527,-612.2 108.9,64.5 223.9,127.5 345.1,176.8 26.5,71.5 62.1,140.1 106.3,205.1 -195.8,158.9 -399.7,277.6 -630.6,292.7 -123.2,8.1 -240.33,-15.8 -347.8,-62.4 m 6517,-572.2 c 288.9,-88 600.9,-130.2 924.2,-122.5 183.2,4.3 365.8,24 545.2,58.4 155.2,237.1 259.6,511.6 298.9,790.8 51.7,366.9 -9.9,712.7 -178.1,1000.1 -146.5,250.5 -371,451.9 -654.6,589 -28.8,-11.9 -57.2,-24.3 -85.4,-37.1 -577.8,-262.4 -1046.8,-699.5 -1479.2,-1174.3 119.9,-264.3 269.1,-538.3 451.7,-829.9 57.5,-92 116.9,-183.5 177.3,-274.5 m -2053.7,-54.8 c 57.1,-26 114.3,-51.3 171.7,-75.6 l 481.3,1012.6 c -9,11.5 -17.9,22.9 -26.8,34.5 -134.2,-367.6 -366.5,-680.5 -626.2,-971.5 m 4930.1,499.4 c -15.4,-221.2 -54.7,-446.4 -118.3,-670.8 572.4,216.4 824.3,433.1 964.5,578.4 289.6,300 426.2,699.5 356.4,1042.5 -43.2,212.5 -159.5,407.5 -345.6,579.9 6,-175.6 -15.6,-344.6 -64.8,-505.9 -113.4,-372.1 -379.9,-716.5 -792.2,-1024.1 M 10496,22979.7 c 67.1,-44.9 135.9,-86.4 205.1,-124.8 -7.3,75.7 -4,151.6 10.5,225.2 1,4.9 2,9.7 3,14.6 -75.1,-34.6 -148.1,-74.1 -218.6,-115 m 2966.2,212.6 c 137.9,-172 272.7,-346.4 405.1,-520.6 7.6,7.8 15.1,15.5 22.6,23.2 95.9,98.7 192.6,198.2 286.8,299.9 -152.9,72.4 -303.7,148.3 -451.5,222.7 -55.8,28.1 -111.9,56.3 -168.3,84.5 -30.9,-37.2 -62.4,-73.8 -94.7,-109.7 m -2237.1,126 c 477.1,0 901.7,-291.4 1313.7,-574 42.5,-29.2 85.7,-58.8 129,-88.1 211.6,133.4 445.5,310.9 662.5,540.4 -96,118.7 -193.6,236 -293,351.1 -119.8,52.1 -240.9,100.8 -363.4,143.8 -389.6,136.7 -703.1,179.8 -986.5,135.6 -205.5,-32 -405.9,-123.4 -564.4,-257.2 -47.8,-40.5 -90.9,-83.7 -128.8,-129.4 46.7,-40.5 93.1,-82.7 139.3,-125.9 30.8,2.5 61.3,3.7 91.6,3.7 m 3404.7,-413.6 c 370.4,-148.1 755,-259.2 1146.3,-333.2 -17.8,125.3 -43.9,250.8 -78.3,375.6 -45.5,165.4 -104.3,324.3 -175.1,475.1 -26.3,20.8 -52.2,42 -77.6,63.8 -55.8,47.7 -109.3,97.7 -160.9,149.5 -148.3,-172.8 -301.2,-350.5 -455.5,-519.2 -65.4,-71.4 -131.7,-142 -198.9,-211.6 m 3295.6,24.1 c -33.3,-48.6 -68.5,-95.5 -105.8,-140.5 -89.4,-108.3 -190.3,-209.3 -301.7,-302.5 517.3,45.8 1028.8,155.1 1519.3,328.3 65.3,212.7 108,426.6 128.5,637.1 -369.7,-253.4 -795.2,-431.6 -1240.3,-522.4 m -2045.6,-376 c 270.6,-46.5 544.5,-75.4 818.9,-86.5 -122.2,174.2 -246.2,351.6 -366.4,531.7 -233.7,74.5 -452.3,178.2 -650.2,309.2 97.5,-241.7 164.2,-496.1 197.7,-754.4 m 943.8,-90.3 c 172.1,-3.6 344.2,-0.2 516,10.1 152.6,113.1 287.9,240 402.9,379.4 13.8,16.7 27.3,33.6 40.5,50.8 -152.1,-24.5 -306.1,-38.8 -460.5,-42.4 -291.7,-6.9 -574.5,25.5 -840.6,94.4 112.9,-166.5 228.3,-330.9 341.7,-492.3 m -2895.1,128.6 c 32.8,-43.4 65.6,-86.8 98.2,-130.2 146.5,132 289.3,268.1 428.2,408 -61.3,26.3 -122.4,53.5 -183.1,81.5 -101.6,-110.6 -206.4,-218.3 -310.2,-325.2 -11,-11.3 -22.1,-22.7 -33.1,-34.1 m -2692.6,626.9 890.6,-843.5 c 62.8,26 126.2,54.6 189.4,85.5 77.7,37.9 165,83.9 258.2,139 -30.9,21 -61.5,42 -91.9,62.8 -395.5,271.4 -803.1,551 -1246.3,556.2 m -424.7,-421.7 c 144.4,-73.6 287.4,-134.5 416.8,-185.8 262.5,-104 528.3,-195.7 795,-276.9 l 0.9,0.3 -908.4,860.4 c -5.8,5.5 -11.5,10.9 -17.3,16.3 -6.9,-0.8 -13.7,-1.7 -20.6,-2.7 -84.4,-11.8 -166.8,-34.6 -247,-64.6 -8.4,-27.1 -15.4,-54.7 -20.9,-82.6 -16.7,-84.9 -15.6,-175.3 1.5,-264.4 m -1021.59,813.6 c -236.08,-136.9 -414.62,-383.2 -490.71,-626.1 -67.79,-216.5 -78.88,-440.6 -60.46,-656 l 1030.76,632.2 c 14.6,8.9 29.4,18 44.3,27.1 -215.4,164.3 -405.07,368 -523.89,622.8 m 4297.49,-1229.2 c 27.8,-37 55.5,-73.9 83.2,-110.7 3.9,-5.2 7.9,-10.5 11.8,-15.7 l 183.5,386.1 c -91.3,-88.2 -184.2,-174.8 -278.5,-259.7 m 2807.5,-19.2 c 26.9,-38.4 53.9,-76.9 81,-115.6 71.6,37.3 140.8,77.1 207.2,119.2 -96.1,-3.3 -192.1,-4.6 -288.2,-3.6 m -4136.5,234.2 c 20.3,-13.4 40.6,-26.6 60.7,-39.5 199.9,-128.6 410.8,-240.4 629.5,-334.7 33.3,39.3 67.8,78.6 103.5,117.8 79.4,87.4 162.5,174.4 245.1,259.8 -132,173.7 -266.1,347.5 -403.3,518.9 -194.9,-204.1 -413.7,-378.5 -635.5,-522.3 M 11439,22202.1 c 112.2,-1.1 260,26.3 423.7,76.7 -225.1,71.5 -449.6,150.8 -671.6,238.7 -107.5,42.6 -224,91.7 -343.1,149 30,-79.6 72.9,-155.5 127.4,-222.5 125.2,-154.1 289.9,-240 463.6,-241.9 m -1701.86,3445.7 c -44.32,0 -88.59,-3.4 -132.18,-11.5 -518.63,-95.4 -717.94,-744.7 -790.58,-1123.2 -163.52,-852 -132.22,-1596.1 93.04,-2211.6 17.55,-47.9 36.48,-95.3 56.77,-142 12.13,7.6 24.15,15 35.96,22.2 l 143.36,87.9 c -25.57,241.4 -17.63,496.3 59.97,744.1 70.31,224.5 208.1,430.1 387.96,578.9 50.88,42.1 104.22,78.7 159.25,109.4 -114.04,300.3 -117.33,641.6 -9.34,988.2 97.01,311.3 281.85,614.2 521.95,855.8 -59,17.9 -117.9,34.3 -176.9,49.2 -107.51,27.1 -228.49,52.6 -349.26,52.6 m 3808.16,-3466.7 c 35.8,-14.5 71.5,-28.3 107.7,-41.9 101.1,83.1 200.9,168.1 298.9,254.9 -31.2,41.4 -62.4,82.8 -93.9,124.4 -78.4,-81.3 -157.1,-163.8 -232.2,-246.5 -27.6,-30.3 -54.4,-60.6 -80.5,-90.9 m -1309.5,89.9 c 351.9,-99.9 704.1,-182.7 1050.9,-252.7 30.5,41 62.3,82 95.3,123 -214.2,94 -421,204.5 -617.3,330.7 -33,21.3 -66.2,43.2 -99.5,65.4 -155.4,-94.6 -310.8,-174 -459.3,-238.1 l 29.9,-28.3 m 1526.6,-171 c 99.7,-34.4 200.5,-65.2 302.4,-92.5 l 68.8,144.8 c -14.4,19.2 -28.9,38.4 -43.3,57.6 -25.9,34.6 -52,69.3 -78.1,104 -82.1,-72.6 -165.4,-143.9 -249.8,-213.9 m -366.8,-103.3 c 21.4,-4.2 42.8,-8.3 64.1,-12.4 34.7,27.2 69.3,54.5 103.6,82.1 -28.6,11.2 -57.1,22.5 -85.5,34.2 -28.4,-34.6 -55.8,-69.3 -82.2,-103.9 m 767.9,-14.5 c 39.4,-9.6 79.1,-18.8 118.7,-27.3 -27,35.7 -53.9,71.5 -80.8,107.2 l -37.9,-79.9 m 1727.9,467.2 c 17.3,-182.1 18,-365.5 1.2,-547.2 l 0.9,0.1 c 362,55.7 696.4,157.2 991.6,298.4 -38.2,54.7 -76.4,109 -114.4,163.1 -294.5,8.5 -588.6,37.1 -879.3,85.6 m -2301.2,-489.6 c 140.6,-25.8 279.9,-49.7 417.7,-71.9 l 13.3,27.9 c -117.8,32 -234.3,68.7 -349.1,110 -27.2,-22.1 -54.5,-44.1 -81.9,-66 m -260.4,-52.1 c -11.9,-16.8 -23.7,-33.5 -35.2,-50.2 20,15 39.9,30.2 59.8,45.3 -8.2,1.6 -16.4,3.2 -24.6,4.9 m 1100,17.8 c 449.1,-81.6 910.3,-95.7 1361.3,-37.6 19.2,190 18.6,384.2 -2.1,579.5 -419,77 -830.2,195.8 -1225.6,356.3 l -313.5,-659.7 c 59.6,-79.2 119.5,-158.8 179.9,-238.5 m -319,-54 c 89.1,-14 177.4,-27.3 264.9,-40.1 -0.8,1 -1.5,2 -2.3,3 -85,16.2 -169.7,34.8 -253.7,55.7 l -8.9,-18.6 m 664.7,-95.7 c 48.9,-6.5 97.5,-12.8 145.7,-19 46.6,-6 93.4,-12 140.2,-18 230.1,-29.3 462.5,-58.9 693.4,-96.3 9.3,47.3 17.3,95 24,143 -332,-40.8 -669.4,-43.4 -1003.3,-9.7 m -5769.3,291.9 c 76.45,-158.8 168.65,-309 274.29,-446.9 -4.16,14.3 -8.27,28.6 -12.34,43 -42.54,150.4 -84.59,319 -110.82,497 l -104.91,-64.4 c -15.12,-9.2 -30.66,-18.8 -46.22,-28.7 m 3384.1,57 550.9,-521.8 c 44.7,30.8 89,61.9 133.2,93.4 44.6,77.5 94.1,155.2 148.3,232.9 -275.1,56.4 -553.5,120.8 -832.4,195.5 m 681.9,-645.8 163.6,-154.9 c 114.3,-108.4 230.2,-218.1 349.5,-324.5 18.4,38.1 36.7,76.3 54.9,114.7 l 323,679.6 c -157.4,25.7 -316.7,53.4 -477.7,83.8 -110,-85.5 -221.8,-168.8 -335.2,-250 -28.1,-49.7 -54.1,-99.3 -78.1,-148.7 m -4148.71,530.2 c -29.87,-24.3 -56.87,-51.4 -77.56,-82.4 -103.92,-155.7 -34.92,-374.7 64.3,-527.7 162.85,-251.2 401.11,-427.1 670.68,-567.7 -82.2,168.2 -156.36,349 -222.39,542.2 -173.37,186.4 -320.68,401.9 -435.03,635.6 m 8109.61,154.1 c 209.4,-301.4 417,-611.2 600.3,-931.6 73.4,-128.4 145.2,-268.1 190.4,-413 764.1,885 1032.2,1464.1 1174.4,1876.2 -524.3,-177.8 -1071.5,-284.4 -1623.1,-320.1 -106.5,-77 -220.8,-147.7 -342,-211.5 m -7586.84,-737 c 19.04,-20.1 38.42,-39.9 58.09,-59.3 275.36,-271.1 601.35,-455.7 942.75,-533.6 674.6,-154 1448.1,68.9 2364.6,681.6 15,10 30.1,20.2 45,30.3 l -671.9,636.4 c -52.7,15 -105.5,30.5 -158.1,46.4 -234.3,-85 -441.1,-127.4 -588.8,-125.9 -204,2.3 -395.8,101.3 -540.1,278.8 -84.5,103.9 -143.9,224 -175.1,348.6 -108.4,57.1 -217.3,121.3 -321.6,193.8 -27,-16.3 -53.5,-32.6 -79.7,-48.6 l -1071.01,-656.8 c 24.7,-188.7 69.1,-368.2 113.98,-526.9 25.68,-90.7 52.98,-179 81.89,-264.8 m 5157.14,271.9 c 214.8,-278.7 435.8,-555.6 666.5,-819.6 36.7,-41.9 75,-84.3 114.8,-126.5 62.3,83.3 121.5,181.4 175.7,295.8 74.9,158.3 132.7,324.8 173.3,496.7 -227.9,36.9 -457.6,66.2 -685,95.1 -46.8,6 -93.6,12 -140.3,18 -100.2,12.9 -201.9,26.4 -305,40.5 m 1249.8,-72.1 c 525.8,-90.7 1040.7,-227.3 1499.8,-498.7 223.3,-132 342.5,-280.4 354.6,-441.4 12.6,14.3 25.3,28.5 37.7,42.6 -39.5,157.7 -118.1,312.5 -198.7,453.5 -183.7,321 -392.8,632.5 -603.6,935.7 -307.7,-149.2 -656.7,-256.1 -1034.3,-314.2 -9.1,-1.4 -18.3,-2.8 -27.5,-4.1 -7.5,-58.1 -16.8,-115.9 -28,-173.4 m -2190,-695 c 176.8,-153.1 361.9,-297 561.8,-417 116.7,-70.1 271.7,-152.1 436.4,-164.9 191.1,-14.8 439.4,70.7 660,324.3 -42.3,44.5 -84.5,91 -126.8,139.3 -254.7,291.5 -497.3,597.9 -732.4,905.2 -130.2,18.5 -262.3,38.2 -396.1,59.4 l -335.5,-706 c -22.4,-47 -44.8,-93.8 -67.4,-140.3 m -635,451.8 c -3.3,-7.7 -6.6,-15.5 -9.9,-23.2 -151.4,-362.1 -181.1,-702.9 -88.2,-1012.7 27.6,-92.1 66.8,-181.1 116.6,-265.9 188,240.5 344.8,525 493,825.2 -127.6,113 -251,229.9 -372.7,345.1 l -138.8,131.5 m 2425.4,-702 c 400.1,-403.6 934,-766.4 1470.5,-604.6 261.9,79 473.2,272.2 664.8,478.5 12.4,34.1 20.1,69.9 19.7,106.3 -1.3,132.8 -104.4,260.8 -306.5,380.2 -446.5,264 -952.2,397.7 -1469.8,486.9 -41.8,-179.5 -102,-355 -181.5,-523.1 -52.2,-110.4 -118.6,-221.9 -197.2,-324.2 m -5723.18,77.2 c 181.8,-83.9 373.38,-156 562.78,-227.3 l 35.2,-13.2 c 290.3,-109.3 583.5,-226.6 867.1,-340 457.5,-183 923.4,-369.4 1397.9,-530.5 143.6,97 270.8,216.1 386.2,351.7 -63,101 -111.9,208.1 -145.3,319.5 -99.7,332.6 -68.9,695.9 91.8,1080 8,19.2 16.3,38.4 25,57.6 l -20,19 c -21.2,-14.5 -42.5,-28.8 -63.8,-43 -746.8,-499.3 -1404.4,-745.6 -1995.4,-745.7 -153.4,0 -302.2,16.6 -447.1,49.7 -322.9,73.7 -632.16,237.5 -900.92,476 62.63,-161.2 131.51,-312.5 206.54,-453.8 m 81.27,-145 c 174.77,-295.5 379.21,-541.9 612.11,-737.1 271.2,-227.2 608.2,-389 949,-455.6 363.7,-71.1 714.5,-33.4 1014.6,109 32.8,15.5 64.7,32.1 95.9,49.7 -449.7,155.5 -891.1,332.1 -1325,505.6 -283.1,113.3 -575.8,230.3 -865.1,339.3 l -35.2,13.2 c -145.9,54.9 -297.13,111.8 -446.31,175.9 m 2899.41,-1005.4 c 357.4,-117.7 719.5,-219.9 1086.5,-294.3 47.2,-9.6 97.1,-19.1 149.2,-28.4 -213.2,68.2 -415.1,171.5 -585.4,301.1 -127.3,96.8 -235.9,206.8 -323.5,326.7 -99.3,-114.1 -207.3,-216.9 -326.8,-305.1 m 393,384.4 c 84.3,-120 191.1,-230 317.9,-326.5 225.6,-171.6 509.9,-294.6 800.6,-346.3 602.4,-107.2 1219.3,37.6 1743.4,193.4 418.5,124.4 873.5,289 1229.6,575.2 -76,-44.7 -156.5,-81.4 -242.6,-107.4 -303.1,-91.4 -628.6,-40.3 -967.3,152 -195.6,111.1 -395.3,268.8 -596,470.6 -191.8,-218.6 -444,-376.2 -736,-353.6 -185.6,14.4 -354.1,103.1 -480.2,178.9 -198.4,119.1 -381.5,260.1 -555.9,409.9 -153,-308.3 -316,-599.9 -513.5,-846.2 m 1771.9,-802 c 756.8,-18.3 1657.9,111.7 2428.9,646.1 257.2,178.3 399.6,349.9 447.9,540.1 18.9,74.7 22.5,150.7 14.8,226.7 -7.5,-8.4 -15.1,-16.9 -22.8,-25.4 -22.9,-25.6 -46.1,-51.2 -69.6,-76.7 -28.9,-70.4 -71.7,-131.4 -107.6,-177.9 -387,-501.4 -1012.4,-739.5 -1573.1,-906.2 -342.6,-101.8 -724.6,-199 -1118.5,-226.7 m 129.8,-102.9 c -393.5,0 -804.9,42.4 -1228.1,128.2 -396.3,80.4 -786.3,192.4 -1170.2,321.3 -56.5,-35.7 -115.5,-68.4 -177.2,-97.7 -626.6,-297.2 -1458.7,-152.4 -2070.7,360.4 -272.8,228.6 -507.43,524 -702.18,883.3 -328.61,156.2 -633.7,357.5 -831.11,662 -116.51,179.7 -194.41,441.6 -63.55,637.6 32.13,48.1 73.38,86.9 117.31,120.2 -23.96,54.1 -46.17,109 -66.56,164.7 -231.58,632.8 -264.33,1394.8 -97.34,2264.8 77.45,403.6 293.56,1096.5 870.68,1202.8 181.24,33.4 366.63,-2.8 524.05,-42.6 78.4,-19.8 156.8,-42.1 235,-67 211.7,192.5 459.8,346.2 738.7,457.6 295,117.7 610.1,182.6 936.4,192.7 16.5,0.6 32.9,0.9 49.4,1.2 -151.7,285.5 -247.1,600.8 -273.1,921.2 -18.9,232.7 12.6,467 88.7,659.8 90,228 239,391.1 431.1,471.6 423.3,177.5 917.9,-66.6 1430.3,-705.9 426,-531.6 829.7,-1058.2 1086.7,-1656.1 111.1,-258.6 187.4,-518.4 228.3,-772.4 79.9,56.7 163.6,110.6 251.1,160.6 -15.9,118.8 -25.2,236 -28.1,351.4 -13.8,566.1 147.4,1044.3 454,1346.4 244.3,240.8 566.7,362.7 820.3,442.1 614.3,192.1 1159.6,216.6 1620.8,72.8 461.4,-143.9 901.4,-478.1 1308,-993.4 245.7,-311.5 430.9,-642.8 535.7,-958.1 47.3,-142.4 78.8,-281.7 94.5,-417.5 23.8,-19.5 46.9,-39.3 69.1,-59.6 207.3,-189 336.9,-404.9 385.1,-641.9 76.2,-374.9 -70.3,-808.6 -382.4,-1132 -313.1,-324.3 -742.1,-506.9 -1037.5,-616 -11.8,-4.4 -23.5,-8.6 -35.4,-12.9 -4.3,-13.4 -8.7,-26.8 -13.2,-40.2 -125.6,-373.6 -312.4,-742.1 -570.9,-1126.7 -183.4,-272.8 -401.4,-551.8 -679.4,-869.1 22.7,-115.1 25.2,-232.4 -4.4,-349.1 -71.7,-282.3 -312.8,-476.3 -487.9,-597.7 -635.6,-440.6 -1447.5,-666.8 -2356,-666.8"
         style="fill:#000000;fill-opacity:1;fill-rule:nonzero;stroke:none"
         transform="matrix(0.13333333,0,0,-0.13333333,0,4936.8533)" />
      <path
         id="path23"
         d="m 7870.15,20963.4 h 0.1 z m -4840.24,3237.1 c -416.55,0 -755.44,-338.9 -755.44,-755.5 v -1553.1 c 0,-416.6 338.89,-755.4 755.44,-755.4 h 3501.42 c 8.14,0 16.15,-2 23.34,-5.8 474.09,-250.3 1141.65,-187.9 1299.4,-144.4 -22.51,26.5 -63.71,66.2 -98.67,100 -175.28,169.2 -468.63,452.5 -468.63,805.6 V 23445 c 0,416.6 -338.88,755.5 -755.44,755.5 z m 4409.37,-3355 c -284.26,0 -636.99,45.1 -920.2,191 H 3029.91 c -471.69,0 -855.44,383.7 -855.44,855.4 V 23445 c 0,471.7 383.75,855.5 855.44,855.5 h 3501.42 c 471.69,0 855.44,-383.8 855.44,-855.5 v -1553.1 c 0,-310.7 274.24,-575.4 438.09,-733.7 111.1,-107.2 166.87,-161.1 137.16,-219.2 -10.01,-19.6 -29.28,-32.3 -66.52,-44.1 -82,-26 -251.36,-49.4 -456.22,-49.4"
         style="fill:#000000;fill-opacity:1;fill-rule:nonzero;stroke:none"
         transform="matrix(0.13333333,0,0,-0.13333333,0,4936.8533)" />
      <path
         id="path24"
         d="M 4596.67,23449.3 H 2849.4 c -27.61,0 -50,22.4 -50,50 0,27.6 22.39,50 50,50 h 1747.27 c 27.61,0 50,-22.4 50,-50 0,-27.6 -22.39,-50 -50,-50"
         style="fill:#000000;fill-opacity:1;fill-rule:nonzero;stroke:none"
         transform="matrix(0.13333333,0,0,-0.13333333,0,4936.8533)" />
      <path
         id="path25"
         d="m 5569.21,23449.3 h -629.65 c -27.62,0 -50,22.4 -50,50 0,27.6 22.38,50 50,50 h 629.65 c 27.61,0 50,-22.4 50,-50 0,-27.6 -22.39,-50 -50,-50"
         style="fill:#000000;fill-opacity:1;fill-rule:nonzero;stroke:none"
         transform="matrix(0.13333333,0,0,-0.13333333,0,4936.8533)" />
      <path
         id="path26"
         d="m 6716.17,23449.3 h -850.55 c -27.62,0 -50,22.4 -50,50 0,27.6 22.38,50 50,50 h 850.55 c 27.61,0 50,-22.4 50,-50 0,-27.6 -22.39,-50 -50,-50"
         style="fill:#000000;fill-opacity:1;fill-rule:nonzero;stroke:none"
         transform="matrix(0.13333333,0,0,-0.13333333,0,4936.8533)" />
      <path
         id="path27"
         d="M 3855.33,21812.2 H 2849.4 c -27.61,0 -50,22.4 -50,50 0,27.6 22.39,50 50,50 h 1005.93 c 27.62,0 50,-22.4 50,-50 0,-27.6 -22.38,-50 -50,-50"
         style="fill:#000000;fill-opacity:1;fill-rule:nonzero;stroke:none"
         transform="matrix(0.13333333,0,0,-0.13333333,0,4936.8533)" />
      <path
         id="path28"
         d="M 3825.35,22929.6 H 2849.4 c -27.61,0 -50,22.4 -50,50 0,27.6 22.39,50 50,50 h 975.95 c 27.62,0 50,-22.4 50,-50 0,-27.6 -22.38,-50 -50,-50"
         style="fill:#000000;fill-opacity:1;fill-rule:nonzero;stroke:none"
         transform="matrix(0.13333333,0,0,-0.13333333,0,4936.8533)" />
      <path
         id="path29"
         d="M 6716.17,22929.6 H 4221.19 c -27.61,0 -50,22.4 -50,50 0,27.6 22.39,50 50,50 h 2494.98 c 27.61,0 50,-22.4 50,-50 0,-27.6 -22.39,-50 -50,-50"
         style="fill:#000000;fill-opacity:1;fill-rule:nonzero;stroke:none"
         transform="matrix(0.13333333,0,0,-0.13333333,0,4936.8533)" />
      <path
         id="path30"
         d="M 3211.45,22356.9 H 2849.4 c -27.61,0 -50,22.4 -50,50 0,27.6 22.39,50 50,50 h 362.05 c 27.61,0 50,-22.4 50,-50 0,-27.6 -22.39,-50 -50,-50"
         style="fill:#000000;fill-opacity:1;fill-rule:nonzero;stroke:none"
         transform="matrix(0.13333333,0,0,-0.13333333,0,4936.8533)" />
      <path
         id="path31"
         d="M 4479.93,22356.9 H 3551.2 c -27.61,0 -50,22.4 -50,50 0,27.6 22.39,50 50,50 h 928.73 c 27.62,0 50,-22.4 50,-50 0,-27.6 -22.38,-50 -50,-50"
         style="fill:#000000;fill-opacity:1;fill-rule:nonzero;stroke:none"
         transform="matrix(0.13333333,0,0,-0.13333333,0,4936.8533)" />
      <path
         id="path32"
         d="M 6716.17,22356.9 H 4827.22 c -27.61,0 -50,22.4 -50,50 0,27.6 22.39,50 50,50 h 1888.95 c 27.61,0 50,-22.4 50,-50 0,-27.6 -22.39,-50 -50,-50"
         style="fill:#000000;fill-opacity:1;fill-rule:nonzero;stroke:none"
         transform="matrix(0.13333333,0,0,-0.13333333,0,4936.8533)" />
      <path
         id="path33"
         d="m 18924.1,19265.6 c 265.2,-169.5 549.1,-310.1 844.6,-418.3 16.6,-6 28.7,-20.4 32,-37.8 3.2,-17.3 -3,-35.1 -16.3,-46.8 L 18689.5,17805 c 650.3,290.2 1284,626.1 1888.1,1001.3 -228.8,221.3 -484.2,413.8 -760.1,572.7 -13.2,7.6 -22.2,20.8 -24.5,35.9 -2.3,15 2.4,30.3 12.8,41.5 l 827.6,892.1 c -222.2,141.1 -414.3,219 -598.8,242.7 -337.8,-465.8 -711.1,-911.3 -1110.5,-1325.6 z m -508.9,-1684.1 c -16.8,0 -33,8.5 -42.4,23.5 -13,20.8 -9,48 9.5,64.1 l 1273.5,1113.9 c -293.4,113.8 -574.8,258.9 -837.4,432 -12.5,8.2 -20.6,21.6 -22.2,36.4 -1.7,14.8 3.4,29.6 13.8,40.3 418.9,430 809.4,894.9 1160.7,1381.8 10.4,14.4 27.7,22.3 45.5,20.5 223.5,-22.2 452.8,-115.7 721.9,-294.3 12.2,-8.1 20.3,-21.2 22,-35.8 1.7,-14.5 -3,-29.1 -13,-39.9 l -825.7,-890 c 280.9,-167.8 540.4,-369.8 771.9,-601.1 10.8,-10.8 16,-25.9 14.3,-41 -1.7,-15.2 -10.2,-28.7 -23.1,-36.8 -715.2,-448.2 -1472.2,-841.7 -2249.9,-1169.7 -6.3,-2.6 -12.9,-3.9 -19.4,-3.9"
         style="fill:#000000;fill-opacity:1;fill-rule:nonzero;stroke:none"
         transform="matrix(0.13333333,0,0,-0.13333333,0,4936.8533)" />
      <path
         id="path34"
         d="m 6976.1,19125.2 1514.26,-927.8 76.37,796.9 c 1.58,16.5 11.27,31.2 25.85,39.1 14.58,7.9 32.15,8.1 46.9,0.5 l 1089.55,-563.7 -1278.1,1358.9 -231.67,-730.7 c -4.92,-15.6 -17.09,-27.7 -32.62,-32.6 -15.54,-4.9 -32.48,-1.9 -45.41,8 l -1001.49,766 z M 8532.5,18063 c -9.08,0 -18.13,2.4 -26.12,7.3 l -1613.17,988.4 c -18.3,11.2 -27.4,32.8 -22.61,53.8 l 189.02,825.5 c 3.8,16.5 15.77,30 31.77,35.8 16.01,5.8 33.84,3 47.35,-7.3 l 1006.71,-770.1 235.89,744.1 c 5.36,16.9 19.27,29.7 36.57,33.7 17.27,3.9 35.37,-1.6 47.52,-14.5 l 1536.87,-1634.1 c 16.7,-17.8 18.2,-45 3.5,-64.4 -14.71,-19.5 -41.29,-25.5 -62.91,-14.3 l -1283.67,664.2 -76.95,-802.9 c -1.65,-17.2 -12.02,-32.3 -27.45,-40 -7.04,-3.5 -14.69,-5.2 -22.32,-5.2"
         style="fill:#000000;fill-opacity:1;fill-rule:nonzero;stroke:none"
         transform="matrix(0.13333333,0,0,-0.13333333,0,4936.8533)" />
      <path
         id="path35"
         d="m 15126.2,28102.9 c 13.3,0 26.2,-5.3 35.7,-14.9 10.6,-10.9 15.8,-26 13.9,-41.1 l -131.8,-1093.3 704.9,1526.2 -577.3,-37.6 c -15.2,-1 -30,4.9 -40.2,16.1 -10.2,11.3 -14.8,26.5 -12.5,41.5 l 159.1,1018.8 -533.9,-148.8 -165.6,-1322.8 542.6,55.7 c 1.7,0.1 3.4,0.2 5.1,0.2 z m -169.8,-1508.2 c -4.6,0 -9.2,0.6 -13.7,1.9 -23.7,6.7 -38.9,29.6 -36,54.1 l 162.4,1346.1 -542.9,-55.7 c -15.1,-1.6 -30.2,3.9 -40.9,14.8 -10.6,10.9 -15.7,26 -13.8,41.1 l 177.5,1418.2 c 2.5,20 16.8,36.6 36.2,42 l 640.8,178.6 c 16.4,4.6 34,0.5 46.6,-10.8 12.8,-11.3 18.8,-28.3 16.2,-45.1 l -161.5,-1033.9 599,39 c 17.5,1.2 34.5,-7.1 44.5,-21.6 9.9,-14.5 11.5,-33.3 4.1,-49.3 l -873.2,-1890.4 c -8.3,-18 -26.3,-29 -45.3,-29"
         style="fill:#000000;fill-opacity:1;fill-rule:nonzero;stroke:none"
         transform="matrix(0.13333333,0,0,-0.13333333,0,4936.8533)" />
      <path
         id="path36"
         d="m 19966.9,27310.2 c -7.7,0 -15.6,1.8 -23,5.6 -24.5,12.8 -34,43 -21.3,67.5 l 444.9,854.7 c 12.8,24.5 43,34 67.4,21.3 24.5,-12.7 34.1,-42.9 21.3,-67.4 l -444.9,-854.8 c -8.9,-17.1 -26.3,-26.9 -44.4,-26.9"
         style="fill:#000000;fill-opacity:1;fill-rule:nonzero;stroke:none"
         transform="matrix(0.13333333,0,0,-0.13333333,0,4936.8533)" />
      <path
         id="path37"
         d="m 20263.4,26944.9 c -14,0 -27.9,5.8 -37.8,17.2 -18.1,20.9 -15.8,52.4 5,70.5 263.2,228.2 543,442.8 831.6,637.9 22.9,15.5 53.9,9.4 69.4,-13.4 15.4,-22.9 9.4,-54 -13.4,-69.5 -285.3,-192.8 -561.9,-404.9 -822.1,-630.5 -9.4,-8.2 -21.1,-12.2 -32.7,-12.2"
         style="fill:#000000;fill-opacity:1;fill-rule:nonzero;stroke:none"
         transform="matrix(0.13333333,0,0,-0.13333333,0,4936.8533)" />
      <path
         id="path38"
         d="m 10181.2,27292.6 c -7.9,0 -15.9,1.9 -23.3,5.9 -304.64,161.4 -622.69,304.9 -945.33,426.6 -25.84,9.7 -38.9,38.6 -29.16,64.4 9.75,25.8 38.58,38.9 64.43,29.2 326.59,-123.2 648.52,-268.5 956.86,-431.9 24.4,-12.9 33.7,-43.2 20.8,-67.6 -9,-16.9 -26.3,-26.6 -44.3,-26.6"
         style="fill:#000000;fill-opacity:1;fill-rule:nonzero;stroke:none"
         transform="matrix(0.13333333,0,0,-0.13333333,0,4936.8533)" />
      <path
         id="path39"
         d="m 10511.5,27663.9 c -15.1,0 -30,6.8 -39.8,19.8 l -621.01,818.7 c -16.68,22 -12.38,53.3 9.62,70 22,16.7 53.36,12.4 70.06,-9.6 l 620.93,-818.7 c 16.7,-22 12.4,-53.3 -9.6,-70 -9,-6.9 -19.6,-10.2 -30.2,-10.2"
         style="fill:#000000;fill-opacity:1;fill-rule:nonzero;stroke:none"
         transform="matrix(0.13333333,0,0,-0.13333333,0,4936.8533)" />
      <path
         id="path40"
         d="m 16940.7,36856.4 c -602,0 -1167.9,-234.4 -1593.6,-660.1 -425.7,-425.6 -660.1,-991.6 -660.1,-1593.6 0,-601.9 234.4,-1167.9 660.1,-1593.5 425.7,-425.7 991.6,-660.1 1593.6,-660.1 601.9,0 1167.9,234.4 1593.6,660.1 425.6,425.6 660,991.6 660,1593.5 0,602 -234.4,1168 -660,1593.6 -425.7,425.7 -991.7,660.1 -1593.6,660.1 z m 0,-4677.3 c -647.4,0 -1256,252.1 -1713.8,709.8 -457.8,457.8 -709.9,1066.5 -709.9,1713.8 0,647.4 252.1,1256.1 709.9,1713.8 457.8,457.8 1066.4,709.9 1713.8,709.9 647.4,0 1256,-252.1 1713.8,-709.9 457.7,-457.7 709.8,-1066.4 709.8,-1713.8 0,-647.3 -252.1,-1256 -709.8,-1713.8 -457.8,-457.7 -1066.4,-709.8 -1713.8,-709.8"
         style="fill:#000000;fill-opacity:1;fill-rule:nonzero;stroke:none"
         transform="matrix(0.13333333,0,0,-0.13333333,0,4936.8533)" />
      <path
         id="path41"
         d="m 16934.7,36130.3 h -0.8 c -27.6,0.5 -49.7,23.2 -49.2,50.9 l 8,481.2 c 0.4,27.4 22.7,49.2 49.9,49.2 h 0.9 c 27.6,-0.5 49.6,-23.2 49.2,-50.8 l -8,-481.3 c -0.5,-27.3 -22.8,-49.2 -50,-49.2"
         style="fill:#000000;fill-opacity:1;fill-rule:nonzero;stroke:none"
         transform="matrix(0.13333333,0,0,-0.13333333,0,4936.8533)" />
      <path
         id="path42"
         d="m 16938.7,32493.9 h -0.8 c -27.7,0.4 -49.7,23.2 -49.2,50.8 l 8,481.3 c 0.4,27.3 22.7,49.1 49.9,49.1 h 0.9 c 27.6,-0.4 49.6,-23.2 49.2,-50.8 l -8,-481.2 c -0.5,-27.4 -22.8,-49.2 -50,-49.2"
         style="fill:#000000;fill-opacity:1;fill-rule:nonzero;stroke:none"
         transform="matrix(0.13333333,0,0,-0.13333333,0,4936.8533)" />
      <path
         id="path43"
         d="m 15363.1,34546.8 h -0.8 l -481.3,7.9 c -27.6,0.5 -49.6,23.2 -49.2,50.9 0.5,27.3 22.8,49.1 50,49.1 h 0.8 l 481.3,-7.9 c 27.6,-0.5 49.6,-23.3 49.2,-50.9 -0.5,-27.3 -22.8,-49.1 -50,-49.1"
         style="fill:#000000;fill-opacity:1;fill-rule:nonzero;stroke:none"
         transform="matrix(0.13333333,0,0,-0.13333333,0,4936.8533)" />
      <path
         id="path44"
         d="m 18999.6,34550.8 h -0.9 l -481.3,7.9 c -27.6,0.5 -49.6,23.2 -49.1,50.9 0.4,27.3 22.7,49.1 49.9,49.1 h 0.9 l 481.3,-8 c 27.6,-0.4 49.6,-23.2 49.1,-50.8 -0.4,-27.3 -22.7,-49.1 -49.9,-49.1"
         style="fill:#000000;fill-opacity:1;fill-rule:nonzero;stroke:none"
         transform="matrix(0.13333333,0,0,-0.13333333,0,4936.8533)" />
      <path
         id="path45"
         d="m 16146.8,35916 c -17.6,0 -34.7,9.3 -43.8,25.7 l -233.7,420.8 c -13.4,24.1 -4.7,54.6 19.4,68 24.1,13.4 54.6,4.7 68,-19.5 l 233.7,-420.7 c 13.4,-24.2 4.7,-54.6 -19.4,-68 -7.7,-4.3 -16,-6.3 -24.2,-6.3"
         style="fill:#000000;fill-opacity:1;fill-rule:nonzero;stroke:none"
         transform="matrix(0.13333333,0,0,-0.13333333,0,4936.8533)" />
      <path
         id="path46"
         d="m 17968.4,32768.7 c -17.5,0 -34.6,9.3 -43.7,25.7 l -233.8,420.8 c -13.4,24.2 -4.7,54.6 19.5,68 24.1,13.4 54.5,4.7 68,-19.4 l 233.7,-420.8 c 13.4,-24.2 4.7,-54.6 -19.4,-68 -7.7,-4.3 -16.1,-6.3 -24.3,-6.3"
         style="fill:#000000;fill-opacity:1;fill-rule:nonzero;stroke:none"
         transform="matrix(0.13333333,0,0,-0.13333333,0,4936.8533)" />
      <path
         id="path47"
         d="m 15571.4,35336.3 c -8.7,0 -17.6,2.3 -25.7,7.2 l -412.8,247.5 c -23.6,14.2 -31.3,44.9 -17.1,68.6 14.2,23.7 44.9,31.4 68.6,17.2 l 412.8,-247.6 c 23.6,-14.2 31.3,-44.9 17.1,-68.6 -9.3,-15.6 -25.9,-24.3 -42.9,-24.3"
         style="fill:#000000;fill-opacity:1;fill-rule:nonzero;stroke:none"
         transform="matrix(0.13333333,0,0,-0.13333333,0,4936.8533)" />
      <path
         id="path48"
         d="m 18722.7,33521.6 c -8.8,0 -17.7,2.3 -25.7,7.1 l -412.8,247.6 c -23.7,14.1 -31.4,44.9 -17.2,68.5 14.2,23.7 44.9,31.4 68.6,17.2 l 412.8,-247.5 c 23.7,-14.2 31.4,-45 17.2,-68.6 -9.4,-15.7 -25.9,-24.3 -42.9,-24.3"
         style="fill:#000000;fill-opacity:1;fill-rule:nonzero;stroke:none"
         transform="matrix(0.13333333,0,0,-0.13333333,0,4936.8533)" />
      <path
         id="path49"
         d="m 15156.7,33525 c -17.6,0 -34.6,9.3 -43.8,25.8 -13.4,24.1 -4.7,54.5 19.5,68 l 420.8,233.7 c 24.1,13.4 54.5,4.7 68,-19.5 13.4,-24.1 4.7,-54.5 -19.5,-68 l -420.8,-233.7 c -7.7,-4.2 -16,-6.3 -24.2,-6.3"
         style="fill:#000000;fill-opacity:1;fill-rule:nonzero;stroke:none"
         transform="matrix(0.13333333,0,0,-0.13333333,0,4936.8533)" />
      <path
         id="path50"
         d="m 18304,35346.7 c -17.6,0 -34.7,9.3 -43.8,25.7 -13.4,24.2 -4.7,54.6 19.4,68 l 420.8,233.7 c 24.1,13.5 54.6,4.8 68,-19.4 13.4,-24.1 4.7,-54.6 -19.4,-68 l -420.8,-233.7 c -7.7,-4.3 -16,-6.3 -24.2,-6.3"
         style="fill:#000000;fill-opacity:1;fill-rule:nonzero;stroke:none"
         transform="matrix(0.13333333,0,0,-0.13333333,0,4936.8533)" />
      <path
         id="path51"
         d="m 15909.5,32770.7 c -8.8,0 -17.6,2.3 -25.7,7.1 -23.7,14.2 -31.4,44.9 -17.2,68.6 l 247.6,412.8 c 14.2,23.7 44.9,31.4 68.6,17.2 23.7,-14.2 31.3,-44.9 17.1,-68.6 l -247.5,-412.8 c -9.4,-15.6 -25.9,-24.3 -42.9,-24.3"
         style="fill:#000000;fill-opacity:1;fill-rule:nonzero;stroke:none"
         transform="matrix(0.13333333,0,0,-0.13333333,0,4936.8533)" />
      <path
         id="path52"
         d="m 17724.2,35922 c -8.7,0 -17.6,2.3 -25.6,7.1 -23.7,14.2 -31.4,44.9 -17.2,68.6 l 247.6,412.8 c 14.2,23.7 44.9,31.4 68.6,17.1 23.6,-14.2 31.3,-44.9 17.1,-68.5 l -247.5,-412.8 c -9.4,-15.7 -26,-24.3 -43,-24.3"
         style="fill:#000000;fill-opacity:1;fill-rule:nonzero;stroke:none"
         transform="matrix(0.13333333,0,0,-0.13333333,0,4936.8533)" />
      <path
         id="path53"
         d="m 16871.2,34531.6 c -15.2,0 -30.6,3.2 -45.3,9.8 -10.4,4.7 -1039,470.2 -1183.6,534.5 -55.6,24.6 -80.6,89.6 -55.9,145.2 24.7,55.5 89.7,80.5 145.2,55.8 145.3,-64.5 1174.6,-530.3 1185,-535 55.3,-25.1 79.9,-90.2 54.9,-145.6 -18.4,-40.6 -58.5,-64.7 -100.3,-64.7"
         style="fill:#000000;fill-opacity:1;fill-rule:nonzero;stroke:none"
         transform="matrix(0.13333333,0,0,-0.13333333,0,4936.8533)" />
      <path
         id="path54"
         d="m 16940.7,34790 c -103.3,0 -187.3,-84 -187.3,-187.3 0,-103.2 84,-187.2 187.3,-187.2 103.2,0 187.2,84 187.2,187.2 0,103.3 -84,187.3 -187.2,187.3"
         style="fill:#000000;fill-opacity:1;fill-rule:nonzero;stroke:none"
         transform="matrix(0.13333333,0,0,-0.13333333,0,4936.8533)" />
      <path
         id="path55"
         d="m 17064.4,33637.6 c -63.4,0 -118.9,46.5 -128.4,111.1 l -115.5,782.7 c -10.5,71.1 38.6,137.1 109.6,147.6 71,10.5 137.2,-38.6 147.6,-109.6 l 115.5,-782.8 c 10.5,-71 -38.6,-137.1 -109.6,-147.6 -6.5,-0.9 -12.9,-1.4 -19.2,-1.4"
         style="fill:#000000;fill-opacity:1;fill-rule:nonzero;stroke:none"
         transform="matrix(0.13333333,0,0,-0.13333333,0,4936.8533)" />
      <path
         id="path56"
         d="m 22802.3,19854.3 450.7,1245.8 491.4,-177.8 -450.6,-1245.7 -491.5,177.7"
         style="fill:#000000;fill-opacity:1;fill-rule:nonzero;stroke:none"
         transform="matrix(0.13333333,0,0,-0.13333333,0,4936.8533)" />
      <path
         id="path57"
         d="m 22571.8,19216.9 164.3,454.3 491.4,-177.7 -164.3,-454.4 -491.4,177.8"
         style="fill:#000000;fill-opacity:1;fill-rule:nonzero;stroke:none"
         transform="matrix(0.13333333,0,0,-0.13333333,0,4936.8533)" />
      <path
         id="path58"
         d="m 21893.1,20524.2 h 0.1 z m 1263.2,837.7 c -187.3,0 -373.8,-41.2 -548.5,-123 -313,-146.8 -550.1,-406.6 -667.7,-731.7 -117.6,-325.1 -101.6,-676.5 45.1,-989.5 146.8,-313 406.6,-550.2 731.7,-667.8 144.8,-52.4 293.2,-77.2 439,-77.2 529.8,-0.1 1027.9,327.8 1218.3,854.1 117.6,325 101.5,676.5 -45.2,989.5 -146.7,313 -406.5,550.2 -731.6,667.7 -143.7,52 -292.7,77.9 -441.1,77.9 z m -0.5,-2689.2 c -157.2,0 -316.9,26.7 -472.9,83.2 -350.2,126.7 -630.1,382.1 -788.2,719.3 -158.1,337.3 -175.3,715.8 -48.7,1066 126.7,350.2 382.2,630.2 719.4,788.2 337.2,158.1 715.8,175.4 1066,48.7 350.2,-126.7 630.1,-382.2 788.2,-719.4 158,-337.2 175.3,-715.8 48.6,-1066 -205,-566.8 -741.7,-920 -1312.4,-920"
         style="fill:#000000;fill-opacity:1;fill-rule:nonzero;stroke:none"
         transform="matrix(0.13333333,0,0,-0.13333333,0,4936.8533)" />
      <path
         id="path59"
         d="m 27943.3,29874.2 c -3,0 -6,-0.1 -9.1,-0.3 -34.4,-2.4 -65.8,-18.1 -88.4,-44.1 l -2312.6,-2656.3 c -22.6,-26 -33.8,-59.2 -31.4,-93.6 2.4,-34.4 18,-65.8 44,-88.5 l 1445.8,-1258.7 c 26,-22.6 59.3,-33.8 93.7,-31.4 34.4,2.4 65.8,18 88.4,44 l 2312.6,2656.3 c 22.6,26 33.8,59.3 31.4,93.7 -2.4,34.4 -18,65.8 -44,88.4 l -1445.8,1258.7 c -23.7,20.7 -53.5,31.8 -84.6,31.8 z M 27076,25601 c -55.2,0 -108,19.7 -150.1,56.3 L 25480.1,26916 c -46.1,40.2 -73.8,95.9 -78.1,157 -4.2,61 15.6,120 55.8,166.2 l 2312.6,2656.3 c 40.1,46.1 95.9,73.9 156.9,78.1 61,4.2 120.1,-15.5 166.2,-55.7 l 1445.9,-1258.8 c 46.1,-40.1 73.9,-95.9 78.1,-156.9 4.2,-61.1 -15.6,-120.1 -55.8,-166.3 l -2312.6,-2656.3 c -40.1,-46.1 -95.9,-73.8 -156.9,-78.1 -5.4,-0.3 -10.8,-0.5 -16.2,-0.5"
         style="fill:#000000;fill-opacity:1;fill-rule:nonzero;stroke:none"
         transform="matrix(0.13333333,0,0,-0.13333333,0,4936.8533)" />
      <path
         id="path60"
         d="m 27885.5,29566.7 c -3,0 -6.1,-0.1 -9.1,-0.3 -34.4,-2.4 -65.8,-18.1 -88.5,-44.1 l -1958,-2249.1 c -22.7,-26 -33.8,-59.2 -31.5,-93.6 2.4,-34.4 18.1,-65.8 44.1,-88.5 l 1207,-1050.8 c 53.7,-46.8 135.4,-41.1 182.1,12.6 l 1958.1,2249.1 c 22.6,26 33.8,59.2 31.4,93.6 -2.4,34.4 -18,65.8 -44,88.5 L 27970,29534.9 c -23.7,20.7 -53.4,31.8 -84.5,31.8 z m -751.4,-3658 c -53.4,-0.1 -106.9,18.4 -150.3,56.2 l -1207,1050.8 c -46.2,40.2 -73.9,95.9 -78.1,157 -4.2,61 15.6,120.1 55.7,166.2 l 1958.1,2249.1 c 83,95.3 227.9,105.3 323.2,22.4 l 1207,-1050.9 c 46.2,-40.2 73.9,-95.9 78.2,-157 4.2,-61 -15.6,-120 -55.8,-166.2 L 27307,25987.2 c -45.2,-51.9 -108.9,-78.5 -172.9,-78.5"
         style="fill:#000000;fill-opacity:1;fill-rule:nonzero;stroke:none"
         transform="matrix(0.13333333,0,0,-0.13333333,0,4936.8533)" />
      <path
         id="path61"
         d="m 28842.1,28965.7 c -11.6,0 -23.3,4 -32.8,12.3 l -299.4,260.6 c -20.9,18.2 -23,49.8 -4.9,70.6 18.1,20.8 49.7,23 70.5,4.9 l 299.5,-260.7 c 20.8,-18.1 23,-49.7 4.8,-70.6 -9.9,-11.3 -23.7,-17.1 -37.7,-17.1"
         style="fill:#000000;fill-opacity:1;fill-rule:nonzero;stroke:none"
         transform="matrix(0.13333333,0,0,-0.13333333,0,4936.8533)" />
      <path
         id="path62"
         d="m 26390.7,26320.4 c -11.6,0 -23.3,4.1 -32.8,12.3 l -130.6,113.7 c -20.8,18.1 -23,49.7 -4.9,70.5 18.2,20.9 49.8,23.1 70.6,4.9 l 130.6,-113.7 c 20.8,-18.1 23,-49.7 4.9,-70.5 -9.9,-11.4 -23.8,-17.2 -37.8,-17.2"
         style="fill:#000000;fill-opacity:1;fill-rule:nonzero;stroke:none"
         transform="matrix(0.13333333,0,0,-0.13333333,0,4936.8533)" />
      <path
         id="path63"
         d="m 27959.8,28896.3 h 0.1 z m 186.4,125.6 c -6.5,0 -13,-2.7 -17.7,-8 l -131,-150.5 c -5.5,-6.3 -5.9,-13.3 -5.7,-16.9 0.3,-3.7 1.6,-10.5 8,-16.1 l 779.7,-678.8 c 6.4,-5.5 13.4,-5.9 17,-5.7 3.6,0.3 10.5,1.6 16,8 l 131,150.5 c 5.6,6.4 6,13.3 5.7,16.9 -0.2,3.6 -1.6,10.5 -7.9,16.1 l -779.8,678.8 c -4.4,3.9 -9.9,5.7 -15.3,5.7 z m 648.5,-976.1 c -29.8,0 -58.2,10.6 -80.8,30.4 l -779.8,678.8 c -24.8,21.7 -39.8,51.7 -42,84.6 -2.3,32.8 8.4,64.6 30,89.5 l 131,150.5 c 44.7,51.3 122.8,56.7 174.1,12 l 779.7,-678.8 c 24.9,-21.7 39.8,-51.7 42.1,-84.5 2.3,-32.9 -8.4,-64.7 -30,-89.6 l -131.1,-150.5 c -21.6,-24.8 -51.6,-39.8 -84.5,-42.1 -2.9,-0.2 -5.8,-0.3 -8.7,-0.3"
         style="fill:#000000;fill-opacity:1;fill-rule:nonzero;stroke:none"
         transform="matrix(0.13333333,0,0,-0.13333333,0,4936.8533)" />
      <path
         id="path64"
         d="m 27183.1,28539.3 c -8.4,-9.7 -7.4,-24.5 2.3,-33 l 862.9,-751.2 c 9.7,-8.4 24.5,-7.4 33,2.3 l 301.5,346.4 c 5.6,6.4 6,13.4 5.7,17 -0.2,3.6 -1.6,10.5 -8,16 l -862.8,751.2 c -9.7,8.5 -24.5,7.4 -33,-2.3 z m 880.4,-889.9 c -28.7,0 -57.6,10 -80.9,30.3 l -862.8,751.2 c -51.4,44.7 -56.7,122.8 -12.1,174.1 v 0 l 301.6,346.4 c 44.7,51.3 122.7,56.7 174.1,12 l 862.8,-751.2 c 24.9,-21.6 39.8,-51.6 42.1,-84.5 2.3,-32.9 -8.4,-64.7 -30.1,-89.5 l -301.5,-346.4 c -24.4,-28 -58.7,-42.4 -93.2,-42.4"
         style="fill:#000000;fill-opacity:1;fill-rule:nonzero;stroke:none"
         transform="matrix(0.13333333,0,0,-0.13333333,0,4936.8533)" />
      <path
         id="path65"
         d="m 26027.5,27211.9 c -8.5,-9.7 -7.4,-24.5 2.3,-33 l 910.3,-792.5 c 6.4,-5.6 13.3,-6 17,-5.7 3.6,0.2 10.5,1.6 16,8 l 503.1,577.9 c 5.6,6.3 6,13.3 5.7,16.9 -0.2,3.6 -1.6,10.5 -8,16.1 l -910.3,792.5 c -6.3,5.5 -13.4,5.9 -17,5.7 -3.6,-0.3 -10.4,-1.6 -16,-8 z m 927.9,-931.2 c -28.8,0 -57.6,9.9 -81,30.3 l -910.3,792.5 c -51.3,44.7 -56.7,122.7 -12,174.1 v 0 l 503.1,577.9 c 21.6,24.8 51.7,39.8 84.5,42 32.8,2.3 64.7,-8.3 89.6,-30 l 910.3,-792.5 c 24.9,-21.7 39.8,-51.7 42.1,-84.6 2.2,-32.8 -8.4,-64.6 -30.1,-89.5 l -503.1,-577.9 c -24.3,-28 -58.6,-42.3 -93.1,-42.3"
         style="fill:#000000;fill-opacity:1;fill-rule:nonzero;stroke:none"
         transform="matrix(0.13333333,0,0,-0.13333333,0,4936.8533)" />
      <path
         id="path66"
         d="m 27008.9,27804 h 0.1 z m 269.1,220.7 c -6.6,0 -13.1,-2.7 -17.7,-8 l -213.7,-245.5 c -8.5,-9.8 -7.4,-24.6 2.3,-33 l 779.7,-678.9 c 6.4,-5.5 13.4,-5.9 17,-5.6 3.6,0.2 10.5,1.6 16,7.9 l 213.7,245.5 c 5.6,6.4 6,13.4 5.7,17 -0.2,3.6 -1.6,10.5 -8,16 l -779.7,678.8 c -4.4,3.9 -9.9,5.8 -15.3,5.8 z m 565.8,-1071.1 c -29.8,0 -58.2,10.6 -80.8,30.3 l -779.8,678.9 c -51.3,44.6 -56.7,122.7 -12,174 l 213.7,245.5 c 44.7,51.3 122.8,56.7 174.1,12.1 l 779.7,-678.9 c 24.9,-21.6 39.8,-51.6 42.1,-84.5 2.3,-32.9 -8.4,-64.7 -30.1,-89.6 L 27937,26996 c -21.6,-24.9 -51.6,-39.8 -84.5,-42.1 -2.9,-0.2 -5.8,-0.3 -8.7,-0.3"
         style="fill:#000000;fill-opacity:1;fill-rule:nonzero;stroke:none"
         transform="matrix(0.13333333,0,0,-0.13333333,0,4936.8533)" />
      <path
         id="path67"
         d="m 27596.8,23534.1 -1512.9,-451.3 -619.4,-184.7 -192.7,616.9 v 0 l -470.6,1507 1397.8,-743.9 z m -2891.7,1460.2 456.2,-1460.8 -1466.5,-437.4 z m -979.6,-1993.4 1465.6,437.2 192.7,-617 c 8.1,-26.1 35.8,-40.8 62,-33 l 619.4,184.8 455.9,-1459.9 -1397.8,743.9 z m 2891.7,-1460.2 -456.2,1460.8 1466.5,437.4 z m 1160.4,1975.8 c 0.3,2.9 0.2,5.7 0,8.5 l -0.3,2.5 c -0.3,2.2 -0.7,4.4 -1.3,6.5 l -0.3,1.6 -0.4,0.9 c -0.9,2.8 -2,5.5 -3.4,8.1 l -0.2,0.3 c -1.3,2.5 -2.9,4.8 -4.7,7.1 l -1.6,1.9 c -1.5,1.6 -3.1,3.2 -4.7,4.6 l -1.9,1.7 c -2.3,1.8 -4.8,3.5 -7.5,4.9 l -3010.7,1602.5 c -2.6,1.4 -5.4,2.5 -8.2,3.4 l -2.5,0.6 c -2.1,0.6 -4.2,1 -6.4,1.3 l -2.6,0.3 c -2.8,0.2 -5.6,0.2 -8.4,0 h -0.4 c -2.9,-0.3 -5.8,-1 -8.6,-1.8 l -1,-0.2 -1.4,-0.6 c -2.1,-0.7 -4.1,-1.5 -6.1,-2.5 l -2.4,-1.2 c -2.4,-1.3 -4.7,-2.9 -6.9,-4.6 l -0.4,-0.3 -0.1,-0.1 c -2.3,-1.9 -4.3,-4 -6.1,-6.2 l -1.6,-2 c -1.3,-1.7 -2.5,-3.6 -3.6,-5.5 l -0.9,-1.3 -1122.7,-2109.4 -0.6,-1.4 c -1,-2.1 -1.9,-4.2 -2.6,-6.4 l -0.8,-2.4 c -0.8,-2.7 -1.3,-5.4 -1.6,-8.3 v -0.2 l -0.1,-1.7 c -0.1,-2.4 -0.1,-4.8 0.1,-7.2 0.1,-0.9 0.2,-1.8 0.3,-2.7 0.3,-2.1 0.7,-4.2 1.3,-6.2 l 0.7,-2.5 c 0.8,-2.6 1.8,-5.1 3.1,-7.4 l 0.2,-0.6 c 1.4,-2.5 3,-4.9 4.7,-7.2 l 1.8,-2.1 c 1.4,-1.6 2.9,-3 4.5,-4.5 l 2.1,-1.8 c 2.4,-1.8 4.8,-3.6 7.5,-5 l 3010.7,-1602.5 c 1.9,-0.9 3.7,-1.8 5.7,-2.5 1.6,-0.6 3.3,-1.1 5,-1.6 l 0.8,-0.2 c 1.8,-0.5 3.6,-0.8 5.4,-1 l 0.6,-0.1 c 2,-0.3 4,-0.4 6,-0.4 v 0 0 c 2.7,0 5.3,0.2 8,0.7 l 2.6,0.5 c 1.3,0.3 2.7,0.6 4,1 l 1,0.4 c 2,0.6 3.9,1.5 5.8,2.4 l 2.7,1.2 c 2.4,1.3 4.6,2.8 6.7,4.5 l 1.1,0.8 v 0 c 2.3,1.9 4.3,4 6.2,6.2 l 1.5,2 c 1.4,1.7 2.6,3.6 3.7,5.5 l 0.9,1.3 1122.7,2109.4 0.6,1.4 c 1,2 1.8,4.1 2.5,6.2 l 0.8,2.3 c 0.8,2.8 1.4,5.7 1.7,8.6 v 0.1 0.4"
         style="fill:#000000;fill-opacity:1;fill-rule:nonzero;stroke:none"
         transform="matrix(0.13333333,0,0,-0.13333333,0,4936.8533)" />
      <path
         id="path68"
         d="m 26580.2,33689.5 h -1334.6 c -27.6,0 -50,22.4 -50,50 0,27.6 22.4,50 50,50 h 1334.6 c 27.6,0 50,-22.4 50,-50 0,-27.6 -22.4,-50 -50,-50"
         style="fill:#000000;fill-opacity:1;fill-rule:nonzero;stroke:none"
         transform="matrix(0.13333333,0,0,-0.13333333,0,4936.8533)" />
      <path
         id="path69"
         d="m 24898.9,33689.5 h -1444.2 c -27.6,0 -50,22.4 -50,50 0,27.6 22.4,50 50,50 h 1444.2 c 27.6,0 50,-22.4 50,-50 0,-27.6 -22.4,-50 -50,-50"
         style="fill:#000000;fill-opacity:1;fill-rule:nonzero;stroke:none"
         transform="matrix(0.13333333,0,0,-0.13333333,0,4936.8533)" />
      <path
         id="path70"
         d="m 23114.1,33689.5 h -977.4 c -27.6,0 -50,22.4 -50,50 0,27.6 22.4,50 50,50 h 977.4 c 27.6,0 50,-22.4 50,-50 0,-27.6 -22.4,-50 -50,-50"
         style="fill:#000000;fill-opacity:1;fill-rule:nonzero;stroke:none"
         transform="matrix(0.13333333,0,0,-0.13333333,0,4936.8533)" />
      <path
         id="path71"
         d="m 26580.2,33092.3 h -2111 c -27.6,0 -50,22.4 -50,50 0,27.6 22.4,50 50,50 h 2111 c 27.6,0 50,-22.4 50,-50 0,-27.6 -22.4,-50 -50,-50"
         style="fill:#000000;fill-opacity:1;fill-rule:nonzero;stroke:none"
         transform="matrix(0.13333333,0,0,-0.13333333,0,4936.8533)" />
      <path
         id="path72"
         d="m 24072.8,33092.3 h -1936.1 c -27.6,0 -50,22.4 -50,50 0,27.6 22.4,50 50,50 h 1936.1 c 27.6,0 50,-22.4 50,-50 0,-27.6 -22.4,-50 -50,-50"
         style="fill:#000000;fill-opacity:1;fill-rule:nonzero;stroke:none"
         transform="matrix(0.13333333,0,0,-0.13333333,0,4936.8533)" />
      <path
         id="path73"
         d="m 26580.2,32434.2 h -1826.9 c -27.6,0 -50,22.4 -50,50 0,27.6 22.4,50 50,50 h 1826.9 c 27.6,0 50,-22.4 50,-50 0,-27.6 -22.4,-50 -50,-50"
         style="fill:#000000;fill-opacity:1;fill-rule:nonzero;stroke:none"
         transform="matrix(0.13333333,0,0,-0.13333333,0,4936.8533)" />
      <path
         id="path74"
         d="m 24414.1,32434.2 h -376.9 c -27.7,0 -50,22.4 -50,50 0,27.6 22.3,50 50,50 h 376.9 c 27.6,0 50,-22.4 50,-50 0,-27.6 -22.4,-50 -50,-50"
         style="fill:#000000;fill-opacity:1;fill-rule:nonzero;stroke:none"
         transform="matrix(0.13333333,0,0,-0.13333333,0,4936.8533)" />
      <path
         id="path75"
         d="m 23682.9,32434.2 h -1546.2 c -27.6,0 -50,22.4 -50,50 0,27.6 22.4,50 50,50 h 1546.2 c 27.6,0 50,-22.4 50,-50 0,-27.6 -22.4,-50 -50,-50"
         style="fill:#000000;fill-opacity:1;fill-rule:nonzero;stroke:none"
         transform="matrix(0.13333333,0,0,-0.13333333,0,4936.8533)" />
      <path
         id="path76"
         d="m 24579.2,31776.1 h -2442.5 c -27.6,0 -50,22.4 -50,50 0,27.6 22.4,50 50,50 h 2442.5 c 27.7,0 50,-22.4 50,-50 0,-27.6 -22.3,-50 -50,-50"
         style="fill:#000000;fill-opacity:1;fill-rule:nonzero;stroke:none"
         transform="matrix(0.13333333,0,0,-0.13333333,0,4936.8533)" />
      <path
         id="path77"
         d="m 20816.2,30847.9 c 162.5,-50 955.6,-129.3 1509.6,163.2 7.2,3.7 15.2,5.7 23.3,5.7 h 4023.6 c 482.8,0 875.6,392.8 875.6,875.6 v 1784.8 c 0,482.8 -392.8,875.5 -875.6,875.5 h -4023.6 c -482.8,0 -875.6,-392.7 -875.6,-875.5 v -1784.8 c 0,-402.6 -335.6,-726.7 -536.2,-920.4 -46.4,-44.7 -97.5,-94.2 -121.1,-124.1 z m 489.7,-150.6 c -234.5,0 -428.3,26.8 -522.1,56.5 -40.7,12.9 -61.6,26.5 -72.1,47 -31.6,61.9 31.1,122.5 156.1,243.2 189.2,182.6 505.7,488.3 505.7,848.4 v 1784.8 c 0,537.9 437.7,975.5 975.6,975.5 h 4023.6 c 537.9,0 975.6,-437.6 975.6,-975.5 v -1784.8 c 0,-537.9 -437.7,-975.6 -975.6,-975.6 h -4011.3 c -324.6,-167.7 -729.5,-219.5 -1055.5,-219.5"
         style="fill:#000000;fill-opacity:1;fill-rule:nonzero;stroke:none"
         transform="matrix(0.13333333,0,0,-0.13333333,0,4936.8533)" />
      <path
         id="path78"
         d="m 7676.75,32570 c -163.91,64.2 -936.45,366.9 -1709.23,669.3 -435.33,170.3 -870.71,340.5 -1197.36,468 -55.08,21.5 -106.98,41.7 -155.35,60.6 l 3706.82,-498.2 z m -389.92,-575.8 101.67,-298.9 -227.85,160.3 z m 187.77,-241.5 -120.38,353.9 -0.54,1.3 -0.89,2.2 c -0.91,2.1 -1.96,4.2 -3.15,6.2 l -0.91,1.5 c -1.54,2.4 -3.3,4.6 -5.21,6.7 l -1.5,1.5 c -1.99,1.9 -4.12,3.8 -6.42,5.4 l -0.36,0.3 -0.27,0.2 h -0.07 c -244.3,168.2 -1250.91,734.7 -2059.82,1190 -166.62,93.8 -325.37,183.1 -467.79,263.6 751.02,-293.2 2019.25,-789.8 2825.16,-1105.6 z m -1010.11,-513.4 -2042.02,2449.5 c 202.3,-115.6 488.87,-276.9 803.56,-454 761.99,-428.9 1699.68,-956.7 2004.66,-1153.7 l -171.34,-188.2 c -6.61,-3.6 -12.6,-8.5 -17.21,-15.1 -2.16,-3 -3.84,-6.3 -5.22,-9.6 z m 2006.05,2084.1 c -6.33,17.5 -21.89,30.1 -40.37,32.6 l -4220.2,567.2 c -20.46,2.7 -40.46,-7.3 -50.42,-25.4 -9.97,-18 -7.84,-40.3 5.36,-56.2 l 2259.53,-2710.4 c 9.25,-11.1 22.86,-17.7 37.31,-18 h 1.09 c 14.06,0 27.49,5.9 36.98,16.3 l 592.98,651.6 363.69,-255.9 h 0.12 c 1.78,-1.3 3.66,-2.4 5.59,-3.4 l 1.25,-0.7 c 1.62,-0.8 3.32,-1.4 5.03,-2 l 2.35,-0.8 c 1.41,-0.5 2.88,-0.7 4.34,-1 1.15,-0.3 2.29,-0.5 3.46,-0.7 1.21,-0.1 2.45,-0.2 3.68,-0.3 0.97,0 1.93,-0.2 2.9,-0.2 l 1.88,0.1 h 1.02 l 1,0.1 c 2.14,0.2 4.26,0.5 6.35,0.9 l 1.1,0.2 c 2.35,0.6 4.64,1.3 6.89,2.2 l 1.75,0.8 c 1.72,0.7 3.39,1.6 5.03,2.5 l 1.64,1 c 4.03,2.5 7.74,5.6 11,9.4 l 1.41,1.7 1.87,2.4 0.68,1.2 c 1.23,1.8 2.3,3.8 3.29,5.8 l 1.21,2.5 c 1.08,2.5 1.97,5.2 2.61,8 l 0.21,0.8 202.17,931.4 723.96,785.4 c 12.63,13.8 16.59,33.3 10.26,50.9"
         style="fill:#000000;fill-opacity:1;fill-rule:nonzero;stroke:none"
         transform="matrix(0.13333333,0,0,-0.13333333,0,4936.8533)" />
      <path
         id="path79"
         d="m 17709,31402.4 c 100.7,180.9 236.8,293 404.6,333.2 49,11.7 95.9,16.3 139.2,16.3 104.1,0 186.7,-26.2 224.8,-40.8 163.9,-63.1 214.1,-283.2 158.1,-449.2 -81.5,-241.2 -497.7,-566 -1060.5,-827.4 -37,-17.2 -74.4,-34 -112,-50.4 -51.8,290.1 30.3,631.1 245.8,1018.3 z m -4257.1,-100.6 c -60.4,167.4 -55.8,340 12.7,485.9 65.3,139 182.4,245.1 329.7,298.5 50.9,18.5 104.7,27.4 158.5,27.4 108.3,0 216.6,-36.3 300.4,-105 113.6,-92.9 163.5,-228.3 140.5,-381.1 -56.7,-378.2 -243.8,-730.3 -529.8,-1023.8 -166.3,181.2 -308.2,410.2 -412,698.1 z m 8157.6,-2086.4 c -639.8,-47.8 -1581.8,-74.2 -2436.3,72.1 -811.7,139 -1344.5,399.1 -1583.5,772.9 -45.2,70.7 -79.6,145.7 -103.1,224.9 43.9,18.9 87.5,38.4 130.8,58.5 595.3,276.5 1021.8,616.1 1113,886.1 35.8,106 36.4,227.1 1.6,332.3 -38.6,116.8 -116.2,202.8 -218.5,242.2 -62.6,24.1 -229,75 -423.2,28.4 -196.2,-46.9 -353.8,-175.4 -468.7,-381.7 -232.9,-418.7 -317.4,-789.4 -253.1,-1107.1 -581.9,-239.7 -1216.7,-378.2 -1772.7,-383.8 -534.8,-5.4 -1184.8,106.7 -1662.3,571.8 301.6,308.8 499.1,680.6 559.1,1080.6 28,186.4 -36.2,359 -176,473.4 -152.3,124.6 -370.7,161.6 -556.4,94.2 -368.6,-133.8 -541.6,-526 -402.4,-912.4 103.5,-286.9 249,-532.3 434.8,-734.1 -269.8,-253.6 -616.7,-458.3 -1018.2,-590.6 -646.7,-213 -1371.4,-222.1 -2095.9,-26.2 -398.1,107.6 -792.76,276.9 -1172.89,503 -390.04,232 -767.63,526 -1123.37,874.1 176.84,10.3 352.44,38.4 523.64,84.5 26.67,7.1 42.47,34.6 35.3,61.2 -7.16,26.7 -34.57,42.5 -61.27,35.3 -205.93,-55.3 -418.48,-84.1 -631.73,-85.5 -16.7,-0.1 -32.24,-8.5 -41.43,-22.5 -9.18,-13.9 -10.81,-31.5 -4.32,-46.9 74.82,-177.5 159.17,-353.5 250.71,-523 9.04,-16.7 26.26,-26.2 44.04,-26.2 8.02,0 16.16,1.9 23.72,6 24.29,13.1 33.35,43.4 20.23,67.7 -53.91,99.9 -105.21,202 -153.55,305.3 339.29,-322.1 697.49,-596.2 1066.9,-816 387.96,-230.8 791.02,-403.6 1197.92,-513.6 743.4,-201 1488,-191.4 2153.3,27.8 416.1,137.1 776,349.8 1056.5,614 119.3,-116.5 253.4,-216.7 402.2,-300.1 366.3,-205.5 814.6,-307.1 1332.4,-301.8 564.1,5.7 1206.8,144.9 1796.8,386 26.1,-83.9 63.4,-163.9 111.9,-239.7 254.8,-398.5 810.2,-673.6 1650.8,-817.5 486.4,-83.3 1000,-111.4 1471.3,-111.4 366.3,0 707.1,17 989.4,38.1 27.5,2.1 48.2,26.1 46.1,53.6 -2,27.5 -26.1,48.3 -53.6,46.1"
         style="fill:#000000;fill-opacity:1;fill-rule:nonzero;stroke:none"
         transform="matrix(0.13333333,0,0,-0.13333333,0,4936.8533)" />
      <path
         id="path80"
         d="m 22995.5,26454.9 c 407.8,197 875.8,321.5 1252.1,332.9 207.8,6.3 456.4,-53 530.9,-238.6 77.8,-194 -84.9,-424.9 -287.2,-536.1 -211.7,-116.3 -471.8,-152.8 -732.3,-102.9 -256,49.1 -491.5,176.4 -663.1,358.4 -49.5,52.4 -94.3,109.2 -134.3,169.6 11.4,5.7 22.7,11.3 33.9,16.7 z m 2285,2750.3 c -148.7,119.5 -310,224.3 -479.5,311.6 -24.6,12.6 -54.7,3 -67.4,-21.6 -12.6,-24.5 -3,-54.7 21.6,-67.3 98.8,-50.9 194.7,-108.1 286.8,-170.8 -430.9,69.5 -913.3,-31.8 -1348.6,-287.6 -496.2,-291.6 -862.5,-741.4 -1004.8,-1234.1 -124.3,-430 -70.7,-892.7 132.1,-1257.5 -359,-192.8 -799.4,-512.4 -1087.7,-1009.6 -194.5,-335.4 -311.4,-705.2 -347.5,-1099.2 -31.5,-344.4 -1.3,-700.5 89.8,-1058.5 79.1,-310.9 203.6,-615.7 360.1,-881.5 114.2,-194 243.4,-362.4 372.1,-486.7 -142.1,-1.7 -285,2 -426.3,11 -27.5,1.7 -51.3,-19.1 -53.1,-46.7 -1.7,-27.6 19.2,-51.3 46.7,-53.1 121.3,-7.7 243.8,-11.6 366,-11.6 66,0 131.9,1.1 197.6,3.4 l 1.8,0.2 c 1,0 1.9,0.1 2.9,0.2 0.9,0.2 1.8,0.3 2.7,0.5 0.9,0.2 1.8,0.3 2.8,0.6 l 2.6,0.7 c 0.9,0.3 1.8,0.6 2.8,0.9 l 2.3,1 c 1,0.4 1.9,0.8 2.8,1.3 l 2.2,1.2 c 0.9,0.5 1.8,1 2.7,1.6 l 2,1.4 2.5,1.9 2.1,1.9 2,1.9 2.1,2.4 1.2,1.3 0.3,0.5 0.7,0.9 c 1.5,2.1 2.8,4.2 4,6.5 l 0.8,1.5 c 1.2,2.5 2.2,5.2 3,7.9 l 0.3,1.4 c 0.7,2.7 1.2,5.4 1.4,8.2 l 0.1,0.5 c 0.2,2.8 0.1,5.7 -0.2,8.5 l -0.2,1.6 c -0.3,2.3 -0.7,4.6 -1.3,6.8 -54.6,197.2 -88.3,400.7 -100.2,605 -1.6,27.6 -25.1,48.7 -52.8,47 -27.6,-1.6 -48.6,-25.2 -47,-52.8 9.1,-156.3 30.7,-312.2 64.2,-465.4 -249.7,255.2 -530.5,717.7 -676.8,1292.7 -88.2,347 -117.5,691.7 -87.1,1024.8 34.7,379.4 147.2,735.4 334.4,1058.1 278,479.4 705.3,788 1052.8,974 44.6,-68.6 95,-133 150.8,-192.2 252.3,-267.3 611.7,-411.6 961.8,-411.6 194.4,0.1 386,44.6 554.5,137.2 237.2,130.3 434.1,406.2 331.9,660.9 -43.6,108.7 -134.9,193.2 -264,244.5 -131.2,52.2 -269.8,59.7 -362.8,56.9 -389.5,-11.9 -872.7,-140.1 -1292.5,-342.9 -14,-6.8 -28.3,-13.8 -42.7,-21 -191.3,342.1 -241.9,778.1 -124.6,1183.7 135.3,468.4 485,896.9 959.4,1175.7 450,264.4 950.8,356.2 1382.9,255.3 l -452.4,-332.3 c -22.3,-16.4 -27,-47.7 -10.7,-69.9 9.8,-13.4 25,-20.4 40.3,-20.4 10.3,0 20.7,3.1 29.6,9.7 l 545,400.2 c 12.5,9.2 20,23.7 20.4,39.3 0.3,15.5 -6.6,30.3 -18.7,40"
         style="fill:#000000;fill-opacity:1;fill-rule:nonzero;stroke:none"
         transform="matrix(0.13333333,0,0,-0.13333333,0,4936.8533)" />
      <path
         id="path81"
         d="m 13982.3,17207.4 c 0,0 -72,-182.5 -156.4,-396.4 -38,-96 -78.4,-198.4 -116,-293.3 -7.6,-19.4 -15.2,-38.5 -22.6,-57.2 -7.3,-18.4 -14.4,-36.4 -21.3,-53.9 -12.2,-31 -23.9,-60.2 -34.6,-87.3 -9.5,-24.2 -18.5,-46.6 -26.4,-66.7 -4.2,-10.7 -8.3,-20.7 -11.9,-30 -3,-7.5 -6.1,-15.3 -9.2,-23.2 -10.5,-26.2 -21.9,-55.1 -34,-86 -0.7,-2 -1.6,-4.1 -2.4,-6.2 -55.1,-137.9 -237.4,-508.8 -392.2,-819.5 -93,-186.4 -176.1,-351.2 -215.9,-430.8 -16.4,-32.6 -25.6,-51.2 -25.6,-51.9 6.1,-7.1 80.3,-490.5 80.3,-495.7 l -1917.2,596.3 -1.3,1.4 c 0,0 -464.3,136.6 -441,264.1 33.4,183 655.2,868 766.4,1030.4 259.2,378.3 442.2,838.3 577.3,1217.2 3.5,10 7.2,20.2 10.9,30.3 43.7,121.8 89.6,244.5 127.3,343.3 0.8,2.2 1.4,3.9 1.9,4.8 l 0.4,1.1 c 22.1,58 41.2,107.4 55.1,143.1 14.8,38.5 23.7,60.9 23.7,60.9 l 648.3,-374.8 86.7,-31.9 72.8,-26.8 975.6,-358.7 c 1.2,-0.5 1.9,-1.4 1.3,-2.6"
         style="fill:#eba583;fill-opacity:1;fill-rule:nonzero;stroke:none"
         transform="matrix(0.13333333,0,0,-0.13333333,0,4936.8533)" />
      <path
         id="path82"
         d="m 19056.8,12085.3 c 181.9,-185.4 394.4,-514.2 185.5,-859.2 -132.7,-219.1 -434.3,-541.2 -1077.1,-495.2 -1720,123.2 -4522,752.6 -6120.7,1397 -273.1,110 -662.2,795.6 -484.8,1459.7 183.5,687.3 807.9,1103.9 1378.4,949.2 1663.9,-451.3 3354.6,-1095.2 4994.7,-1833.1 403.6,-181.5 892.4,-382.2 1124,-618.4"
         style="fill:#45654a;fill-opacity:1;fill-rule:nonzero;stroke:none"
         transform="matrix(0.13333333,0,0,-0.13333333,0,4936.8533)" />
      <path
         id="path83"
         d="m 17117,16691.7 c -18.5,32.7 -58.2,44.8 -93.1,30.9 -201.1,-79.6 -649.7,-236.2 -851.3,-314.7 -23.9,-9.3 -70.6,-30.8 -94,-41.3 -26.5,-11.8 -41.1,-40.4 -34.7,-68.6 64.1,-284.9 417.3,-1654.5 867.4,-3048.8 286.7,-887.9 644.4,-1849.6 1007.2,-2301.2 427.9,-532.4 1414.7,11.8 1482.8,440.4 137.3,863.7 -2111.5,4996.8 -2284.3,5303.3"
         style="fill:#a1c180;fill-opacity:1;fill-rule:nonzero;stroke:none"
         transform="matrix(0.13333333,0,0,-0.13333333,0,4936.8533)" />
      <path
         id="path84"
         d="m 25540.3,3473.1 1394.8,506.9 c 0,0 -173.8,118.1 -228.8,161.3 -181.8,143.1 -696.4,609.5 -696.4,609.5 l -1117.7,-752.4 c 0,0 318.9,-233.1 441.4,-333.3 129,-105.4 206.7,-192 206.7,-192"
         style="fill:#eba583;fill-opacity:1;fill-rule:nonzero;stroke:none"
         transform="matrix(0.13333333,0,0,-0.13333333,0,4936.8533)" />
      <path
         id="path85"
         d="m 25333.6,3662.4 c -0.7,-3.3 73.7,-57.7 211.1,-173.4 219.7,-185 535.8,-323.6 867.9,-188.4 633.4,257.8 564.3,640.2 578.3,638.6 0,0 -239.5,170.8 -286.6,210.4 -33.7,28.3 -1363.6,-454.6 -1370.7,-487.2"
         style="fill:#a1c180;fill-opacity:1;fill-rule:nonzero;stroke:none"
         transform="matrix(0.13333333,0,0,-0.13333333,0,4936.8533)" />
      <path
         id="path86"
         d="m 25118.4,2651 c -1.5,-91 21.4,-173.7 51.2,-246.2 87.2,-212.7 280.4,-338.7 549.7,-338.9 l 3673.4,-2.8 c 529,-0.4 853,197.3 539.4,527.6 -1.5,1.6 -3.2,3.3 -5,5.1 -0.8,0.8 -1.6,1.5 -2.5,2.4 -1.5,1.3 -3,2.8 -4.6,4.2 -1.6,1.5 -3.2,3.1 -5,4.7 -3.5,3.1 -7.4,6.5 -11.5,10 -37.6,31.2 -94.1,68.6 -166.1,110.8 -23.1,13.7 -47.8,27.7 -74,42.4 -26.5,14.7 -54.5,30 -84,45.6 -389.7,207.5 -1026.8,492.4 -1647.6,758.1 -15.5,6.6 -30.8,13.2 -46.2,19.7 -72.5,31 -144.7,61.7 -216,91.9 -15.2,6.4 -30.4,12.8 -45.5,19.2 -65.2,27.5 -129.7,54.6 -193,81.1 h -0.1 c -14.8,6.3 -29.5,12.4 -44.1,18.6 -64.9,27.2 -128.7,53.7 -191,79.6 -14.2,5.9 -28.3,11.7 -42.3,17.4 -72.9,30.4 -143.5,59.5 -211.4,87.5 -13,5.3 -107.6,-350.9 -797.8,-333.9 -430.8,10.7 -787.7,80.1 -831.6,-155.5 -21.8,-117 -191.4,-673.5 -194.4,-848.6"
         style="fill:#303142;fill-opacity:1;fill-rule:nonzero;stroke:none"
         transform="matrix(0.13333333,0,0,-0.13333333,0,4936.8533)" />
      <path
         id="path87"
         d="m 25169.6,2404.8 c 87.2,-212.7 280.4,-338.7 549.7,-338.9 l 3673.4,-2.8 c 529,-0.4 853,197.3 539.4,527.6 -1.5,1.6 -3.2,3.3 -5,5.1 -0.8,0.8 -1.6,1.5 -2.5,2.4 -1.5,1.3 -3,2.8 -4.6,4.2 -1.6,1.5 -3.2,3.1 -5,4.7 -3.5,3.1 -7.4,6.5 -11.5,10 -37.6,31.2 -94.1,68.6 -166.1,110.8 -23.1,13.7 -47.8,27.7 -74,42.4 -26.5,14.7 -54.5,30 -84,45.6 -46.3,-104.8 -95.9,-283.1 -90.3,-414.4 l -4319.5,3.3"
         style="fill:#538567;fill-opacity:1;fill-rule:nonzero;stroke:none"
         transform="matrix(0.13333333,0,0,-0.13333333,0,4936.8533)" />
      <path
         id="path88"
         d="m 27380.1,3432.4 c 1.1,-25 22.4,-45.2 47.5,-45.2 25.2,-0.1 44.7,20.2 43.6,45.1 -0.8,18.1 -12,33.5 -27.7,40.7 -11.8,71.7 -27.3,179.4 -25.8,244.7 0.6,28.1 6.1,50.6 13.3,68.2 -14.8,6.3 -29.5,12.4 -44.1,18.6 -11.6,-19.4 -20.8,-47.4 -19.1,-86.8 2.7,-63 17.9,-176.7 28.5,-249.7 -10.3,-8.3 -16.8,-21.1 -16.2,-35.6"
         style="fill:#a1c180;fill-opacity:1;fill-rule:nonzero;stroke:none"
         transform="matrix(0.13333333,0,0,-0.13333333,0,4936.8533)" />
      <path
         id="path89"
         d="m 27139.4,3518.4 c 1,-25 22.3,-45.3 47.5,-45.3 25,0 44.6,20.2 43.6,45.2 -0.8,17.9 -12.2,33.4 -27.8,40.7 -11.9,71.7 -27.3,179.3 -25.9,244.6 0.9,35.1 9,61.4 19.1,80.5 -14.2,5.9 -28.3,11.7 -42.3,17.4 -14.6,-19.1 -28.6,-50.1 -26.6,-97.8 2.8,-63.1 18,-176.9 28.5,-249.8 -10.3,-8.3 -16.8,-21 -16.1,-35.5"
         style="fill:#a1c180;fill-opacity:1;fill-rule:nonzero;stroke:none"
         transform="matrix(0.13333333,0,0,-0.13333333,0,4936.8533)" />
      <path
         id="path90"
         d="m 27622.8,3343 c 1.1,-24.9 22.3,-45.2 47.5,-45.2 25.2,-0.1 44.7,20.2 43.6,45.1 -0.8,18.1 -12.1,33.5 -27.8,40.8 -11.8,71.6 -27.2,179.3 -25.7,244.6 0.5,22.6 4.1,41.6 9.2,57.3 -15.2,6.4 -30.4,12.8 -45.5,19.2 -8.8,-18.6 -15,-43.6 -13.6,-76.5 2.7,-63 18,-176.7 28.5,-249.7 -10.4,-8.2 -16.8,-21 -16.2,-35.6"
         style="fill:#a1c180;fill-opacity:1;fill-rule:nonzero;stroke:none"
         transform="matrix(0.13333333,0,0,-0.13333333,0,4936.8533)" />
      <path
         id="path91"
         d="m 27887,3238.2 c 1.1,-25 22.3,-45.2 47.5,-45.2 25.2,-0.1 44.7,20.2 43.6,45.1 -0.8,18 -12.1,33.5 -27.8,40.7 -11.8,71.7 -27.2,179.4 -25.7,244.6 0.5,19.5 3.1,36.3 7.2,50.6 -15.5,6.6 -30.8,13.2 -46.2,19.7 -7.3,-17.8 -12.2,-40.9 -10.9,-70.3 2.7,-62.9 18,-176.7 28.5,-249.6 -10.4,-8.3 -16.8,-21.1 -16.2,-35.6"
         style="fill:#a1c180;fill-opacity:1;fill-rule:nonzero;stroke:none"
         transform="matrix(0.13333333,0,0,-0.13333333,0,4936.8533)" />
      <path
         id="path92"
         d="m 26432.9,4496.8 -1372.1,-810.4 c 0,0 -4935.3,2283.5 -6645.9,3994.1 -313.3,313.3 -339.3,166.4 -429.8,157 -84.6,-8.8 -1011,-1016.5 -2164.3,-2202.2 -1282,-1318 -2844.4,-2855.8 -3842.5,-3485.7 -1068.6,-674.3 -2300.56,-851.7 -3315.72,-694.5 -330.54,51.1 -860.64,307.9 -864.51,310.5 -834.1,552.7 -1822.81,1361.1 -1669.56,2878 11.19,110.7 372.36,344.8 939.58,663.8 1452.43,817.2 4255.61,2191.8 5988.61,3479.1 1690.7,1255.8 3380.1,2550 4570,2762.7 464.4,83 1120.7,-239.6 1405.7,-458.2 1875.3,-1438.7 7400.5,-6594.2 7400.5,-6594.2"
         style="fill:#274461;fill-opacity:1;fill-rule:nonzero;stroke:none"
         transform="matrix(0.13333333,0,0,-0.13333333,0,4936.8533)" />
      <path
         id="path93"
         d="m 13369,10889.8 c -16.8,-75.6 -35.2,-152.3 -55.3,-230.3 -98.8,-384 -238.3,-799.2 -426.8,-1280.8 -846.8,-2164.9 -932.9,-2944 -1431.2,-3802.9 -13.1,-22.5 -968.1,-57.4 -2159.23,-309.9 -1586.58,-336.5 -3138.32,-917.1 -3171.33,-751.6 -213.49,1071 -517.83,2571.9 619.8,6631.1 476.65,1700.5 1439.12,2997.8 2551.53,3921.4 1048.83,870.7 2114.33,1234.2 2135.43,1180.7 174.3,-441.4 405.9,-1226.7 1501.1,-1387.2 132.9,-19.5 485.7,-1282.2 539.6,-1883.2 68.7,-767.2 52.1,-1384.5 -103.6,-2087.3"
         style="fill:#538567;fill-opacity:1;fill-rule:nonzero;stroke:none"
         transform="matrix(0.13333333,0,0,-0.13333333,0,4936.8533)" />
      <path
         id="path94"
         d="m 11444.5,16266.9 c -32.9,11.9 -287.1,-83.5 -292,-88.9 -4.8,-5.3 339.5,-780.7 748.7,-1107.7 85.6,-68.5 335.8,-245.7 564.6,-325.3 243.8,-84.8 570.7,-106 594.7,-89.8 4.8,3.2 -97.8,237.6 -102.7,238.4 -143.3,23.4 -272.3,60 -422.8,111 -399,135.1 -737.9,540.9 -843,736.8 -137.3,255.9 -236.6,521.5 -247.5,525.5"
         style="fill:#a1c180;fill-opacity:1;fill-rule:nonzero;stroke:none"
         transform="matrix(0.13333333,0,0,-0.13333333,0,4936.8533)" />
      <path
         id="path95"
         d="m 16751.4,17482 c -30,140.3 -82.6,379.7 -149.8,556 -29.8,77.9 -63.4,162.8 -97,246 -6.9,17.1 -13.8,34.2 -20.7,51.2 -22.6,55.7 -44.8,109.7 -65.3,159.3 -55.2,133.2 -98.5,234.2 -105.8,248.9 -56.6,114.4 -169.8,268.5 -290.2,410.2 -150.2,176.9 -311.7,334.1 -387.8,369.1 h -0.2 c -13.6,6.1 -24.2,8.5 -31.8,6.4 -30.8,-8.4 -57.7,-34.9 -74.2,-71.2 -19.8,-43.6 -24.5,-101.4 -2.6,-159 14.2,-37.3 233.4,-283 390.7,-530.3 35.4,-55.8 67.7,-111.7 93.9,-165.2 12.8,-26.2 24.1,-51.9 33.5,-76.8 7.6,-19.7 26.5,-98.6 43.9,-198.3 12.7,-73.2 24.6,-157.6 30.5,-238.2 0.6,-7.6 1.1,-15.2 1.5,-22.7 3.8,-63.9 3.5,-124.4 -3.7,-173.7 -21.7,-148 -78.2,-217.9 -125.7,-223.5 -27.2,-3.2 -51.4,14.8 -64.5,51.2 -32.9,92.7 -61.1,176.7 -87,253.1 -1.6,4.6 -3.1,9.2 -4.7,13.7 v 0.1 c -5.2,15.6 -10.4,31 -15.5,45.9 -1.4,4 -2.8,8 -4.1,11.9 -28.4,82.4 -54.7,155.1 -82.9,219.7 -25.6,58.6 -52.6,110.6 -84,157.1 -31.4,46.4 -138.5,139.4 -209.1,80.4 -59.9,-50.2 -58.1,-144.3 -33.7,-244.1 15.9,-65.7 41.4,-133.7 65.2,-193.3 18.2,-45.6 35.5,-86.1 46.5,-117 1.6,-4.4 3.2,-8.7 4.8,-13.2 27,-78.7 50.3,-181.2 71.8,-279.2 13.7,-62.2 26.5,-122.5 39.1,-173.8 10.9,-44.8 21.6,-82.5 32.4,-108.5 84.1,-204.6 114.5,-430.7 326.6,-698.1 43.4,-54.7 135,-132.8 135.7,-133.8 65.9,-83 115.2,-252.5 153.2,-252.1 78.8,1 675.8,219.7 675.8,271.2 0,34.1 -155.9,692.2 -204.8,920.6"
         style="fill:#bf7d66;fill-opacity:1;fill-rule:nonzero;stroke:none"
         transform="matrix(0.13333333,0,0,-0.13333333,0,4936.8533)" />
      <path
         id="path96"
         d="m 16792.8,16961.7 c 6,-304.3 -370.1,-376.3 -477.5,-310.8 -61.9,37.5 -276.3,248.9 -303.1,573.5 -11.4,139.6 -7.8,287.2 -21.6,445.8 -9,103.8 -25.6,212.2 -59,326.2 -5.4,18.6 -11.2,37.3 -17.6,56.1 -11.2,33.4 -23.9,67.1 -38.4,101.3 l -1,2.5 c -29.7,69.8 -66.5,141.8 -112.4,216 -90,145.5 -222.5,288.4 -358.9,417.9 -125.6,119.6 -191.7,252.7 -110.7,327.8 31.1,28.9 137.6,-42.6 232.8,-114.1 84.3,-63.4 159.8,-126.8 165.8,-120.2 16.6,18.5 -300.2,265.7 -369.2,439.8 -87.2,219.5 76.9,252 136,200.9 7,-6.1 33.1,-30.5 70.6,-66.5 74.9,-71.9 195.5,-189.9 302.3,-300.4 68.3,-70.8 131.1,-138.7 172.3,-189.2 13.1,-16.3 26.2,-32.6 39.2,-49.2 158.8,-203.4 297.4,-435.7 382,-639.6 5.4,-12.9 10.4,-25.6 15.3,-38.2 l 1,-2.6 c 94.8,-245 344.7,-888.6 352.1,-1277"
         style="fill:#eba583;fill-opacity:1;fill-rule:nonzero;stroke:none"
         transform="matrix(0.13333333,0,0,-0.13333333,0,4936.8533)" />
      <path
         id="path97"
         d="m 17757.4,3720.4 c -10.3,0.2 -21.4,0.3 -31.6,0.5 -3.9,0.9 -7.8,2.2 -11.6,3.9 -222.5,95.9 -1425.5,636.9 -2604.4,1187.7 242.8,243.6 481.5,486.8 711,722.8 185.4,190.7 364.9,376.6 536,554.6 710.8,-512.4 1338.5,-995.7 1697.2,-1279.5 130.7,-103.5 225.7,-180.4 275.9,-222.7 22.1,-18.5 27.9,-50.1 14,-75.5 -12.3,-22.6 -36.5,-67.9 -49.9,-89.9 -112.9,-184.4 -375.1,-580.7 -487,-765.9 -11.4,-18.9 -29.6,-31.7 -49.6,-36"
         style="fill:#d4c1b8;fill-opacity:1;fill-rule:nonzero;stroke:none"
         transform="matrix(0.13333333,0,0,-0.13333333,0,4936.8533)" />
      <path
         id="path98"
         d="m 17742.5,3718.9 c -5.6,0 -11.2,0.6 -16.7,2 10.2,-0.2 21.3,-0.3 31.6,-0.5 -4.9,-1 -9.9,-1.5 -14.9,-1.5"
         style="fill:#bfb1ab;fill-opacity:1;fill-rule:nonzero;stroke:none"
         transform="matrix(0.13333333,0,0,-0.13333333,0,4936.8533)" />
      <path
         id="path99"
         d="m 12522.9,8409 c 104,289.6 223.6,610.6 364,969.7 139.5,356.5 252.2,676.6 341.5,974.6 128.7,-378.5 250.9,-764.9 367.7,-1165.7 -179.4,-133.2 -359.5,-267.4 -539.4,-401.1 -168.5,-125.2 -347.2,-251.2 -533.8,-377.5"
         style="fill:#bfb1ab;fill-opacity:1;fill-rule:nonzero;stroke:none"
         transform="matrix(0.13333333,0,0,-0.13333333,0,4936.8533)" />
      <path
         id="path100"
         d="m 15109.8,4912.5 c -167.9,78.4 -335.3,157 -499.3,234.6 -628.5,297.3 -1877.6,1245.5 -1884.3,1269.9 v 0 c -141.4,94.4 -282.9,234.8 -407,437.7 -65.4,106.9 -135.7,220.9 -209.9,341.1 111.3,338.1 241,732.4 413.6,1213.2 186.6,126.3 365.3,252.3 533.8,377.5 179.9,133.7 360,267.9 539.4,401.1 7.2,-24.8 14.4,-49.6 21.5,-74.4 67.5,-234 133.1,-473.1 197.2,-718.6 57.5,-220.5 143.5,-470.9 207.5,-706.5 500.1,-318.5 1196.4,-698.6 1771.5,-1099 191,-133 379.8,-267.1 563,-399.2 -171.1,-178 -350.6,-363.9 -536,-554.6 -229.5,-236 -468.2,-479.2 -711,-722.8"
         style="fill:#203346;fill-opacity:1;fill-rule:nonzero;stroke:none"
         transform="matrix(0.13333333,0,0,-0.13333333,0,4936.8533)" />
      <path
         id="path101"
         d="m 12109.3,7195.8 c -825.3,1338 -2131.55,3457.1 -2475.06,5264.9 -115.81,609.5 197.93,1010.4 812.86,1297.3 140.3,65.4 290.4,94.6 441.9,94.6 535.9,0 1087.6,-365 1269.7,-780.7 406.2,-927.1 757.3,-1800.2 1069.7,-2718.6 -89.3,-298 -202,-618.1 -341.5,-974.6 -140.4,-359.1 -260,-680.1 -364,-969.7 -172.6,-480.8 -302.3,-875.1 -413.6,-1213.2"
         style="fill:#45654a;fill-opacity:1;fill-rule:nonzero;stroke:none"
         transform="matrix(0.13333333,0,0,-0.13333333,0,4936.8533)" />
      <path
         id="path102"
         d="m 13313.7,10659.5 c -284.8,928.3 -707.6,2119.7 -1029.1,2726.4 -16.9,32 -4.7,71.7 27.3,88.6 9.8,5.2 20.3,7.7 30.6,7.7 23.5,0 46.2,-12.7 58,-34.9 302,-570.1 685.7,-1657.4 968.5,-2557.5 -16.8,-75.6 -35.2,-152.3 -55.3,-230.3 v 0"
         style="fill:#45654a;fill-opacity:1;fill-rule:nonzero;stroke:none"
         transform="matrix(0.13333333,0,0,-0.13333333,0,4936.8533)" />
      <path
         id="path103"
         d="m 9776.86,12767.4 c 332.14,-1977.8 1816.84,-4342.7 2586.74,-5652 162.3,-276.1 358.1,-439.6 544.1,-529.3 181.6,-87.7 353.9,-105.1 477,-88.4 95.4,12.9 187.7,54.2 273.3,113.1 266.7,183.4 468.4,536.7 493.9,730.3 20.5,156.1 -16,360.5 -70.9,577.9 -59.9,236.6 -141.6,488.5 -195.2,710 -59.8,246.6 -121.2,486.7 -184.6,721.9 -380.2,1411.2 -828.9,2640.7 -1389.6,3983.6 -224.3,537.1 -1057.9,1001.6 -1699.3,715.8 -619.9,-276.1 -914.51,-812 -835.44,-1282.9"
         style="fill:#538567;fill-opacity:1;fill-rule:nonzero;stroke:none"
         transform="matrix(0.13333333,0,0,-0.13333333,0,4936.8533)" />
      <path
         id="path104"
         d="m 12762.9,6670.7 c 6.3,-24.5 1238.6,-994.4 1861.8,-1302.6 1304.6,-645.1 2826.2,-1362.3 3078.4,-1476.3 34.3,-15.5 73.4,-1.7 93.4,30 115.1,183.3 384.1,574.9 500.3,757.3 13.8,21.7 38.7,66.6 51.4,89 14.4,25.1 9.2,56.9 -12.6,75.8 -49.5,43.1 -143.2,121.6 -272.1,227.4 -444.7,364.9 -1309.8,1052.6 -2230.5,1717.9 -568,410.4 -1257.6,802.5 -1752,1129.8 -134.3,88.8 -1431.1,-808.1 -1318.1,-1248.3"
         style="fill:#a1c180;fill-opacity:1;fill-rule:nonzero;stroke:none"
         transform="matrix(0.13333333,0,0,-0.13333333,0,4936.8533)" />
      <path
         id="path105"
         d="m 21092.7,1310.2 c -1639.2,-238.3 -9385.5,-401.102 -12411.29,-26.9 -83.22,10.3 -654.2,91.5 -1061.26,334.8 -327.23,195.6 -1647.73,1097.4 -1492.03,2933.9 9.16,108 3413.74,911.2 4939.58,1034.2 256.1,20.7 2247.8,-147.4 4458.3,-271.5 2120.9,-119.2 4882.9,-698.4 5728.1,-1108.9 620.4,-301.4 1017.9,-778.4 1059.8,-1293.5 71.4,-877.5 -686.3,-1524.3 -1221.2,-1602.1"
         style="fill:#345e88;fill-opacity:1;fill-rule:nonzero;stroke:none"
         transform="matrix(0.13333333,0,0,-0.13333333,0,4936.8533)" />
      <path
         id="path106"
         d="m 16042.4,18919.1 c 0.1,-1.9 0,-3.8 0,-5.7 -0.6,-31.7 -2.7,-70.5 -6.2,-112.7 -5.4,-62.2 -14,-131.8 -25.6,-197.3 -4.9,-28.1 -10.5,-55.4 -16.5,-80.9 -24.7,-105 -56.8,-208.1 -96.3,-309.1 -7.5,-19.1 -15.3,-38.2 -23.2,-57.1 -12,-28.1 -24.4,-56.1 -37.5,-84 -1.8,-4.1 -3.7,-8.1 -5.7,-12.2 v -0.1 c -2.1,-4.5 -4.3,-8.7 -6.4,-13.2 l -0.5,-1.1 c -1.9,-3.9 -3.7,-7.7 -5.6,-11.5 -63.2,-129.8 -138.6,-255.8 -225.5,-377.7 -12.6,-17.6 -25.3,-35.1 -38.4,-52.6 -4.2,-5.6 -8.4,-11.1 -12.5,-16.8 -207.7,-274.2 -546.9,-1032.6 -900,-1639.2 -13.1,-22.5 -26.1,-44.8 -39.3,-66.7 v -0.1 c -194.3,-326.9 -391.8,-600.9 -572.4,-716.3 -302,-192.7 -570.9,-74.3 -875.5,122.9 -9.9,6.4 -19.8,12.9 -29.7,19.5 -274,180.5 -398.3,374.1 -485.6,533.5 -464.5,848 -223.1,1048.5 -97.8,1571.9 -153.3,157 -276.7,336.1 -368.3,528.7 -239.4,502 -264.2,1095 -46,1621.8 52.8,127.2 121.4,248.9 200.6,367.5 58.3,87.1 118.6,168.8 184.9,242.2 926.6,1027.8 2711.3,641.5 3320.8,-497.7 17.6,-32.8 34.5,-66.4 50.5,-100.3 l 0.2,-0.1 c 57,-120.7 103.5,-249 130.8,-384.4 2.5,-12.2 4.8,-24.5 6.9,-36.7 13.4,-76 20.4,-154.3 19.8,-234.5"
         style="fill:#eba583;fill-opacity:1;fill-rule:nonzero;stroke:none"
         transform="matrix(0.13333333,0,0,-0.13333333,0,4936.8533)" />
      <path
         id="path107"
         d="m 12961.6,14907 c -40.6,0 -394.5,192.7 -544.7,401 -571.7,793.3 -262.7,1586.3 -253.3,1613.4 0,0.3 -130.9,393.2 -174.4,527.6 43.7,121.8 89.6,244.5 127.3,343.3 0.8,2.2 1.4,3.9 1.9,4.8 l 0.4,1.1 c 22.1,58 41.2,107.4 55.1,143.1 v 0 0 0 c 91.6,-192.6 215,-371.7 368.3,-528.7 -125.3,-523.4 -366.7,-723.9 97.8,-1571.9 87.3,-159.4 211.6,-353 485.6,-533.5 9.9,-6.6 19.8,-13.1 29.7,-19.5 v 0 c -76.1,-152.5 -145.6,-290.6 -190.1,-379.4 -0.5,-0.9 -1.7,-1.3 -3.6,-1.3"
         style="fill:#c37d5f;fill-opacity:1;fill-rule:nonzero;stroke:none"
         transform="matrix(0.13333333,0,0,-0.13333333,0,4936.8533)" />
      <path
         id="path108"
         d="m 13716.5,15066.8 c -0.1,0 -0.2,0 -0.3,0 0.1,0 0.2,0 0.3,0 v 0 m 0.3,0 c 102.5,0.1 206.2,29.2 314,98 180.6,115.4 378.1,389.4 572.4,716.3 v 0.1 0 0 -0.1 c -194.3,-326.9 -391.8,-600.9 -572.4,-716.3 -107.9,-68.8 -211.5,-98 -314,-98 m -545.5,210.6 v 0 0"
         style="fill:#bfb1ab;fill-opacity:1;fill-rule:nonzero;stroke:none"
         transform="matrix(0.13333333,0,0,-0.13333333,0,4936.8533)" />
      <path
         id="path109"
         d="m 16439.7,18241.3 v 0 c -4.9,12.6 -9.9,25.3 -15.3,38.2 -84.6,203.9 -223.2,436.2 -382,639.6 0.6,80.2 -6.4,158.5 -19.8,234.5 120.4,-141.7 233.6,-295.8 290.2,-410.2 7.3,-14.7 50.6,-115.7 105.8,-248.9 20.5,-49.6 42.7,-103.6 65.3,-159.3 6.9,-17 13.8,-34.1 20.7,-51.2 -18.7,-13 -37.5,-25.4 -56.4,-37.4 l -8.5,-5.3"
         style="fill:#9f5f4a;fill-opacity:1;fill-rule:nonzero;stroke:none"
         transform="matrix(0.13333333,0,0,-0.13333333,0,4936.8533)" />
      <path
         id="path110"
         d="m 15914,18052.5 v 0 c -11.2,33.4 -23.9,67.1 -38.4,101.3 l -1,2.5 c 7.9,18.9 15.7,38 23.2,57.1 39.5,101 71.6,204.1 96.3,309.1 6,25.5 11.6,52.8 16.5,80.9 11.6,65.5 20.2,135.1 25.6,197.3 3.5,42.2 5.6,81 6.2,112.7 0,1.9 0.1,3.8 0,5.7 v 0 c 158.8,-203.4 297.4,-435.7 382,-639.6 5.4,-12.9 10.4,-25.6 15.3,-38.2 v 0 c -105.1,-65.9 -213.2,-117.7 -319.8,-150.7 l -1.4,-0.5 c -52.3,-16.1 -104.5,-27.6 -155.4,-33.8 -4.2,-0.6 -24.1,-2 -49.1,-3.8"
         style="fill:#c37d5f;fill-opacity:1;fill-rule:nonzero;stroke:none"
         transform="matrix(0.13333333,0,0,-0.13333333,0,4936.8533)" />
      <path
         id="path111"
         d="m 15834.2,19675.1 c -0.8,1.6 -1.6,3.1 -2.4,4.6 0.8,-1.5 1.6,-3 2.4,-4.6 m -3316.7,502.2 c 88.7,97.8 185.3,182.7 287.9,255.3 v 0 c -102.6,-72.6 -199.2,-157.5 -287.9,-255.3 m 378.4,315.1 c 0,0.1 0,0 0,0.1 170.7,105.5 355.8,179.5 547.8,224.4 v 0 c -192,-44.9 -377.1,-118.9 -547.8,-224.5 m 673.3,249.5 v 0 c 46.7,7.8 93.7,13.9 141,18.4 v 0 c -47.2,-4.5 -94.3,-10.6 -141,-18.4 m 289.5,27.2 v 0 c 17.4,0.4 34.6,0.6 52,0.6 -17.4,0 -34.6,-0.2 -52,-0.6"
         style="fill:#bfb1ab;fill-opacity:1;fill-rule:nonzero;stroke:none"
         transform="matrix(0.13333333,0,0,-0.13333333,0,4936.8533)" />
      <path
         id="path112"
         d="m 12805.4,20432.6 v 0 c 29.7,21 59.8,40.9 90.5,59.9 0,-0.1 0,0 0,-0.1 -30.6,-18.9 -60.9,-38.9 -90.5,-59.8 m 638.3,284.3 v 0 c 41.5,9.7 83.4,18 125.5,25 v 0 c -42.1,-7 -84,-15.4 -125.5,-25 m 266.5,43.4 v 0 c 49.3,4.7 98.9,7.6 148.5,8.8 v 0 c -49.6,-1.2 -99.2,-4.1 -148.5,-8.8"
         style="fill:#000000;fill-opacity:1;fill-rule:nonzero;stroke:none"
         transform="matrix(0.13333333,0,0,-0.13333333,0,4936.8533)" />
      <path
         id="path113"
         d="m 13716.5,15066.8 c -0.1,0 -0.2,0 -0.3,0 -179.3,0.1 -355.4,89.2 -544.9,210.6 v 0 c -5.4,3.4 -10.7,6.9 -16,10.3 v 0 0 c -9.9,6.4 -19.8,12.9 -29.7,19.5 -274,180.5 -398.3,374.1 -485.6,533.5 -464.5,848 -223.1,1048.5 -97.8,1571.9 -153.3,157 -276.7,336.1 -368.3,528.7 v 0 c -129.1,270.6 -195.8,567.6 -195.6,866.5 0.1,255.6 49,512.5 149.6,755.3 52.8,127.2 121.4,248.9 200.6,367.5 58.3,87.1 118.6,168.8 184.9,242.2 1.4,1.5 2.7,3 4.1,4.5 88.7,97.8 185.3,182.7 287.9,255.3 29.6,20.9 59.9,40.9 90.5,59.8 170.7,105.6 355.8,179.6 547.8,224.5 41.5,9.6 83.4,18 125.5,25 46.7,7.8 93.8,13.9 141,18.4 49.3,4.7 98.9,7.6 148.5,8.8 17.4,0.4 34.6,0.6 52,0.6 0.1,0 0.2,0 0.2,0 0.2,0 0.3,0 0.4,0 769.5,-0.1 1554.3,-410.5 1920.5,-1090 0.8,-1.5 1.6,-3 2.4,-4.6 v 0 c 17.6,-32.8 34.5,-66.4 50.5,-100.3 l 0.2,-0.1 c 57,-120.7 103.5,-249 130.8,-384.4 2.5,-12.2 4.8,-24.5 6.9,-36.7 v 0 c 13.4,-76 20.4,-154.3 19.8,-234.5 v 0 c 0.1,-1.9 0,-3.8 0,-5.7 -0.6,-31.7 -2.7,-70.5 -6.2,-112.7 -5.4,-62.2 -14,-131.8 -25.6,-197.3 -4.9,-28.1 -10.5,-55.4 -16.5,-80.9 -24.7,-105 -56.8,-208.1 -96.3,-309.1 -7.5,-19.1 -15.3,-38.2 -23.2,-57.1 v 0 c -12,-28.1 -24.4,-56.1 -37.5,-84 -1.8,-4.1 -3.7,-8.1 -5.7,-12.2 v -0.1 c -2.1,-4.5 -4.3,-8.7 -6.4,-13.2 v 0 c -3.6,-0.2 -7.1,-0.5 -10.2,-0.7 -11.4,-0.6 -19.3,-1.1 -21.5,-1.1 -9.2,-0.2 -18.4,-0.2 -27.7,-0.2 -80.1,0 -162,5.2 -245.1,14.7 -16.7,1.9 -33.4,4 -50.2,6.4 -878.6,119 -1850,704 -1929.7,752.9 -1.5,0.9 -2.6,1.6 -3.6,2.2 -0.3,0.1 -0.6,0.2 -1,0.2 -0.6,0 -1.3,-0.3 -1.7,-1 -5.3,-8.7 -30,-48.8 -66.6,-110.9 -135.1,-229.3 -434.4,-758.5 -533.3,-1107.5 -0.7,-2.1 -1.3,-4.2 -1.8,-6.3 -16.8,-60.3 -27.5,-115.2 -30.1,-161.9 -0.7,-14.9 -1.1,-30.5 -1,-46.3 4.9,-394.3 303.7,-1059.6 324.2,-1105.2 0.4,-0.9 1.2,-1.3 2,-1.3 0.5,0 1,0.1 1.4,0.4 20.8,16.6 193.3,147.5 453.4,178.8 1.6,0.2 3.2,0.3 4.8,0.5 24.7,2.7 50.2,4.7 76.5,5.6 9.9,0.3 20,0.5 30.2,0.5 156.9,0 338.1,-39.8 532.6,-156 168.9,-100.8 245.2,-220.1 268.5,-338.7 6,-30.4 8.5,-60.8 8.1,-90.7 v 0 -0.1 c -194.3,-326.9 -391.8,-600.9 -572.4,-716.3 -107.8,-68.8 -211.5,-97.9 -314,-98 -0.1,0 -0.2,0 -0.3,0 m 68.4,1141.7 c -12.7,0 -25.3,-0.1 -37.7,-0.3 -33.8,-0.7 -66.3,-2.1 -96.4,-3.9 -24.1,-1.5 -46.6,-3.1 -66.9,-4.9 -18,-1.6 -34.3,-3.2 -48.6,-4.7 -30.3,-3.2 -61.7,-9.3 -60.7,-10.7 4.6,-5.7 26.7,-31.4 36.4,-41.2 11.3,-11.4 23.5,-23.3 36.5,-35.6 13.7,-13 28.3,-26.5 43.8,-40.4 76.1,-67.9 172.8,-144.2 282.9,-216.9 153.8,-101.1 296.5,-131.3 366.6,-140.3 24.2,-3 39.7,-3.6 44.1,-3.7 0.4,0 38.1,76.1 37.8,170.6 -0.1,85.4 -31.2,185.8 -148.7,259 -92.5,57.5 -248,73 -389.1,73 m -989.8,2532.2 c -4.8,0 -9.8,-0.1 -14.7,-0.3 -65.3,-3.3 -116.4,-31.4 -156.3,-70.2 -85.7,-83.3 -120.1,-216.2 -133.2,-258.4 -99.3,-319.2 120.3,-492.5 218.5,-492.5 10.1,0 19,1.9 26,5.6 105.7,55.4 231.9,237.1 276.9,475.2 11.1,59.1 17.2,121.4 16.9,186.1 -0.4,69.2 -104,154.5 -234.1,154.5"
         style="fill:#c37d5f;fill-opacity:1;fill-rule:nonzero;stroke:none"
         transform="matrix(0.13333333,0,0,-0.13333333,0,4936.8533)" />
      <path
         id="path114"
         d="m 14311.6,16292.8 c -143.1,89 -437,77.5 -595.2,63.5 -16,-1.5 -30.5,-2.9 -43.4,-4.3 -30.3,-3.3 -51.3,-6.1 -59.3,-7.1 -1.7,-0.3 -2.5,-2.2 -1.4,-3.6 4.6,-5.7 26.7,-31.3 36.3,-41.1 9.6,-9.6 19.8,-19.7 30.6,-30 20.5,-19.7 43.3,-40.6 68,-62 73.1,-63.8 163.2,-134 264.6,-201 120.3,-79 233.7,-114.7 311,-130.7 21.6,-4.6 40.3,-7.5 55.7,-9.5 24.2,-3.2 39.7,-3.8 44.1,-3.8 l 1.9,1.1 c 10.1,19.4 134.9,274.3 -112.9,428.5 z M 13141.2,18775 c 11.5,70.8 -83,146.5 -219.8,139.6 -149.6,-7.5 -246.6,-146.2 -297.3,-244.4 -18.8,-36.8 -31.3,-67.9 -37.5,-84.3 -66.2,-175.4 -92.3,-235.8 -20.5,-437.9 26.3,-74.1 164.2,-145 239.5,-111.5 12.5,5.5 32.5,17.6 42.2,34.6 45.5,79.8 108.2,202.4 164.5,329 60.3,136.4 113.2,277.3 128.9,374.9 z m -1244.9,212 c 46.5,352.4 191.6,975.9 436.4,1453.6 242.6,473.2 583.1,803.2 1022.4,584.2 l 2.1,0.2 c 1121.2,741.2 1777.4,-327.4 2499,-533.8 609.3,-174.3 1190.1,-245.1 1452.3,-547 197.9,-228 84.9,-598.6 -163.5,-925.7 -175.7,-231.4 -419,-441 -668,-563.2 -25.7,-12.7 -51.6,-24.4 -77.4,-35.1 -87,-36.1 -173.9,-60.7 -258.1,-71.1 -3.5,-0.4 -7,-0.8 -10.6,-1.2 -51.9,-6.1 -105,-9.3 -159,-10.1 -9.9,-0.2 -19.8,-0.2 -29.7,-0.2 -26.6,0 -53.5,0.6 -80.5,1.8 h -0.1 c -28.1,1.1 -56.3,2.8 -84.8,5.2 -104.2,8.5 -210.3,24.5 -316.8,46.1 -840,170.8 -1700.4,695.9 -1744.5,723 -1,0.7 -2.1,0.3 -2.7,-0.6 -5.4,-8.8 -30,-48.9 -66.6,-110.9 -28.9,-49 -65.3,-111.8 -105.6,-183.4 -182.3,-324.4 -445.3,-832.8 -459.7,-1092.3 -0.8,-15 -1.1,-30.6 -0.9,-46.4 0.6,-44.3 4.8,-92 11.9,-141.8 56.5,-394.1 294,-922.9 312.3,-963.5 0.6,-1.2 2.2,-1.6 3.3,-0.8 20.8,16.6 193.3,147.6 453.6,178.8 9,1.1 18.3,2.1 27.5,2.8 174.7,15.7 386.3,-14.8 616.4,-152.1 168.9,-100.9 245.3,-220.3 268.6,-338.8 4.6,-23.4 7.1,-46.8 7.8,-70 8.5,-261.2 -206.6,-500.3 -213.7,-508.1 l -0.3,-0.5 c -0.7,-1.2 -3.8,-7.4 -9.3,-17.6 -5.1,-9.6 -12.4,-22.9 -21.4,-39 -97,-172.8 -408.3,-680 -725,-686.1 -139.5,-2.9 -322.5,45.4 -505.3,120.1 -65.7,26.9 -587.9,262.8 -721.5,498.1 -482.9,850.4 -210.4,1630.7 -201.1,1657.9 0,0.4 -130.1,230.3 -257.5,550.4 -142.3,358.1 -281.1,829 -230,1217.1"
         style="fill:#4f2820;fill-opacity:1;fill-rule:nonzero;stroke:none"
         transform="matrix(0.13333333,0,0,-0.13333333,0,4936.8533)" />
    </g>
  </g>
</svg>
