<?xml version="1.0" encoding="UTF-8" standalone="no"?>
<!-- Created with Inkscape (http://www.inkscape.org/) -->

<svg
   version="1.1"
   id="svg1"
   width="4000"
   height="2666.6667"
   viewBox="0 0 4000 2666.6667"
   xmlns="http://www.w3.org/2000/svg"
   xmlns:svg="http://www.w3.org/2000/svg">
  <defs
     id="defs1" />
  <g
     id="g1">
    <path
       id="path1"
       d="M 0,0 H 30000 V 20000 H 0 Z"
       style="fill:#eddcc3;fill-opacity:1;fill-rule:nonzero;stroke:none"
       transform="matrix(0.13333333,0,0,-0.13333333,0,2666.6667)" />
    <path
       id="path2"
       d="m 12464.1,16299.4 c -246.5,-139.3 -460.5,-312.8 -646.1,-510.9 -278.5,-297.2 -493.3,-649.2 -660.7,-1024.6 -167.4,-375.4 -287.3,-774.3 -375.6,-1165.7 -116.9,-518.3 -223.1,-1094.5 -223.2,-1656.3 0,-248 20.7,-493.3 70.7,-729.5 50,-236.2 129.2,-463.5 246.3,-674.8 138.6,-250.4 322.3,-468.8 538.7,-655.41 324.7,-279.89 722.7,-488.28 1154.1,-626.99 431.5,-138.72 896.7,-207.58 1356.5,-207.58 295.6,0 589.1,28.47 870.1,85.47 722.6,146.6 1381.1,475 1948.4,917.31 567.2,442.4 1043.4,998.8 1402.1,1602.7 449.1,756.4 732.2,1631.6 732.3,2493.2 0.1,506.2 -98,1007.7 -318.1,1476.1 -299.4,637.3 -818.6,1158.7 -1446.6,1521 -628.1,362.2 -1365.3,565.7 -2103.6,565.7 -163.2,0 -326.5,-10 -488.7,-30.4 -813.9,-102.5 -1572.7,-449.4 -2191.3,-953.5 -618.7,-504.1 -1097.7,-1165.4 -1351.4,-1898.5 -146.9,-424.5 -223.3,-871.5 -223.3,-1318 0,-412 65.1,-823.5 199.9,-1216.1 281.2,-818.3 869.6,-1545.8 1654.7,-1989.6 663,-374.72 1433.3,-533.9 2208,-533.9 397.4,0 796,41.92 1182.3,118.28 502.4,99.42 1001.9,261.62 1451.3,497.92 449.4,236.2 848.9,546.5 1149.5,942.3 403.6,531.5 597.2,1185 597.2,1837.7 0,200.4 -18.2,400.8 -54.3,597.6 -94.4,515.1 -311.4,1009.9 -626,1440.2 -314.6,430.3 -726.8,796.2 -1211.9,1052.7 -516.2,272.9 -1109.3,413.7 -1700.5,413.7 -520.4,0 -1039.6,-109.1 -1503.3,-334.5 -388.1,-188.7 -731.3,-454.8 -1007.3,-772.6 -275.9,-317.7 -484.7,-687.1 -603.4,-1082.5 -76.7,-255.5 -113.5,-519.1 -113.5,-782.8 0.1,-469.9 116.6,-940 331.5,-1365.9 215,-425.9 528.4,-807.8 922.9,-1100.8 605.2,-449.5 1374.9,-678.3 2144.1,-678.3 514.5,0 1029.1,102.4 1494.6,310.7 580.5,259.8 1071.9,674.8 1429.7,1175.2 357.8,500.3 582.2,1086.4 627.6,1689.2 5.6,74.5 8.4,149.3 8.4,224.2 0,511 -129.6,1024.7 -374.4,1478.8 -244.8,454.1 -605,848.9 -1066.2,1120.6 -421.5,248.2 -921.1,372.7 -1417.7,372.8 -336.1,0 -671,-57.1 -979.5,-172.3 -308.4,-115.2 -590.6,-288.6 -820.4,-521.4 -287.9,-291.8 -477.6,-644.7 -604.4,-1021.2 -126.7,-376.7 -190.8,-777.3 -227.5,-1167.3 -16.5,-176.2 -27.4,-356.8 -27.4,-537.8 0,-284.3 26.8,-569.4 101.1,-839.2 74.2,-269.7 196.3,-524.1 386.5,-744.9 180.2,-209.2 410.2,-371.6 665.1,-490.1 254.9,-118.5 534.8,-193.2 815.9,-226.8 116.4,-13.9 232.9,-20.7 349.2,-20.7 662.4,0.1 1312.6,219.5 1851.9,586.5 539.1,367.1 967.9,882.3 1185.2,1476.4 119.4,326.4 175.9,667.7 175.9,1009.6 0,505.1 -123.3,1011.3 -349.8,1473.4 -226.5,462.1 -556.2,880.3 -969.7,1209.1 -223.2,177.4 -475.1,332.3 -744.7,443.2 -269.6,110.8 -557,177.4 -850.5,177.4 -47.1,0 -94.4,-1.7 -141.8,-5.2 -333.7,-24.9 -647,-138.2 -927.3,-306.1 -280.4,-167.9 -528.1,-390.5 -731.9,-635.5 -212.9,-256.2 -385.2,-547.3 -504.5,-855 -119.2,-307.7 -185.4,-632.1 -185.4,-954.7 0,-292.5 54.5,-583.6 173.2,-858.7 154.7,-357.9 431.6,-666.1 769.1,-885.4 337.5,-219.2 736.1,-349.8 1136.2,-349.9 189.6,0 379.5,29.5 562.8,92.9 248.8,86.2 476.8,238.3 644.2,432.3 83.7,97 152.3,204.6 200.2,319.8 47.9,115.2 75.1,238.1 75.9,365.1 0,2 0,4.1 0,6.2 0,213.2 -71.2,414.4 -182.3,596 -111.3,181.8 -262.7,344.6 -426.3,483.2 -288.2,244 -625.5,426.8 -987,548.7 -361.5,121.9 -747.3,182.9 -1132.9,182.9 -743.8,-0.1 -1487.9,-226.7 -2055.7,-684.5 -254.4,-205.3 -473.3,-460 -629.2,-741.7 -155.8,-281.6 -248.6,-590.5 -248.6,-903.2 0,-116.1 12.8,-232.8 40,-348.4 50.4,-214.9 148.4,-411.8 281,-586 199.1,-261.3 475.8,-471.5 789.3,-616.8 313.5,-145.2 664,-225.6 1011.8,-225.6 1.1,0 2.2,0 3.3,0 h 0.1 c 327.2,0.5 647.3,68.4 944.1,188.9 445.3,180.8 838.6,479.8 1126.4,848.9 287.8,369.1 470.4,808.9 491.5,1270.7 1.4,30.1 2,60.2 2,90.2 0,299.5 -67.5,593.7 -188.3,868 -181.2,411.5 -482,778.4 -856.5,1052.6 -374.6,274.1 -823.2,455.7 -1300.2,494.8 -73.3,6 -146.4,9 -219.2,9 -544.1,-0.1 -1071.3,-163.7 -1538.3,-433.2 -467,-269.6 -874.3,-645 -1179.3,-1071 -172.3,-240.7 -319.3,-502.7 -423.4,-777.5 -104.1,-274.8 -165.2,-562.6 -165.2,-854.4 0,-44.3 1.4,-88.8 4.3,-133.3 20.5,-315.9 125.2,-630.9 301.8,-900.2 176.6,-269.3 425.6,-493 734.6,-623.5 221.8,-93.6 460.7,-135 701.3,-135 315.1,0 633.1,70.9 921.1,189.7 395.6,163.4 749.6,429.3 1005.8,756.6 128.1,163.6 231.7,342.6 303.3,532 71.6,189.3 111.2,388.9 111.2,593.2 0,11.5 -0.1,23 -0.3,34.6 -4.8,219.4 -56.9,432.2 -146.3,630.6 -134,297.6 -351.5,562.6 -620.3,770.3 -268.8,207.8 -589,358.3 -929.4,425.9 -157.1,31.1 -316.2,46 -475,46 -378.4,0 -755.5,-84.4 -1102.2,-234.6 -346.8,-150.3 -663.5,-366.3 -921.1,-630.4 -494.8,-507.6 -775.58,-1196.9 -775.7,-1881.4 0,-328.5 64.85,-656 202.19,-961.2 99.41,-220.7 254.81,-451.3 448.01,-674 289.9,-333.9 665,-650 1066.2,-883.6 200.6,-116.7 407.7,-212.9 614.2,-280 206.5,-66.99 412.4,-105.12 610.5,-105.19 73.9,0 146.7,5.39 218,16.48 151.5,23.59 295.6,80.9 430.2,160.61 202,119.7 383.1,289.9 538,477.1 154.8,187.2 283.5,391.6 379.6,580.8 74.1,146.1 106.8,311.3 106.8,483.8 -0.1,164.5 -29.6,336 -81.8,506 -78.4,255 -207.8,506.8 -367.5,726.4 -159.7,219.6 -349.5,407 -550.8,532.3 -302.6,188 -660.5,277.4 -1020.2,277.4 -442.1,-0.1 -887.7,-134.9 -1238.7,-391.6 -270,-197.6 -479.7,-457.6 -621.8,-748.3 -142.2,-290.7 -216.9,-612.1 -216.9,-933.2 0,-113.5 9.3,-227.1 28.4,-339.1 63.3,-372.7 226.6,-723.8 460.1,-1028.9 233.5,-305.11 537.2,-564.21 882.7,-753.39 504.5,-276.09 1087.7,-406.79 1671.1,-406.91 215.1,0 430.2,17.81 641.5,52.81 320,52.89 639.4,148.67 926.8,294.18 287.4,145.63 543,340.9 733.7,593.13 223.8,295.88 342.2,658.38 342.2,1020.88 0,142.7 -18.4,285.5 -56,424.1 -50.1,184.5 -138.7,364.9 -263.2,516.4 -124.5,151.4 -285.4,274 -479.2,340 -107.1,36.5 -217.8,53.3 -328.4,53.2 -191,0 -381.5,-49.8 -555.4,-133.9 -173.8,-84.3 -331.1,-202.9 -455.9,-342.5 -283.3,-317.1 -422.4,-728.7 -422.4,-1141.3 0,-258 54.3,-516.7 162.2,-753.8 140,-307.62 361.1,-575.51 631.5,-790.39 270.4,-215 590.2,-377.3 929,-473.83 246.9,-70.27 502.7,-103.79 758.6,-103.79 503.2,0.12 1006.9,129.22 1446.4,362.62 439.5,233.28 815.1,571.09 1060.2,989.38 220.7,376.71 326.1,803.01 326.1,1230.31 0,381.5 -84,764 -245.3,1113.6 -161.3,349.7 -400.2,666.7 -710.1,916.5 -155.7,125.5 -333.9,235.3 -524.2,314.1 -190.3,78.7 -392.9,126.4 -597.1,126.4 -97.3,0 -195,-10.9 -291.7,-34.4 -158.6,-38.7 -300.7,-107.8 -425.3,-198.9 -187,-136.7 -335,-322.3 -444.9,-529.2 -109.9,-207 -181.9,-435.6 -216.4,-659.9 -20.4,-132.5 -30.8,-266.8 -30.8,-401.3 0,-260.2 38.9,-520.8 119.8,-768.2 80.9,-247.5 203.9,-481.8 372,-688.9 185.3,-228.3 450.3,-419.41 746.9,-554.41 296.8,-134.81 625.5,-213.4 939.6,-213.48 94.7,0 188.1,7.19 278.8,22.31 229.7,37.97 433.6,120.47 613.1,235.58 269.2,172.8 483.4,418.5 652.7,698 169.2,279.6 293.8,593.4 383.6,904.7 88,304.9 137.8,624.2 137.8,941.9 0,424.3 -89,846 -295.6,1224.9 -171.9,315.2 -433.6,590.8 -746.1,788.3 -312.5,197.4 -676.2,316.8 -1051.9,316.8 -40.4,0 -80.9,-1.4 -121.5,-4.2 -229.6,-15.9 -448.9,-79.5 -648.5,-179.2 -299.4,-149.5 -554.8,-380 -736,-654.2 -181.2,-274.1 -288.3,-592.3 -288.9,-917.2 0,-1 0,-2 0,-3.1 0,-215.8 43.4,-427.3 122.1,-626.8 118,-299.3 315.1,-571.5 564.4,-791.9 249.4,-220.4 551.3,-389.1 879.9,-480.4 175.9,-48.9 362.7,-75.8 548.5,-75.8 169.5,0 338.2,22.4 496.7,71.3 158.5,48.8 306.9,124.3 434.8,230.3 183.7,152.2 304.2,346.2 378.1,558.6 73.9,212.6 101.8,443.9 101.9,674.7 0,154.7 -12.6,309.2 -32.7,457.8 -67.7,500.6 -199.2,1005.6 -480.6,1442.4 -140.9,218.7 -322.7,418.4 -536.2,577.9 -213.5,159.5 -458.9,278.8 -726.4,335.7 -110.9,23.5 -224,34.9 -336.9,34.9 -293,-0.1 -585.4,-76.1 -839.8,-213.1 -254.3,-137 -470.9,-335.2 -610.3,-580.8 -117.9,-207.7 -174.4,-441.3 -174.4,-675 0,-213.1 46.9,-426.4 137.3,-621.1 90.5,-194.6 224.7,-370.7 399.4,-508.6 134.9,-106.5 290.1,-186.2 455,-239.3 164.9,-53.1 339.7,-79.7 514.2,-79.7 175.6,0 351.1,26.9 516.3,81.1 165.2,54.1 320.1,135.6 454,245 176.2,144 304.9,322.6 389.3,519.2 84.3,196.7 124.4,411.3 124.4,628.6 -0.1,418.8 -148.7,847.9 -421.3,1180.4 -150.9,183.8 -336.1,345.7 -545.1,470 -209.1,124.4 -442.2,211.2 -688.4,244.2 -69.1,9.3 -139.1,13.9 -209.1,13.9 -214.8,0 -430.3,-43.1 -624.8,-126.6 -194.5,-83.6 -368.2,-207.8 -498.1,-370.8 -150,-188.3 -227.7,-424.4 -227.8,-658.4 0,-119.7 20.4,-239 62.3,-351 41.8,-112.1 105.2,-216.9 190.9,-307.2 136.1,-143.6 307,-237.9 493.8,-296 186.9,-58.1 390.2,-80.6 594.4,-80.6 172.4,0 345.5,16 510.1,40.6 223.6,33.4 459.9,87.8 667.2,183.5 103.6,47.9 199.9,106.3 283.3,178 83.4,71.8 153.7,157.1 204.3,257.9 56.2,112.1 81,229.9 80.9,347.8 0,176.9 -55.1,353.8 -140.9,519.5 -85.9,165.7 -202.9,320.5 -329.6,453.7 -249.1,261.7 -559.3,485.6 -898.4,644.5 -339.1,158.8 -707.3,252.7 -1072.3,252.8 -259.8,0 -518.1,-47.7 -761.9,-153.7 -311.7,-135.4 -564.1,-364.5 -738.6,-638.7 -174.5,-274.4 -271.4,-594.3 -271.4,-913.3 -0.1,-214.6 44,-428.9 138.2,-627.7 141.9,-299.7 387.1,-542.3 681.4,-710.2 294.5,-167.9 638.7,-261.4 981.7,-261.4 218.3,0 436.2,38 640.2,119.3 324.7,129.6 590.2,359.7 774.6,638.8 184.3,279 287.9,607.3 288,935 0,197 -37.6,393.8 -117.9,578.9 -119.3,274.9 -314.5,510.2 -552.6,701.4 -238.2,191.3 -519.4,338.8 -812.9,438.5 -296.7,100.8 -614.1,157.4 -930.1,157.5 -274.9,0 -548.8,-43 -806.3,-137.5 -277.2,-101.8 -530.1,-267.6 -727.4,-477.3 -197.2,-209.7 -338.8,-463.9 -390.9,-742.1 -13.7,-73.2 -20.4,-147.4 -20.4,-221.7 0.1,-246.1 73,-492.1 205.7,-702.1 132.6,-209.9 325.5,-384 565.8,-483.9 163.1,-67.9 337.9,-98.9 513.4,-98.9 338.6,0.1 680.2,115 951.7,308.3 232.8,165.8 410.8,385.8 530.5,632.3 119.7,246.5 181.2,519.5 181.2,792.3 0,321.2 -85.4,642.5 -262.7,919.3 -187.6,292.6 -463.1,523.4 -781.2,681.1 -318.2,157.7 -679.3,242.6 -1040,242.6 -197.7,0 -395.3,-25.5 -585.5,-78.8 -441.9,-123.6 -827.5,-383.9 -1114.7,-720.4 -287.3,-336.6 -476.6,-749.7 -524.5,-1180.6 -7.8,-69.8 -11.7,-140.4 -11.7,-211.3 0,-253.4 50.1,-509.4 154.1,-740.9 103.9,-231.4 262.2,-438.4 478.1,-591.5 243.8,-172.8 541.4,-252.8 841.4,-252.8 230.1,0 461.8,47 673.2,136.3 211.4,89.3 402.5,220.9 550.2,391 123.4,142.1 214.8,303.8 275.2,475.5 60.5,171.6 90.1,353.2 90.1,535.3 0,353.9 -111.6,710.3 -327.4,1001.7 -200.7,270.7 -477.6,481 -791.2,623.7 -313.7,142.7 -664.3,218 -1013.8,218 -62.4,0 -124.8,-2.4 -186.9,-7.2 -378.5,-29.6 -743,-143.2 -1072.7,-318 -329.7,-174.8 -624.7,-410.8 -864.4,-685.9 -503.3,-577.6 -753.53,-1320.4 -753.53,-2064.8 0,-558.8 140.93,-1119 422.63,-1611.9 328.3,-574.5 829.6,-1047.1 1421.3,-1384.1 591.7,-337 1274,-538.5 1965.9,-569.9 61.3,-2.7 122.6,-4.1 184,-4.1 619.2,0 1244.9,140 1792.7,406.6 547.6,266.6 1017.7,660.2 1322.6,1168.2 273.8,456.3 400.8,977.5 400.8,1500.6 0,332.9 -51.4,666.6 -149.2,985.5 -187,609.1 -542.8,1180.4 -1058.3,1593.4 -481.6,385.7 -1104.8,624.1 -1738,624.3 -44.9,0 -89.7,-1.2 -134.6,-3.7 -406.8,-22 -795.7,-142.5 -1149.8,-328.3 -354.1,-185.9 -673.4,-436.9 -941.7,-721.2 -655.8,-694.8 -1017.6,-1631.9 -1017.7,-2554.5 -0.1,-676.5 194.9,-1345.9 612.8,-1904.3 326.3,-435.9 773,-778.7 1278.7,-1012.6 505.7,-234.01 1070.7,-359.21 1634.7,-359.29 343.5,0 686.6,46.49 1015.8,143.4 704.9,207.59 1320.1,632.99 1772.4,1178.99 452.3,546 742.1,1213.2 794.3,1905.8 5.9,78.3 8.8,156.8 8.8,235.1 0,652.5 -201.8,1297.8 -554.8,1859.9 -353.1,562.1 -857.6,1041.3 -1464.5,1361.4 -609.2,321.4 -1304.7,478.4 -2001.5,478.5 -774.5,-0.1 -1550.9,-194 -2213,-574.3 -372.2,-213.8 -711.3,-487.5 -985,-807.6 -273.7,-320.1 -482,-686.8 -591.1,-1086.2 -62,-227 -90.8,-459.5 -90.8,-692.3 0.1,-498 131.6,-997.4 351.7,-1450.7 322.9,-664.6 825.3,-1236.8 1379.7,-1742.7 527.8,-481.6 1120.4,-918.7 1805.6,-1183.7 409.4,-158.2 854.9,-250.7 1297.6,-250.7 298.8,0 596.4,42.18 880.5,134.92 317.5,103.67 607.5,267.19 862.7,470.98 255.3,203.9 475.9,448 654.6,713.5 357.3,530.7 556.4,1141.6 665.9,1756.7 55.5,312 87.5,632.1 87.5,951.3 0,331 -34.4,661 -112.7,980.1 -78.4,319 -200.8,627.1 -376.7,913.5 -292.3,475.7 -729,859.7 -1237.5,1124.9 -508.5,265.2 -1089.1,411.9 -1670.7,412 -174.9,0 -349.9,-13.3 -522.9,-40.6 -662,-104.7 -1275.4,-406.7 -1766,-834.5 -490.5,-427.9 -858.6,-982.1 -1028.6,-1592.4 -75.5,-271.2 -111.8,-549.9 -111.8,-828.7 0.2,-975.6 444,-1952.1 1211.7,-2615.4 339.6,-293.3 740.5,-521.2 1171.1,-675.8 430.5,-154.6 890.8,-236.01 1349.5,-236.01 469.3,0 937,85.31 1369,265.11 572.9,238.4 1058.8,643.2 1401.9,1134.1 343.1,490.9 543.6,1068.5 543.7,1653.1 0,134.4 -10.6,269.2 -32.5,403.3 -52.3,319.7 -171,625.7 -340.6,904.8 -254.4,418.7 -623.5,777.1 -1057.4,1031.2 -434,254.2 -933.2,404.1 -1447.7,404.1 -24.9,0 -49.7,-0.4 -74.6,-1.1 -619.6,-17.5 -1206.3,-239.9 -1697.2,-591.1 -491,-351.3 -886.7,-831.4 -1124.9,-1367 -151.5,-341.1 -245,-716.6 -245,-1087.4 0,-307.4 64.4,-611.7 214.1,-888.5 159.2,-294.4 402.2,-534.2 688.6,-720.4 286.5,-186.3 616.7,-319.4 952.8,-400.2 250.8,-60.3 513.6,-92 775.9,-92 333.4,0.1 666,51.2 971.2,160.1 305.3,109 583.4,276 806.4,507.9 352.1,366.3 529.7,860.8 529.7,1353.4 0,105.9 -8.2,211.7 -24.6,316.2 -65.9,417.5 -264.7,811 -553.5,1131.8 -288.8,320.8 -667.9,569.3 -1095.8,695.9 -220,65.1 -449.6,96.4 -679.2,96.4 -332,0 -664.3,-65.4 -968.7,-189.7 -304.4,-124.2 -581,-307.4 -800.9,-543.5 -360.5,-387.2 -550.6,-901.5 -550.7,-1413.8 0,-328.9 78.5,-657.3 241.3,-950.5 185.6,-334.2 475.4,-609.8 817.7,-802.1 342.3,-192.3 737.5,-301.6 1135.6,-301.6 97.3,0 194.8,6.5 291.7,20 346.8,48.3 682.6,190.4 951.8,401.3 134.6,105.5 252.5,228.3 346.3,365.6 93.9,137.2 163.6,289 201.6,451.7 22.6,97.1 33.4,195.1 33.4,292.8 -0.1,270.5 -82.4,537.6 -221.9,777.7 -139.7,240.2 -336.6,453.6 -567.9,617.3 -404.6,286.3 -909.5,431.3 -1413.6,431.3 -411.3,0 -822.5,-96.6 -1178.5,-293.8 -351.3,-194.7 -637.8,-481.3 -836.5,-814.5 -198.8,-333.2 -310.1,-713.2 -310.1,-1095.3 0,-97.3 7.2,-194.7 22.1,-291.4 72.4,-471.8 318.3,-903.7 667.8,-1244.7 349.6,-341 803.3,-591.9 1294.5,-701.59 209.5,-46.72 423,-69.02 636.5,-69.02 393.6,0 787,75.82 1154.6,214.61 367.6,138.9 709.4,340.82 999.7,593.7 368.6,321.2 654.9,716.1 855.6,1148 200.7,432 315.7,901.1 341.7,1371.5 3.4,60.6 5.1,121.5 5.1,182.5 -0.1,525.6 -124.1,1063.2 -372.8,1530 -248.6,466.7 -622.7,863 -1121.8,1101.9 -347.3,166.3 -726.3,241.4 -1109.1,241.4 -374.9,0 -753.6,-72 -1111.1,-201.2 -357.4,-129.3 -693.6,-315.9 -983.4,-545.8 -436.8,-346.6 -782.7,-772.9 -1062.3,-1239.1 -279.6,-466.2 -493.1,-972.3 -665.6,-1479.8 -150.9,-444.3 -274.9,-921 -275,-1389 0,-298 50.6,-592.7 177.4,-871.4 135.1,-296.61 348.5,-550.98 606.7,-759.89 258.3,-208.91 561.6,-372.62 878.2,-487.81 204.5,-74.5 440.2,-130.2 693.1,-167.39 252.9,-37.3 523.1,-56.01 796.5,-56.01 362.7,0 730.9,33.01 1071.6,99.88 340.8,67.03 653.9,167.81 907,305 221.9,120.31 403,271.52 550,445.24 220.5,260.46 364.3,571.08 458.1,904.18 93.8,333.3 137.9,689.5 158.7,1043.5 2.2,37.5 3.3,74.9 3.3,112.2 -0.1,460.5 -164.4,907.7 -432.7,1297.8 -268.4,390.1 -640.9,723.7 -1060.8,958.2 -388.3,216.6 -841.4,333.8 -1291.7,333.8 -324.5,0 -647.7,-60.9 -943.8,-190 -341.6,-149 -635.5,-391.5 -844.7,-685.1 -209,-293.7 -333.5,-639.1 -333.5,-993.7 0,-26 0.6,-52.1 2,-78.2 13.1,-250.3 96.2,-502.5 239.4,-714 71.7,-105.7 158.4,-201.2 259.1,-280.7 100.8,-79.6 215.5,-143.2 342.7,-184.9 114.8,-37.7 232,-55.1 348.6,-55.1 275.8,0.1 547.3,97.1 780.2,253.2 232.8,156.3 427.5,372 549.4,613.4 113.2,224.6 176.2,476.2 176.2,725.6 0,258.6 -68,515.2 -219.2,734.2 -89.3,129.5 -204,224.3 -333,285.9 -129,61.8 -272,90.6 -419.1,90.6 -199.4,0 -406.4,-52.8 -599,-149.8 -151.5,-76.3 -277.2,-182 -365.8,-302.8 -44.3,-60.4 -79.3,-124.5 -103.3,-190.7 -24,-66.3 -36.9,-134.6 -36.9,-202.8 -0.1,-80.5 18.1,-160.8 56.8,-236.2 38.6,-75.4 97.4,-145.6 177.3,-207.1 137.1,-105.6 309.7,-154.6 482.6,-154.7 118,0 236.5,22.8 345.2,67.1 108.7,44.2 207.7,109.9 285.8,196.4 65.7,72.9 114.6,156.6 146.9,245.6 32.3,89 48.1,183.3 48.1,277.7 0,197.7 -69.4,396.7 -205.1,549.9 -93.6,105.5 -213,185.8 -344.7,239.9 -131.8,54 -275.9,81.8 -420.1,81.8 -119.3,0 -238.7,-19 -351,-58.6 -173.5,-61.1 -320.8,-178.8 -425.1,-322.4 -104.3,-143.6 -166.4,-313.6 -166.5,-481.7 0,-69.3 10.6,-138.2 33.5,-204.3 22.9,-66.1 58,-129.2 106.3,-186.5 31.3,-37.2 71.4,-66.5 116.7,-89.9 68.1,-35 148.3,-57 233.7,-70.9 85.4,-13.7 176.1,-19.1 265,-19.1 138.5,0 272.4,13.1 373.5,29.1 106.6,17 194.7,38.6 269.8,66.5 56.3,20.9 105.3,45.4 148.7,73.9 65.1,42.8 117.1,94.5 162.7,154.3 45.6,60 85.1,127.9 127,205.2 107,197.6 194.8,380.6 256.1,558.7 61.4,178.1 96.1,351.5 96.1,528.2 0,118.2 -15.6,237.8 -48.6,360.8 -33.1,122.9 -83.6,249.2 -153.3,381.5 -159.4,302.7 -415.5,552.5 -720.2,726.9 -304.8,174.4 -658.7,273.6 -1015.3,273.7 -71.7,0 -143.4,-4 -214.8,-12.3 -391.6,-45.1 -758.6,-214.5 -1049.2,-462.9 -290.6,-248.4 -505.2,-576.2 -589.8,-939.5 -25,-107.9 -38.8,-219.5 -38.8,-331.1 0,-109.1 13.2,-218.2 42.1,-323.4 29,-105.1 73.7,-206.4 136.5,-299.3 80,-118.2 191.7,-217.8 319.9,-288.4 128.3,-70.5 273.4,-112 420.6,-112 58,0 116.3,6.4 173.8,20.2 94.8,22.7 180.3,63.4 254.7,117.4 111.6,80.9 198.4,191.2 257.3,315.1 58.9,124 90.1,261.8 90.2,399.2 0,76.7 -9.8,153.3 -30.1,227.1 -35.9,130.5 -99,249.1 -181.9,353.4 -124.4,156.4 -293,280.6 -482.8,365.9 -189.9,85.3 -401.2,131.9 -612.1,131.9 -153.4,0 -306.7,-24.7 -451.1,-77.5 -297.4,-108.9 -538.3,-314.3 -704.6,-566.5 -166.3,-252.3 -258.6,-551.6 -258.7,-850.7 0,-76.3 6,-152.5 18.4,-227.9 28.4,-173.1 87.6,-343.5 177.1,-497.7 89.5,-154.1 209.4,-292 359.1,-399 193.9,-138.5 437.4,-217.2 679.5,-217.4 132.9,0 265.6,24 388.9,75.6 166.1,69.6 304,188.2 400.5,331.6 96.5,143.4 152.1,311.9 152.1,482.5 0,46.4 -4.1,92.9 -12.6,138.9 -17.9,96.4 -54.5,188 -105.5,271.6 -76.5,125.4 -185.3,232.9 -313.5,312.1 -128.1,79.2 -275.7,130.1 -430,141.1 -23,1.7 -45.9,2.5 -68.7,2.5 -175.5,-0.1 -346.7,-47.3 -499.8,-127.1 -153.2,-79.9 -288.6,-192.3 -393.1,-324.3 -110.8,-140 -189.1,-298.2 -241.5,-464.1 -52.3,-165.8 -78.7,-339.4 -85.8,-510.9 -1.1,-29.2 -1.7,-58.4 -1.7,-87.7 0,-315.4 69,-635.3 207.2,-922 138.2,-286.6 346,-540.1 623.3,-720.7 257,-167.2 572.1,-252.4 883.5,-252.4 197.8,0 394.2,34.4 573.5,105.1 179.1,70.7 341.2,177.8 468.6,323 77.9,88.8 135.8,191.5 174.2,300.6 38.4,109 57.3,224.4 57.4,339 -0.1,176.4 -44.9,351.3 -134.8,498.3 -44.9,73.5 -101.2,140 -168.7,195.7 -67.5,55.7 -146.2,100.6 -235.4,131 -87.1,29.7 -177.3,43.5 -267.2,43.5 -172.1,-0.1 -343,-50.1 -493.1,-135 -150.1,-85.1 -279.8,-205.3 -368.4,-347.9 -122.1,-196.4 -174,-420.3 -173.9,-645.4 0,-184.2 34.5,-369.4 94.2,-543 93.9,-273.6 254,-530.5 464.5,-739.09 210.4,-208.59 471.6,-369.02 767.7,-447.69 125.5,-33.4 255.9,-49.61 386.5,-49.61 243.7,0.07 487.8,56.21 700.8,163 213,106.68 395.2,264.38 512.2,467.99 73.3,127.6 118,275.8 118.1,422.5 0,63.9 -8.5,127.5 -27.3,188.6 -18.7,61.1 -47.6,119.6 -88,173 -49.3,65.1 -116.8,114.8 -191.6,148.4 -74.9,33.6 -157.5,51.3 -238.9,51.4 -66,-0.1 -131.5,-11.8 -191,-37.3 -59.4,-25.4 -113,-65 -153.2,-119.6 -33.9,-46 -55.6,-97.1 -68.6,-149.4 -13.1,-52.3 -17.7,-105.9 -17.7,-158.5 0,-27.4 1.3,-54.5 3.3,-81.1 16.3,-210.5 89.8,-414.5 204,-601.69 171.3,-280.82 433.8,-524.49 737.2,-698.91 303.5,-174.29 648.2,-279.29 985.2,-279.41 92.9,0 185.1,8.01 275.7,24.81 194.6,36.21 371.4,111.28 526.6,215.11 232.9,155.71 417.2,375.59 543.4,626.17 126.2,250.52 194.5,531.92 194.6,812.02 0,180.8 -28.6,361.1 -88.7,531.9 -51.5,146 -137.7,291.4 -254.1,402.6 -58.3,55.5 -124.2,102.4 -197.1,135.5 -73,33.2 -153.1,52.5 -238.3,52.7 h -1.5 c -123.8,0 -240.9,-42.9 -337.8,-111.9 -96.9,-69.1 -174.1,-164.4 -218,-272.2 -33.4,-82.3 -48.5,-169.1 -48.5,-255.7 0,-138.9 38.6,-277.6 103.8,-400.9 104.2,-197.1 273.9,-351.6 474.3,-456.6 200.5,-105.1 432.2,-161.3 663.5,-161.4 104.5,0 208.9,11.5 310.3,35.3 274.2,64.4 518.6,206.4 715.4,394.8 196.9,188.4 346.6,423.3 431.9,675.3 66.5,196.5 96.7,400.8 96.7,605.5 0,318.8 -73.1,638.8 -196.8,934.8 -85.5,204.5 -199,404.1 -343.9,578.7 -144.8,174.6 -321.2,324.1 -532,427.2 -177.7,86.7 -380.4,132.1 -581.1,132.2 -139.2,0 -277.4,-21.9 -405.6,-67.8 -128.1,-45.8 -246.1,-115.6 -343.7,-211.5 -83.5,-82.2 -144.9,-178.6 -185.2,-282.2 -40.3,-103.7 -59.6,-214.4 -59.6,-325.7 0,-150.9 35.4,-303.1 102.8,-441.1 67.4,-138 166.9,-262.1 295.6,-355.8 205.2,-149.3 458.8,-218.6 714.2,-218.6 149.2,0 299.2,23.6 441.3,69.2 142.2,45.6 276.4,113.2 393.9,201.5 192.4,144.7 338.1,334.3 435.6,545 97.5,210.8 146.9,442.8 147,673.8 0,59.3 -3.3,118.6 -9.9,177.3 -28.7,257.7 -114.8,504.8 -240.8,733.4 -126.1,228.6 -292.1,438.7 -481.7,623.2 -159.1,154.9 -339.5,295.7 -537.5,406.7 -197.9,110.9 -413.6,192 -642.7,226.8 -74.9,11.3 -151.1,17 -227.4,17 -196.2,-0.1 -393.3,-37.4 -571.1,-112 -177.6,-74.7 -336.1,-187 -453.2,-337.3 -121.8,-156.6 -182.9,-351.5 -183,-544.4 0,-126.7 26.5,-252.9 80.4,-366.9 53.8,-114 135.4,-215.9 244.7,-292.8 73,-51.3 153.4,-88.5 237.5,-112.8 84.1,-24.4 171.9,-35.8 260.3,-35.8 143.9,0 289.5,30.2 423.9,85.5 134.4,55.3 257.9,135.6 357.1,237 131.7,134.7 224.2,294.9 283.4,466.6 59.3,171.6 85.7,354.7 85.7,536.4 0,74.3 -4.4,148.4 -12.8,221.4 -29,251.9 -104.3,502 -225.5,729 -121.3,226.9 -288.8,430.6 -502.1,588.6 -271.7,201.1 -618.3,315.6 -961.8,315.7 -197.4,0 -393.9,-38 -573.9,-120.1 -199,-90.8 -366.2,-237.9 -484.1,-413.3 -117.8,-175.4 -186.6,-379.4 -186.6,-584.9 0,-100.8 16.6,-201.8 52.2,-299.4 33.5,-91.9 84.5,-176.1 147.9,-250.5 95.2,-111.7 218.4,-201.7 354.8,-264.1 136.5,-62.3 286.4,-97.1 435.6,-97.2 142.2,0 284,31.8 411.4,102.3 146.9,81.2 256.6,200.9 328.7,339.4 72.2,138.5 107.5,295.8 107.5,454.4 -0.1,224.6 -70.6,452.6 -210.5,635.1 -83.2,108.5 -183.2,201.2 -294.8,279.1 -167.4,117 -361,200.8 -564.8,255.5 -203.9,54.7 -418.2,80.4 -627.8,80.4 -1.7,0 -3.5,0 -5.3,0 -343.1,-0.7 -687.8,-64.2 -1005.2,-187 -317.4,-122.8 -607.6,-305.1 -840.6,-543.8 -348.3,-357.1 -552.9,-839.8 -553,-1322.4 0,-163.7 23.6,-327.4 73.3,-485.9 98.5,-313.4 302.6,-594.4 568.3,-802.1 265.7,-207.8 593.7,-342.5 940.9,-361.1 25.9,-1.4 51.7,-2.1 77.5,-2.1 334.9,0.1 665,114.3 929.2,305.5 132.1,95.6 247.7,210.6 338.9,340.8 91.2,130.1 157.9,275.5 191.6,431.2 15.9,73.7 23.6,148.2 23.6,222.5 0,145.3 -29.1,289.9 -82,426.2 -79.5,204.5 -212.6,390.8 -383.7,534.2 -171,143.5 -380.4,244.1 -611.8,275.4 -57,7.7 -114,11.4 -170.7,11.4 -240.9,0 -476.8,-66.8 -688.2,-178.8 -211.4,-112 -398.5,-269.3 -542.5,-452 -160.3,-203.5 -273.2,-432.6 -352.4,-672.5 -79.3,-240 -125,-490.8 -151.1,-738.9 -12.3,-117.9 -19.3,-238.8 -19.3,-360.5 0,-286 38.4,-576 136.7,-839.4 49.1,-131.7 113.2,-256.7 195.1,-370.8 81.8,-114.1 181.4,-217.3 300.9,-305.1 232.4,-170.7 519.4,-249.4 808.3,-249.4 239.8,0 481.3,54.1 696.2,156.2 214.9,102.2 403.4,252.7 535,446.3 147.9,217.6 216.9,470.8 216.8,725.1 0,234.9 -58.6,471.1 -168.5,683.2 -109.8,212.2 -271.1,400.3 -476.8,538.3 -99.1,66.5 -209.4,122 -325.5,161 -116,39.1 -237.7,61.7 -359.5,61.7 -93.9,0 -187.9,-13.5 -278.7,-43.4 -148.9,-49.1 -276.2,-138.4 -377.7,-249.4 -101.6,-111.2 -177.9,-244.2 -225.5,-383 -58.8,-171.3 -78.6,-349.4 -78.6,-526.8 0,-108.6 7.4,-217.1 18.1,-323.8 25.4,-252.9 71.5,-510.5 155.9,-754.5 84.4,-243.9 207.4,-474.3 386.5,-671.1 130.1,-142.9 294.7,-261.6 475.7,-344.8 181.1,-83.3 378.8,-131.2 575.4,-131.2 151.4,0 302.3,28.6 443.3,91.6 109.9,49.2 206.5,114.6 291.6,191.4 127.7,115.2 229.6,255.7 314.1,406.1 84.5,150.4 151.6,311 209.2,467.4 108.9,295.7 203.6,610.3 203.8,927.1 0,101.5 -9.8,203.1 -32.1,304.2 -46.6,210.3 -160.5,412.4 -320.6,565 -80.1,76.3 -171.8,140.1 -272.6,185.8 -100.8,45.6 -210.8,72.9 -326.6,75.9 -7.5,0.2 -15,0.3 -22.5,0.3 -176.8,0 -343.1,-54.5 -492.8,-138.6 -149.7,-84.3 -283.2,-198.3 -396.2,-319.9 -145.6,-156.9 -269.2,-339.1 -356.7,-533.7 -87.4,-194.6 -138.8,-401.9 -138.8,-608.5 -0.1,-152.4 28,-304.5 90.3,-449.7 92.5,-216 259.5,-396.3 463.7,-522.9 204.3,-126.5 446.2,-199.7 690.8,-199.8 52.4,0 104.9,3.4 157.2,10.4 270.2,35.9 518.4,165.1 706.4,348.7 94,91.8 173,197.3 232.1,312 59,114.8 98.1,238.7 111.9,367 3.7,35.1 5.6,70.2 5.6,105.3 -0.1,238.9 -85.3,473.6 -229.6,668.6 -144.4,195 -348.4,350.8 -588.1,430.7 -12.7,4.2 -22.8,7.4 -31,9.7 -4.1,1.2 -7.7,2.1 -11.5,2.9 -1.9,0.4 -3.8,0.8 -6,1.1 -2.2,0.3 -4.7,0.6 -8.4,0.6 -1.9,0 -4.1,-0.1 -7.2,-0.5 -2.2,-0.4 -4.9,-0.9 -8.4,-2 -2.5,-0.9 -5.5,-2.1 -8.8,-4.1 -5,-2.9 -11,-7.9 -15.6,-15.3 -4.6,-7.4 -6.8,-16.6 -6.7,-23.8 0,-7.7 1.8,-13.3 3.4,-17.4 1.7,-4.1 3.4,-6.8 4.9,-9 2.9,-4.1 5.1,-6.3 6.9,-8 3.5,-3.4 6,-5.1 8.6,-7 4.8,-3.4 9.8,-6.4 15.8,-10 11.1,-6.6 25.5,-14.6 42.8,-24.1 30.1,-16.6 68.6,-37.6 109.4,-61.1 61.1,-35.3 127.5,-76.5 176.5,-115.4 24.5,-19.4 44.5,-38.3 56.8,-53.8 6.2,-7.7 10.4,-14.5 12.6,-19.3 2.3,-4.9 2.5,-7.5 2.5,-7.8 l 2.6,-0.2 -2.4,1 -0.2,-0.8 2.6,-0.2 -2.4,1 1,-0.4 -1,0.6 v -0.2 l 1,-0.4 -1,0.6 c 0,-0.1 -0.5,-1 -2.7,-2.9 -2.2,-1.9 -6.1,-4.5 -12,-7.4 -34.2,-16.5 -75.8,-27.5 -123.4,-34 -47.6,-6.6 -101.1,-8.7 -158.4,-8.7 -91.6,-0.1 -192.9,5.4 -297.1,5.5 -111.8,-0.1 -227,-6.3 -338.3,-33.8 -55.6,-13.7 -110.2,-32.9 -162.5,-59.3 -52.3,-26.4 -102.2,-60.1 -148.3,-102.7 -54.3,-50.2 -106.8,-113.2 -155.6,-184.7 -73.2,-107.1 -138,-233.3 -184.9,-363.4 -46.9,-130.2 -76,-264.4 -76.1,-388.4 0.1,-88 14.7,-171.3 50.2,-243.7 78.7,-160.4 201.3,-303.2 351.4,-408.6 150.2,-105.3 328.3,-173.4 517.5,-182.1 13.6,-0.6 27.1,-0.9 40.6,-0.9 133.8,0 261.8,30.2 379.1,82.9 175.9,79.2 327.8,208.7 441.8,364.9 113.8,156.2 190,339.2 213,526.8 6.5,53 9.6,105.9 9.5,158.6 0,225.7 -56.8,446.8 -148.6,656.1 -91.8,209.3 -218.5,407.1 -359.6,587.2 -98.1,125.2 -216.4,250.6 -353.1,345.9 -68.3,47.6 -141.3,87.6 -218.7,115.9 -77.4,28.3 -159.4,44.6 -244.7,44.6 -19.5,0 -39.2,-0.8 -59.1,-2.6 -105.9,-9.3 -201.6,-42.9 -286.4,-93.2 -127.2,-75.6 -230,-188 -313.5,-314.4 -83.4,-126.5 -147.7,-267.3 -196.8,-402.1 -115.6,-317.7 -204,-654.5 -204.1,-993 0,-111 9.5,-222.1 30.9,-332.6 43.4,-224.8 143.2,-444.6 290.6,-626.7 147.3,-181.9 342.8,-326.3 576.8,-397 116.7,-35.3 233.8,-51.3 350,-51.3 140.4,0 279.4,23.2 415.5,63.2 204.2,60.1 402,157.8 589.7,272.9 187.7,115.2 365.4,247.9 528.9,378.6 293.1,234.3 596.7,497.6 828.7,794.5 115.9,148.4 213.9,305.4 283.2,471.8 69.2,166.2 109.5,341.9 109.5,526.4 0,20.7 -0.5,41.5 -1.6,62.4 -8.6,175.4 -54.3,341.6 -128,496.3 -110.6,232.1 -283.5,438.6 -489.3,616.4 -205.8,177.7 -444.8,326.8 -689,443.6 -449,214.5 -969.1,348.1 -1474,348.2 -238.8,0 -474.3,-30 -696.9,-95.9 -222.7,-65.9 -432.5,-167.8 -619.3,-311.5 -267.8,-205.9 -460.8,-477.7 -588.1,-777.7 -127.3,-300 -189.4,-628.3 -196,-949.8 -0.4,-19.3 -0.6,-38.6 -0.5,-58 0,-386.9 78.2,-778.8 236.3,-1136 158.1,-357.1 396.4,-679.6 716.3,-926.1 187,-143.9 402.4,-255.6 631,-331.4 228.6,-75.8 470.5,-115.7 710.4,-115.7 364.3,0 724.8,92.1 1026.3,292 277.8,184.1 482.1,439.7 616.5,728.5 134.4,289 199.4,611.3 199.4,931.4 0,129.5 -10.6,258.7 -31.7,385.2 -53.6,321.7 -169,636.6 -341.4,919.3 -172.5,282.6 -401.9,533.1 -683.5,725 -364.1,248 -814.5,386.8 -1262.1,386.9 -245.7,0 -490.6,-41.9 -719.5,-131.3 -332.8,-129.8 -611.7,-348.5 -830.1,-615.4 -218.3,-266.8 -376.5,-581.8 -468.4,-906.3 -67.6,-238.6 -101.4,-486.4 -101.4,-734.1 0,-322.5 57.3,-644.8 172.2,-946.4 114.9,-301.6 287.5,-582.5 518.1,-821.5 224.8,-233.1 504.5,-417.9 810.6,-544.6 306.2,-126.7 638.9,-195.3 970.2,-195.4 279.4,0 557.8,48.9 817.9,153.4 426.7,171.4 766.6,477.4 999.6,848.8 233.1,371.4 359.7,808.2 359.7,1243.8 0,164.7 -18.1,329.3 -55.6,489.9 -117.4,503.9 -396,956.7 -771.9,1328.8 -376.1,372.1 -849.6,663.9 -1359.7,846.3 -342.2,122.2 -713.9,199.3 -1081.1,199.3 -300.1,0 -597.3,-51.6 -871.5,-173 -324.3,-143.6 -590.6,-377.6 -785.3,-658.4 -194.7,-280.9 -318.2,-608.8 -356.9,-942.2 -10,-86.5 -14.9,-173.2 -14.9,-259.6 0,-289.3 54.2,-576.7 149.5,-852.7 95.2,-275.9 231.4,-540.5 396,-784.5 484.4,-718.2 1231.8,-1290.6 2104,-1525.6 283,-76.2 578.2,-114.5 873.1,-114.5 614.3,0 1227.8,166.1 1726.5,504.7 326.8,221.8 595.5,518.3 782.8,853.6 187.3,335.3 293.3,709.7 293.3,1087.2 0,98.5 -7.2,197.1 -22.1,295.3 -50.2,331.8 -179.4,642.1 -352.3,931.9 -173,289.9 -389.9,559.7 -617.1,811 -297.2,328.6 -641.3,648 -1028.1,887.4 -386.6,239.4 -816.7,399 -1283.4,404.9 -8.6,0.1 -17.1,0.1 -25.7,0.1 -495,0 -958.4,-181.5 -1345,-468.5 -386.6,-287.1 -697.3,-679.8 -888.3,-1106.2 -176.1,-393.5 -260,-816.8 -260,-1241 0,-515.3 123.7,-1031.9 356.5,-1498.9 232.8,-467 574.8,-884.4 1011.8,-1200.6 20.1,-14.6 48.3,-10.1 62.8,10.1 14.6,20.1 10.1,48.2 -10,62.8 -424.6,307.2 -757.4,713.2 -984.1,1167.9 -226.7,454.6 -347,957.9 -347,1458.7 0,412.4 81.5,823 252.2,1204.2 184.4,412.1 486.1,793.4 859.8,1070.8 373.7,277.4 818.7,450.8 1291.3,450.7 8.2,0 16.4,0 24.5,-0.1 446.5,-5.7 860.5,-158.2 1237.2,-391.4 376.7,-233.1 715.3,-546.7 1008.8,-871.3 224.8,-248.6 437.9,-514.1 606.5,-796.7 168.6,-282.6 292.6,-582 340.6,-899.2 14.2,-93.7 21.1,-187.8 21.1,-281.9 0,-360.6 -101.4,-720.2 -281.9,-1043.3 -180.4,-323 -439.9,-609.3 -754.7,-823.1 -481.4,-327 -1077.8,-489.2 -1676,-489.1 -287.1,0 -574.6,37.3 -849.7,111.4 -849.1,228.5 -1580,787.8 -2052.8,1489 -160.6,238.1 -293.2,495.9 -385.6,763.6 -92.4,267.7 -144.5,545.2 -144.5,823.3 0,83.1 4.7,166.2 14.3,249.2 36.9,318.3 155.3,632.8 341.5,901.3 186.2,268.6 440,491.1 747.8,627.4 260.7,115.5 545.1,165.3 835,165.3 354.5,0.1 716.8,-74.7 1050.8,-194.1 498.1,-178 960.8,-463.4 1326.7,-825.5 365.9,-362.1 634.7,-800.6 747.6,-1285.2 35.8,-153.7 53.2,-311.4 53.2,-469.5 0,-418.1 -121.9,-839.1 -345.9,-1196 -224,-356.9 -549.5,-649.4 -956.9,-813.1 -248.5,-99.8 -515.5,-146.9 -784.4,-146.9 -318.8,0 -640.3,66.3 -935.8,188.6 -295.5,122.2 -564.9,300.5 -780.2,523.9 -221.7,229.8 -387.9,500.1 -498.8,791 -110.9,291 -166.3,602.6 -166.3,914.4 0,239.5 32.7,479.1 98,709.6 88.6,313.1 241.6,617.4 451.5,873.8 209.9,256.5 476.5,465 793.1,588.6 217.5,84.9 451.3,125.1 686.8,125.1 428.9,0.1 863.1,-133.8 1211.4,-371.3 270.2,-184.2 491.1,-424.9 657.3,-697.5 166.3,-272.5 277.9,-576.8 329.5,-887.2 20.3,-121.6 30.5,-245.8 30.5,-370.4 0,-308 -62.7,-617.7 -191,-893.4 -128.4,-275.7 -322,-517.3 -584.6,-691.5 -284.4,-188.6 -627.3,-277 -976.6,-277 -229.9,0 -462.5,38.3 -682.1,111.1 -219.5,72.8 -426.1,180 -604.3,317.3 -306.9,236.5 -536.2,546.3 -689,891.2 -152.7,344.9 -228.7,724.8 -228.7,1099.6 0,18.8 0.2,37.5 0.6,56.2 6.3,311.1 66.6,628.6 188.9,916.4 122.3,288 306.1,546.3 560,741.5 177.3,136.4 376.8,233.5 590,296.6 213.2,63.1 440.1,92.2 671.4,92.2 488.9,0.1 997.5,-130.1 1435.2,-339.4 317.3,-151.6 624.7,-359.4 855.3,-610.5 115.3,-125.6 211.4,-261.8 280.5,-407 69.2,-145.3 111.5,-299.4 119.5,-462 0.9,-19.4 1.4,-38.8 1.4,-58 0,-171.3 -37.3,-334.8 -102.6,-491.9 -98,-235.4 -259.6,-456.1 -451.9,-661.3 -192.2,-205.2 -414.8,-394.8 -633,-569.2 -215.9,-172.5 -454.9,-347 -705.4,-477.7 -125.2,-65.3 -253.2,-119.8 -382.5,-157.7 -129.2,-38 -259.6,-59.6 -390.1,-59.6 -108,0.1 -216,14.8 -323.9,47.4 -214.6,64.9 -395.3,197.6 -533,367.6 -137.6,169.8 -231.6,376.8 -272.2,587 -20.1,104.4 -29.2,209.8 -29.2,315.6 -0.1,322.6 84.9,649.9 198.7,962.2 63,173.3 152,355.3 271,495.7 59.5,70.2 126.2,130.1 200.6,174.2 74.5,44.1 156.5,72.8 248.5,81 17.2,1.5 34.2,2.2 51.1,2.2 73.8,0 145,-14.1 213.8,-39.2 103.2,-37.5 200.8,-100.2 290.3,-176.5 89.5,-76.2 170.8,-165.9 241.5,-256.2 137.6,-175.5 260.2,-367.3 348.1,-567.8 87.9,-200.6 141.1,-409.5 141.1,-620 0,-49.2 -2.9,-98.4 -9,-147.7 -27.6,-227.5 -143.3,-453 -312.9,-620 -84.7,-83.6 -182.7,-152.6 -289.4,-200.5 -106.7,-48 -222,-75 -342.2,-75 -12.1,0 -24.3,0.3 -36.5,0.8 -170.1,7.8 -332.1,69.2 -469.9,165.9 -137.7,96.6 -250.7,228.4 -322.3,374.5 -27.7,56.4 -41,126.1 -41,204.1 0,73.2 11.7,153.4 32.7,235 31.5,122.4 83.8,248.1 146.6,359.7 62.8,111.7 136.5,209.3 208.4,275.7 39.7,36.7 82.4,65.6 127.8,88.5 68,34.4 142.2,55.3 220,67.6 77.7,12.2 158.9,15.8 240.2,15.8 101,0 202.1,-5.5 297.1,-5.5 59.6,0 116.8,2.1 170.7,9.5 53.8,7.5 104.5,20.1 150.3,42.2 18.3,8.9 34.2,20.1 46.3,35.7 6.1,7.7 11,16.6 14.2,26 3.2,9.3 4.8,19.2 4.8,28.6 -0.1,14.5 -3.4,27.8 -8.3,39.9 -9.4,22.7 -24,41.8 -41.4,60.6 -30.6,32.6 -71.1,63.8 -115.3,94 -66.3,45.2 -141,87.4 -199.1,119.5 -29,16.1 -53.9,29.6 -70.8,39.2 -8.4,4.8 -15,8.7 -18.1,10.8 l -1.6,1.1 -0.1,0.1 -15.7,-20.7 18.9,17.7 c -2.4,2.5 -3.1,2.9 -3.2,3 l -15.7,-20.7 18.9,17.7 -29.5,-27.6 34.7,20.6 c -2.3,3.9 -4,5.7 -5.2,7 l -29.5,-27.6 34.7,20.6 -37.2,-22.1 40.9,14 c -1.2,3.6 -2.5,6.1 -3.7,8.1 l -37.2,-22.1 40.9,14 -41.7,-14.2 h 44.1 c 0,5.9 -1.1,10.7 -2.4,14.2 l -41.7,-14.2 h 44.1 -44.4 l 42.2,-13.9 c 1.6,4.8 2.2,9.6 2.2,13.9 h -44.4 l 42.2,-13.9 -42.2,13.9 28.4,-34.2 c 5.4,4.3 11.1,11.9 13.8,20.3 l -42.2,13.9 28.4,-34.2 -28.2,33.9 17.1,-40.7 c 3.2,1.4 7,3.4 11.1,6.8 l -28.2,33.9 17.1,-40.7 -16.6,39.5 6,-42.4 c 2.5,0.4 5.9,1 10.6,2.9 l -16.6,39.5 6,-42.4 -5.6,39.2 v -39.6 c 1.4,0 3.1,0 5.6,0.4 l -5.6,39.2 v -39.6 29.8 l -4.1,-29.5 c 0.5,-0.1 1.6,-0.3 4.1,-0.3 v 29.8 l -4.1,-29.5 1.5,10.5 -1.9,-10.5 h 0.4 l 1.5,10.5 -1.9,-10.5 0.7,-0.1 c 1.7,-0.4 5.7,-1.4 11.1,-3.1 5.5,-1.7 12.6,-3.9 21.2,-6.8 220.8,-73.5 410.3,-217.9 544.2,-398.8 133.9,-180.9 211.9,-397.8 211.9,-615.1 0,-31.9 -1.7,-63.8 -5.1,-95.7 -12.5,-116.4 -48.1,-229.7 -102.4,-335.4 -81.6,-158.4 -205.6,-299.5 -356.1,-406.8 -150.5,-107.4 -327.3,-181.1 -514.3,-205.9 -48.2,-6.4 -96.8,-9.6 -145.3,-9.6 -226.6,0 -453,68.3 -643.4,186.3 -190.4,118 -344.4,285.4 -428.4,481.8 -57.1,133.4 -83,272.9 -83,414.3 -0.1,191.6 47.8,386.7 130.9,571.6 83.1,184.9 201.3,359.3 340.6,509.3 107.9,116.3 235,224.4 374.4,302.7 139.4,78.4 290.6,127.1 448.6,127.1 6.7,0 13.4,-0.1 20.2,-0.3 103,-2.7 201,-26.9 291.8,-68 136.1,-61.5 256,-161.2 349.7,-281.9 93.7,-120.7 161,-262.4 192.7,-406.2 20.7,-94.1 30,-189.1 30,-284.8 0.1,-298.6 -90.5,-603.9 -198.2,-896 -75.5,-205.1 -166.9,-414.5 -289.7,-594.3 -61.4,-89.9 -130.6,-172.3 -209.5,-243.5 -78.9,-71.1 -167.4,-131 -268.1,-176 -128.3,-57.4 -266.3,-83.8 -406.5,-83.8 -181.9,0 -367.4,44.6 -537.8,122.9 -170.3,78.3 -325.4,190.3 -446.8,323.7 -169.2,186 -286.6,404.9 -367.9,640 -81.4,235 -126.6,485.9 -151.4,734 -10.6,104.8 -17.8,210.3 -17.7,314.8 -0.1,170.7 19.2,338.6 73.7,497.6 43.8,127.6 114.2,250.2 206.8,351.4 92.6,101.3 207,181 339.5,224.7 80.9,26.6 165.2,38.9 250.5,38.9 110.6,0 222.9,-20.6 330.8,-57 107.9,-36.3 211.4,-88.3 304.1,-150.4 192.3,-129 343.7,-305.4 447,-505 103.4,-199.5 158.5,-421.9 158.4,-641.8 0,-238.2 -64.4,-473.1 -201.2,-674.5 -121.2,-178.4 -296.8,-319.3 -499.2,-415.6 -202.4,-96.2 -431.4,-147.5 -657.6,-147.5 -272.8,0 -540.8,74.5 -755,231.9 -111.6,82 -204.4,178.1 -281.1,285 -115,160.4 -193.8,345.3 -243.8,542.6 -50,197.2 -71.1,406.7 -71.1,615.2 0,118.2 6.8,236.1 18.9,351.1 25.5,243.5 70.3,488.1 146.9,720.1 76.7,232 185,451.3 337.7,645 136,172.7 314,322.2 514,428.2 200,106 421.8,168.3 646,168.3 52.8,0 105.7,-3.4 158.6,-10.6 142,-19.2 275.4,-66.8 395.9,-136 180.6,-103.8 331.9,-256.3 437.7,-433.1 105.8,-176.8 166,-377.6 166,-577.5 0,-68.2 -7,-136.3 -21.5,-203.5 -31,-143 -92.4,-277.3 -177.4,-398.6 -127.4,-181.9 -307.9,-334.2 -515.8,-440.7 -207.9,-106.6 -442.9,-167.2 -678.6,-167.2 -24.2,0 -48.4,0.6 -72.7,1.9 -326.8,17.5 -637.9,144.8 -890.3,342.2 -252.4,197.2 -445.6,464.1 -537.8,758.2 -46.9,149.3 -69.2,303.8 -69.2,458.9 -0.2,457 194.9,918.9 527.4,1259.5 222.9,228.4 501.9,404.1 808.7,522.7 306.6,118.7 640.8,180.3 973,181 1.6,0 3.3,0 5,0 269.7,0 547.4,-44.2 795.5,-139 124.1,-47.4 240.7,-107.4 345.6,-180.6 104.8,-73.3 197.8,-159.7 274.9,-260.2 126.7,-165 192,-374.5 191.9,-580.3 0,-145.3 -32.4,-288.5 -97.3,-412.8 -64.9,-124.4 -161.8,-229.9 -292.5,-302.3 -112.5,-62.2 -238.9,-90.9 -367.8,-91 -180.2,-0.1 -365,56.6 -518.8,154.5 -76.8,48.9 -146,108.1 -203.1,175.2 -57.2,67 -102.3,142 -131.9,222.9 -31.8,87.3 -46.7,177.7 -46.7,268.6 -0.1,185.2 62.4,372.7 171.3,534.7 108.9,162.1 263.9,298.2 446.7,381.6 167,76.2 350.7,112 536.6,112 323.4,0.1 653.1,-108.8 908.3,-298 201.6,-149.3 360.6,-342.4 476.2,-558.7 115.6,-216.3 187.8,-455.8 215.5,-696.9 8,-69.7 12.2,-140.3 12.2,-211.1 0,-173 -25.2,-346.3 -80.7,-507.1 -55.6,-160.7 -141.3,-308.8 -262.8,-433 -89.6,-91.6 -203,-165.7 -326.9,-216.7 -124,-51 -258.4,-78.7 -389.7,-78.7 -80.6,0 -160.1,10.5 -235.3,32.2 -75.3,21.8 -146.4,54.8 -210.7,100 -95.9,67.5 -167.3,156.6 -215.1,257.7 -47.8,101 -71.8,214.2 -71.8,328.4 0,174 55.6,349.9 164.1,489.1 106,136.3 251.3,240 417,309.6 165.6,69.6 351.4,105 536.2,105 71.9,0 143.6,-5.3 213.9,-16 216.8,-32.9 422.2,-109.9 612.2,-216.3 190,-106.5 364.4,-242.5 518.8,-392.7 183.9,-178.9 344.4,-382.4 465.5,-602.2 121.2,-219.7 203,-455.6 230.3,-699.8 6.2,-55.5 9.3,-111.4 9.3,-167.4 0,-218.1 -46.9,-437.6 -138.7,-636 -91.8,-198.4 -228.4,-375.8 -408,-510.9 -108.7,-81.7 -234.1,-145 -367.3,-187.7 -133.2,-42.7 -274.1,-64.9 -413.8,-64.9 -239.4,0 -474.2,65.1 -661.2,201.4 -116,84.4 -206.4,196.7 -267.8,322.5 -61.4,125.7 -93.6,264.8 -93.6,401.6 0,100.9 17.5,200.6 53.5,293 36,92.5 90.3,177.8 164.4,250.7 87.2,85.7 193.6,149 310.9,191 117.4,42 245.6,62.5 375.3,62.5 187.1,0 377.1,-42.7 541.6,-123.1 197.6,-96.6 364.2,-237.3 502.3,-403.8 138.1,-166.3 247.4,-358.3 330,-555.9 119.8,-286.4 189.9,-595.2 189.9,-900.1 0,-195.9 -28.9,-390.3 -92,-576.7 -80.3,-237.7 -222.4,-460.8 -408.8,-639.1 -186.4,-178.3 -416.7,-311.8 -673.8,-372.2 -94.3,-22.1 -191.8,-32.9 -289.7,-32.9 -216.7,0 -434.8,53 -621.7,151.1 -187,98 -342.3,240.6 -436.6,419 -59,111.5 -93.4,236.7 -93.3,358.8 0,76.2 13.2,151.2 41.9,221.8 36.8,90.7 103.4,173.5 186.8,232.8 83.4,59.4 182.9,95.2 285.6,95.2 h 1.2 c 71.9,-0.2 138.9,-16.3 201.3,-44.6 93.6,-42.5 177,-113.2 245.7,-199.1 68.7,-85.8 122.6,-186.6 157.9,-286.9 56.5,-160.5 83.6,-330.7 83.6,-502.1 0.1,-353.9 -115.7,-712.6 -322.7,-998.38 -103.5,-142.93 -229.7,-267.62 -375.3,-365 -145.7,-97.42 -310.8,-167.5 -493,-201.41 -84.9,-15.82 -171.6,-23.32 -259.3,-23.32 -212.1,-0.08 -429.8,44.3 -637.7,123.59 -311.9,118.91 -601.6,316.53 -817.9,557.62 -108.1,120.51 -197.9,251.8 -263.3,389.2 -65.4,137.5 -106.5,281 -117.7,426.6 -2,24.7 -3.1,49.5 -3.1,74.1 0,47.2 4.2,93.7 15,136.7 10.8,43.1 27.9,82.7 53.8,117.8 29.9,40.6 69.5,70.2 116.2,90.3 46.6,20 100.1,30 155.5,30 68.2,0 139,-15.2 202,-43.5 63.1,-28.3 118.2,-69.6 156.7,-120.6 33.8,-44.6 57.9,-93.4 73.8,-145.1 15.9,-51.7 23.3,-106.3 23.3,-162.2 0.1,-128.1 -39.8,-262.5 -106.1,-377.6 -106.8,-185.89 -274.8,-332.42 -474.5,-432.5 -199.6,-100.11 -430.6,-153.39 -660.5,-153.39 -123.1,0 -245.9,15.31 -363.4,46.48 -279.3,74.3 -527,226.02 -727.5,424.71 -200.4,198.6 -353.4,444.1 -442.7,704.4 -56.8,165.1 -89.3,340.9 -89.3,513.8 0,211.5 48.6,418.1 160.3,597.9 79.7,128.4 198.5,239.1 336.3,317 137.8,78.1 294.3,123.4 448.8,123.4 80.7,0 161,-12.3 238.2,-38.7 78.9,-26.9 147.7,-66.2 207.1,-115.2 89,-73.5 156.6,-168.8 202.1,-276.4 45.5,-107.6 68.7,-227.3 68.7,-348.2 0,-104.7 -17.4,-210.1 -52.3,-309.1 -34.9,-99.1 -87.2,-191.7 -157,-271.2 -116.8,-133.2 -266.4,-232.4 -434,-298.6 -167.5,-66.1 -353.1,-98.9 -540.4,-98.8 -295,-0.1 -594.2,81.3 -834.4,237.8 -262.1,170.7 -459.3,410.8 -591.3,684.4 -132,273.6 -198.4,580.6 -198.3,882.9 0,28.1 0.5,56.1 1.7,84 6.7,164.8 32.1,330.6 81.7,487.5 49.5,157 123.1,305.1 226.2,435.3 96.4,121.9 222.4,226.5 364.1,300.4 141.7,73.9 298.9,116.9 458.2,116.9 20.7,0 41.5,-0.8 62.3,-2.2 184.8,-13.1 361.5,-90.7 499.3,-208.2 68.9,-58.6 128.1,-127.2 173.8,-202.2 45.7,-75 78.1,-156.4 93.8,-241.1 7.5,-40.5 11.1,-81.5 11.1,-122.5 0.1,-150.9 -49.5,-302.7 -136.7,-432.3 -87.2,-129.6 -211.9,-236.6 -360.7,-298.8 -111.1,-46.6 -231.9,-68.6 -354.1,-68.6 -222.5,-0.1 -449.3,73.3 -627.2,200.6 -138.4,98.9 -249.9,226.9 -333.6,371 -83.7,144.1 -139.4,304.4 -166.1,467.1 -11.5,70.4 -17.2,141.8 -17.2,213.3 0,280.5 87,563.4 243.9,801.1 156.8,237.8 382.8,430 660.4,531.6 133.5,48.9 276.3,72 420.1,72 263.5,0.1 530,-78.1 745.5,-215.8 107.8,-68.8 202.9,-152.4 278.9,-248 76.1,-95.7 133.2,-203.4 165.6,-321.2 18.1,-65.7 26.9,-134.2 26.9,-203.3 0,-164.9 -50.5,-332.4 -142.7,-467.2 -46,-67.5 -102.3,-126.9 -167.6,-174.3 -65.4,-47.3 -139.8,-82.8 -222.8,-102.7 -50.4,-12 -101.6,-17.7 -152.9,-17.7 -130.1,-0.1 -261,36.9 -377.2,100.9 -116.2,63.8 -217.5,154.5 -288.7,259.9 -57,84.2 -97.7,176.2 -124.3,272.8 -26.6,96.5 -38.9,197.6 -38.9,299.5 0,104.1 12.9,209.1 36.5,310.7 79.4,342 282.9,654.2 560.5,891.5 277.6,237.3 628.7,399.2 1001.1,441.9 67.9,7.8 136.2,11.7 204.5,11.7 339.9,0 679.1,-94.9 970.6,-261.8 291.5,-166.8 535,-405.3 685.3,-690.8 67,-127.2 114.8,-247.2 146,-362.9 31.1,-115.7 45.5,-227 45.5,-337.4 0,-164.8 -32.3,-327.8 -91.2,-498.9 -58.8,-171 -144.4,-349.9 -250.1,-545.1 -36.6,-67.5 -70.3,-125.6 -106,-175.3 -26.8,-37.2 -54.7,-69.8 -86,-98.7 -47,-43.3 -101.6,-78.6 -173.9,-108.3 -72.2,-29.6 -162,-53.3 -277.3,-71.6 -96.5,-15.3 -226.6,-28 -359.4,-28 -113.6,-0.1 -229.3,9.3 -327,33.3 -48.9,12 -93.2,27.5 -130.5,46.7 -37.3,19.2 -67.3,41.9 -89,67.8 -41.2,49 -70.7,102.1 -90.1,158.1 -19.4,55.9 -28.6,114.7 -28.6,174.8 -0.2,145.6 54.7,298.8 149.3,428.8 94.4,130 228,236.3 382.1,290.4 102,35.9 211.5,53.5 321.2,53.5 132.6,0 265.5,-25.7 385.9,-75.1 120.4,-49.4 228.2,-122.4 311.5,-216.3 120.1,-135.4 182.6,-313.4 182.5,-490.2 0,-84.4 -14.2,-168.3 -42.7,-247 -28.6,-78.7 -71.5,-152.1 -129.1,-216 -67.8,-75.1 -155.3,-133.7 -252.9,-173.4 -97.5,-39.7 -204.9,-60.4 -311.3,-60.4 -156.1,0 -309.2,44.6 -427.7,136 -70.6,54.4 -120.1,114.3 -152.1,176.9 -32,62.6 -46.9,128.1 -46.9,195.1 0,56.8 10.8,114.7 31.6,172.1 31.1,86 84.8,170.7 157.1,247 72.3,76.3 163.1,144.2 267.8,196.8 181.2,91.3 375.1,140.3 558.5,140.2 135.4,0 264.8,-26.5 380.2,-81.7 115.5,-55.4 217.1,-139.2 297.9,-256 139.5,-202 203.2,-440 203.2,-683 0,-234.2 -59.4,-472.7 -166.6,-685.1 -114,-226.2 -298.9,-431.4 -519.2,-579.2 -220.3,-147.8 -475.6,-237.9 -730,-237.9 -107.6,0 -215.2,16.1 -320.6,50.6 -116.6,38.3 -221.9,96.6 -314.9,170 -139.4,110.1 -251.1,254.4 -330.1,415.3 -79,160.9 -125.2,338.3 -134.3,513.5 -1.3,24.5 -1.9,49 -1.9,73.5 -0.1,333.3 117.2,661.1 316.9,941.5 199.5,280.3 481.2,512.6 807.2,654.8 283.6,123.7 594.6,182.5 907.9,182.5 434.7,0.1 873.6,-113.5 1247.8,-322.4 408,-227.7 770.7,-552.8 1030.6,-930.6 259.9,-377.9 416.8,-808 416.8,-1246.8 0,-35.6 -1.1,-71.2 -3.2,-106.9 -27.2,-466.9 -95.9,-933.5 -263.4,-1339 -83.8,-202.81 -192.1,-390.39 -332.2,-555.9 -140.2,-165.51 -312.1,-309.1 -524.2,-424.22 -241.9,-131.17 -547.3,-230.08 -881.4,-295.78 -334.2,-65.58 -697.1,-98.2 -1054.3,-98.2 -269.2,0 -535.3,18.51 -783.4,55 -248.1,36.48 -478.2,91.09 -675.4,162.89 -308.3,112.23 -603.1,271.52 -852.4,473.2 -249.4,201.8 -453.2,445.71 -581.3,727.31 -120.7,265 -169.4,546.1 -169.4,834.1 -0.1,452 120.7,920.2 270.2,1360.1 171.1,503.3 382.4,1003.6 657.6,1462.4 275.3,458.9 614.3,876.3 1041,1214.8 281.9,223.7 609.8,405.8 958.2,531.7 348.3,126 717,195.9 1080.4,195.9 371.1,0 736.5,-72.8 1070.2,-232.5 479.7,-229.8 840.1,-610.6 1081.3,-1063.1 241.1,-452.4 362.2,-976.2 362.2,-1487.7 0,-59.4 -1.7,-118.6 -4.9,-177.6 -25.4,-459.1 -137.8,-917.2 -333.5,-1338.5 -195.7,-421.3 -474.7,-805.7 -833.2,-1118 -563.4,-491.1 -1331.1,-786.41 -2095.1,-786.21 -207.2,0 -414.2,21.6 -616.8,66.79 -474.3,105.82 -913.8,348.91 -1251.3,678.32 -337.6,329.3 -572.8,744.3 -641.8,1193.8 -14.1,92.2 -21,185 -21,277.8 0,364.5 106.4,729.1 297.3,1049.2 191,320.1 466.2,595.4 802.9,781.9 341.1,189 737.6,282.6 1134.9,282.5 486.9,0.1 974.4,-140.5 1361.6,-414.7 220.9,-156.3 409.3,-360.7 542.1,-589.1 132.7,-228.4 209.7,-480.4 209.7,-732.5 0,-91.1 -10,-182.1 -31.1,-272.3 -35.2,-151.1 -100,-292.5 -188.2,-421.4 -132.1,-193.4 -316.9,-358.4 -530.9,-483.6 -214.1,-125.2 -457.3,-210.5 -705.3,-245 -92.7,-12.9 -186,-19.1 -279.3,-19.1 -381.5,-0.1 -762.3,105 -1091.5,290 -329.3,185 -606.7,449.7 -783.1,767.4 -154.9,278.9 -230,592.1 -230,906.8 0,490.1 182.4,983 526.6,1352.5 210,225.5 475.6,401.7 769,521.5 293.4,119.8 614.5,183 934.7,183 221.5,0 442.5,-30.2 653.7,-92.7 410.9,-121.5 776.3,-360.8 1054.4,-669.8 278.2,-308.9 468.7,-687.2 531.5,-1085.7 15.7,-99.8 23.5,-200.9 23.5,-302.1 0.1,-471.3 -170.2,-943.4 -504.6,-1291 -211.9,-220.4 -477.5,-380.4 -771.7,-485.5 -294.2,-105 -616.8,-154.9 -941,-154.9 -255,0 -511,30.8 -754.8,89.5 -327.3,78.7 -648.4,208.4 -924.8,388.1 -276.5,179.8 -508,409.3 -658.5,687.8 -141.6,261.9 -203.3,550.8 -203.3,845.7 -0.1,355.6 90,719.6 237.3,1050.8 231.1,520.1 616.9,988.5 1094.9,1330.4 478.1,342 1048,557.4 1647.4,574.4 24.1,0.6 48.1,1 72.1,1 662.5,0.1 1302.1,-257.9 1800.8,-670.6 249.3,-206.4 463.3,-451.3 627.4,-721.4 164.1,-270.1 278.4,-565.4 328.6,-872.7 21.2,-129.1 31.4,-259 31.4,-388.7 0,-563.8 -193.8,-1124.2 -527.5,-1601.5 -333.5,-477.4 -806.5,-871.2 -1362.7,-1102.7 -420,-174.8 -876,-258.11 -1334.4,-258.11 -448,0 -898.3,79.61 -1319.1,230.71 -420.9,151.1 -812.2,373.7 -1142.7,659.2 -747.7,645.7 -1180.6,1599 -1180.5,2547.3 0,271 35.3,541.5 108.5,804.5 164.7,591.5 522.7,1131.5 1001.1,1548.7 478.4,417.4 1076.8,711.7 1720.8,813.5 168.3,26.5 338.6,39.5 508.9,39.5 566.4,0 1133.4,-143.2 1629.1,-401.8 495.7,-258.5 919.9,-632.3 1202.4,-1092.2 170.6,-277.8 289.6,-576.9 366,-887.9 76.4,-311 110.1,-633.9 110.1,-958.6 0,-313.2 -31.4,-628.1 -86.1,-935.6 -108,-606.8 -303.9,-1205.4 -651.9,-1722.1 -173.9,-258.3 -388.5,-495.7 -636.1,-693.41 -247.6,-197.7 -528.3,-355.79 -834.5,-455.79 -274.1,-89.49 -562.2,-130.5 -852.6,-130.5 -430.2,0 -865.2,90 -1265.1,244.68 -670.4,259.11 -1254.3,688.72 -1777.4,1166.12 -549.6,501.4 -1043.9,1065.8 -1359.5,1715.7 -215,442.5 -342.6,929.2 -342.6,1411.3 0,225.4 27.9,449.8 87.6,668.6 105.1,384.7 306.4,739.9 572.7,1051.4 266.2,311.4 597.5,579 961.4,788 647.1,371.8 1408.7,562.4 2168.2,562.4 683.3,0 1364.7,-154.3 1959.5,-468.1 592.3,-312.4 1085.5,-780.7 1430.3,-1329.7 344.8,-548.9 541.1,-1178.1 541.1,-1812 0,-76.1 -2.9,-152.3 -8.6,-228.4 -50.6,-671.8 -332.4,-1322.2 -773.9,-1855.1 -441.4,-532.9 -1042.1,-947.9 -1728.6,-1150.1 -320.3,-94.3 -654.9,-139.69 -990.3,-139.69 -550.7,0 -1103.3,122.49 -1596.9,350.99 -493.8,228.3 -928.3,562.4 -1244.4,984.8 -405.1,541.4 -594.9,1191 -594.9,1850.4 -0.2,899.2 353.6,1815.5 993.1,2492.7 262,277.6 573.9,522.6 918.1,703.3 344.3,180.7 720.8,297 1112.8,318.2 43.3,2.3 86.5,3.5 129.8,3.5 610.4,0.1 1215.6,-230.9 1681.8,-604.5 499.5,-400.2 846.2,-955.8 1028.4,-1549.7 95.3,-310.4 145.3,-635.4 145.3,-959 0,-508.6 -123.5,-1013.5 -388,-1454.3 -294.2,-490.4 -750.1,-873.3 -1284.8,-1133.6 -534.6,-260.3 -1147.7,-397.6 -1753.3,-397.5 -60,0 -120,1.3 -179.9,4 -677.2,30.7 -1346.2,228.3 -1925.5,558.2 -579.3,329.9 -1068.5,791.9 -1387.7,1350.5 -273.5,478.6 -410.77,1023.6 -410.73,1567.3 0,724.5 243.63,1446 731.33,2005.7 232.4,266.8 519,496 838.7,665.5 319.8,169.5 672.6,279.2 1037.6,307.7 59.8,4.7 119.8,7 179.9,7 336.6,0 675,-72.7 976.5,-209.9 301.5,-137.2 566,-338.6 756.2,-595.4 203.8,-274.9 309.8,-613.1 309.7,-948.1 0,-172.4 -28,-343.9 -84.9,-505.4 -57,-161.6 -142.7,-313.2 -258.3,-446.4 -137.5,-158.3 -317.2,-282.6 -517.3,-367.1 -200.1,-84.5 -420.4,-129.2 -638.2,-129.2 -284.2,0 -563.3,75.9 -789.3,236.2 -201.5,142.9 -349.8,336.3 -448.1,555 -98.3,218.6 -146.2,462.5 -146.2,704 0,67.5 3.8,134.9 11.1,201.4 45.7,411.2 227.1,808.3 503.5,1132.1 276.4,323.7 647.3,573.8 1070.5,692.2 181.9,50.9 371.3,75.4 561.3,75.4 346.6,0 694.6,-81.8 1000,-233.2 305.5,-151.4 568,-372.1 745.4,-649.1 167.3,-261 248.5,-565.3 248.5,-870.7 0,-259.3 -58.6,-519.1 -172.2,-753 -113.6,-233.9 -282,-441.8 -501.7,-598.3 -256.1,-182.6 -581.4,-291.8 -899.5,-291.6 -164.9,0 -327.9,29.2 -478.9,92 -221.6,92.2 -400.5,253.2 -524.3,448.9 -123.7,195.6 -191.7,425.8 -191.7,654 0,68.9 6.2,137.5 18.8,205.1 48.4,258.8 180.9,498 368.1,697 187.1,199.1 428.7,357.6 692.8,454.5 246.4,90.5 509.7,132 775.3,132 305.2,0 613.3,-54.9 901.1,-152.7 284.5,-96.6 556.8,-239.7 785.5,-423.5 228.9,-183.8 414,-407.9 526.4,-667 75.1,-173.1 110.4,-357.5 110.5,-543.1 0,-308.7 -98.1,-620.5 -273.1,-885.4 -175.1,-265 -426.7,-482.6 -732.9,-604.8 -192.3,-76.7 -398.9,-112.9 -606.8,-112.9 -326.6,-0.1 -656.4,89.5 -937.1,249.6 -280.8,160.1 -512,390.3 -644.7,670.5 -88.1,186 -129.5,386.8 -129.5,589.2 -0.1,300.7 91.7,604.6 257.4,865 165.6,260.3 404.6,476.8 698.4,604.5 231.6,100.6 477.2,146.2 726.1,146.2 349.5,0 705.3,-90.2 1034.1,-244.3 328.8,-154 630.4,-371.8 871.4,-625.1 121.8,-127.8 233.9,-276.6 314.9,-433 81.1,-156.5 130.9,-320.2 130.8,-478.1 0,-105.5 -21.8,-208.4 -71.4,-307.5 -44.7,-89 -106.8,-164.8 -182.5,-230 -113.4,-97.6 -257.4,-170.9 -414.4,-225.6 -157,-54.6 -326.8,-90.6 -490.6,-115.1 -161.3,-24 -330.1,-39.6 -496.9,-39.6 -197.6,0 -392.2,21.9 -567.6,76.5 -175.6,54.7 -331.6,141.6 -455.3,272 -77,81.1 -134,175.3 -171.9,276.8 -37.9,101.4 -56.6,210 -56.6,319.5 0,214.2 71.6,431.1 208.2,602.3 119.3,149.8 280.5,265.7 463.2,344.2 182.7,78.5 386.5,119.3 589.3,119.3 66.1,0 132.1,-4.3 197.2,-13.1 232.9,-31.2 454.6,-113.6 654.3,-232.3 199.6,-118.7 377.2,-273.9 521.5,-449.8 258.8,-315.2 401,-725.7 400.9,-1123.3 0,-206.2 -38.1,-408.8 -117.2,-593.1 -79.1,-184.4 -198.9,-350.5 -363.5,-485 -124.5,-101.7 -269.4,-178.2 -425.1,-229.2 -155.5,-51.1 -321.7,-76.6 -488.2,-76.6 -165.4,0 -331,25.2 -486.6,75.3 -155.6,50.1 -301.1,125.1 -426.9,224.3 -163,128.7 -288.5,293.3 -373.4,476 -84.9,182.6 -129,383.2 -129,583.1 0,219.3 53,437.4 162.6,630.6 129.8,228.8 333.5,416.1 574.8,546 241.2,130 519.7,202.3 797.1,202.3 106.9,0 213.7,-10.8 318.2,-33 253.3,-53.8 486.9,-167.1 691.2,-319.7 204.3,-152.6 379.1,-344.5 514.5,-554.6 271.1,-420.6 400.4,-912.3 467,-1405.6 19.6,-145.4 31.9,-296 31.9,-445.8 0,-223.5 -27.3,-445.1 -96.9,-645.1 -69.7,-200.1 -181,-378.3 -350.5,-518.9 -117.7,-97.6 -255.2,-167.8 -403.9,-213.6 -148.7,-45.9 -308.6,-67.3 -470.2,-67.3 -177.1,0 -356.1,25.7 -524.4,72.5 -419.6,116.6 -795.7,365.9 -1066,688.3 -135.1,161.1 -243.8,340.5 -318.7,530.3 -74.8,189.8 -115.8,390.2 -115.8,593.8 0,0.9 0,1.9 0,2.9 0.4,203.4 45.3,405.2 126.4,594.6 121.5,284 324.6,539.9 578.7,729.8 254.2,190 559.1,314.1 884.5,336.6 38.5,2.7 77,4 115.3,4 356.4,0 704.1,-113.5 1003.8,-302.9 299.8,-189.3 551.3,-454.4 715.2,-755.3 198.3,-363.6 284.6,-769.9 284.6,-1181.8 0,-308.3 -48.4,-619.4 -134.2,-917 -117.4,-407.3 -295.5,-816.8 -552.4,-1140.5 -128.4,-161.9 -276.3,-302.4 -446.1,-411.32 -169.9,-108.98 -361.7,-186.6 -579.2,-222.69 -85.5,-14.1 -174,-20.9 -264.1,-20.9 -299.1,-0.08 -616.4,75.39 -902.3,205.39 -286,129.81 -540.2,314.32 -714.3,529.12 -160.7,198 -278.6,422.3 -356.3,660.1 -77.8,237.8 -115.4,489.1 -115.4,740.3 0,129.8 10,259.6 29.7,387.6 44,286.5 152.6,581 323.4,820.1 85.4,119.6 186.2,225.3 302.1,310 116,84.7 246.9,148.4 393.6,184.2 89.2,21.7 179.6,31.8 270.3,31.8 190.1,0 381.4,-44.5 562.7,-119.6 181.3,-75 352.6,-180.4 502.2,-301 298.4,-240.6 528.9,-546.2 684.8,-884.1 155.9,-337.8 237,-707.6 237,-1075.9 0,-412.6 -101.8,-822.9 -313.8,-1184.81 -235.3,-401.87 -598.1,-728.98 -1024.7,-955.39 -426.5,-226.48 -916.4,-352.11 -1404.2,-352.11 -248.1,0 -495.5,32.43 -734,100.39 -327.5,93.21 -637,250.43 -897.6,457.62 -260.7,207.19 -472.3,464.3 -605.6,757.31 -102.4,224.99 -154.1,471.09 -154.1,716.49 0,392.6 132.4,782.5 399.5,1081.3 116.5,130.5 264.9,242.5 428.1,321.5 163.1,79 340.8,125 516.1,124.9 101.5,0 202.2,-15.3 299.4,-48.4 175.8,-59.8 323,-171.4 438.7,-311.9 115.5,-140.5 198.9,-310 245.8,-482.9 35.5,-130.7 52.9,-265.5 52.9,-400.5 0.1,-342.9 -112.3,-686.8 -324,-966.6 -180.7,-239.01 -424.9,-426.39 -702.5,-567.1 -277.7,-140.58 -588.6,-234.22 -900.8,-285.82 -206.5,-34.1 -416.8,-51.48 -626.9,-51.48 -570,0 -1138.7,128.08 -1627.9,395.9 -334.6,183.08 -628.9,434.41 -854.5,729.1 -225.5,294.7 -382.2,632.6 -442.8,989.2 -18.2,107 -27.1,215.5 -27.1,324.1 0,307.2 71.6,615.3 207.7,893.7 136.1,278.3 336.6,526.7 594.1,715.2 333.6,244.2 761.7,374.3 1185.6,374.2 344.9,0 686.5,-85.9 972.7,-263.9 125.7,-78.1 249,-184 362.8,-308.7 170.7,-187.1 320,-416.5 426,-657 106.1,-240.5 168.8,-492 168.8,-722.5 0,-161.3 -30.5,-312 -97.1,-443 -124.2,-244.9 -306,-517.5 -526.5,-738.3 -110.1,-110.5 -229.9,-208 -356.6,-283 -126.7,-75 -260.2,-127.5 -398.3,-149.1 -66.3,-10.39 -134.5,-15.39 -204.1,-15.39 -248.7,0 -515.9,64.19 -782.5,174.79 -399.9,165.9 -798.1,436.1 -1131.2,744.5 -166.6,154.2 -317,317.9 -443.4,482.5 -126.4,164.7 -228.8,330.4 -299.7,488 -131.84,292.8 -194.3,607.5 -194.3,924.2 -0.11,659.9 271.7,1328.1 750.2,1818.6 248.9,255.3 556.1,465 892.3,610.6 336.3,145.6 701.5,227.2 1066.5,227.2 153.2,0 306.4,-14.4 457.5,-44.3 434.5,-86.1 837.1,-314.7 1132.1,-625.5 147.6,-155.3 268.3,-331 353.1,-519.4 84.8,-188.3 133.8,-389.2 138.3,-595.6 0.2,-10.8 0.3,-21.7 0.3,-32.6 0,-192.6 -37.3,-381.4 -105.4,-561.4 -102.1,-270 -273.7,-520.4 -491.5,-732.7 -217.8,-212.3 -481.8,-386.5 -767.7,-504.5 -278.1,-114.8 -585.3,-183 -886.8,-182.9 -230.3,0 -457.2,39.6 -666.2,127.9 -290.9,122.9 -526.4,333.9 -694.4,589.9 -168,256 -267.9,556.8 -287.3,856.8 -2.8,42.5 -4.1,85 -4.1,127.4 0,279.2 58.5,556.2 159.4,822.5 100.8,266.3 243.9,521.7 412.4,757 297.5,415.5 695.8,782.7 1151.1,1045.5 455.4,262.8 967.4,421.1 1493.3,421.1 70.4,0 141.1,-2.9 211.9,-8.7 305.9,-25 600.4,-111.1 870.1,-244.4 404.6,-199.8 753.2,-505.7 1000.1,-869 247,-363.4 392.2,-783.6 392.1,-1212.3 0,-28.7 -0.6,-57.4 -1.9,-86.1 -13.4,-293.8 -95.4,-579.3 -231,-842.8 -203.2,-395.1 -527.3,-740.3 -918.9,-986.2 -391.6,-246.1 -850.2,-392.9 -1322.3,-393.6 -1.1,0 -2.2,0 -3.3,0 -445.2,-0.1 -898.2,137.8 -1262.1,377.2 -181.9,119.7 -341.6,264.6 -467.4,429.7 -125.8,165.2 -217.8,350.6 -265,552 -25.5,108.7 -37.6,218.4 -37.6,327.9 0,294.7 87.7,589.1 237.4,859.6 149.6,270.6 361.2,517 606.9,715.2 274.5,221.4 592.7,387.6 933.2,498.4 340.5,110.8 703.2,166.2 1066,166.2 376.2,0 752.4,-59.6 1104.2,-178.2 351.8,-118.6 678.9,-296.2 957.5,-532.1 158.1,-133.7 303,-290.3 407.7,-461.4 52.4,-85.6 94.7,-174.7 123.9,-266.5 29.1,-91.8 45.2,-186.1 45.2,-282.6 0,-1.9 0,-3.8 0,-5.7 -0.8,-114.4 -25.2,-225.6 -69,-331.1 -65.7,-158.1 -175.3,-303.3 -312.8,-424 -137.3,-120.7 -302.5,-216.8 -478,-277.5 -173.2,-60 -353,-88 -533.3,-88 -380.4,-0.1 -763.1,124.8 -1087.2,335.4 -324.2,210.5 -589,506.4 -735.4,845.6 -113.6,263 -165.9,541.6 -165.9,823 0,310.3 63.7,623.9 179.3,922.2 115.7,298.3 283.1,581.2 489.9,829.9 197.9,238.1 438.5,454 708.8,615.9 270.4,161.9 570.3,269.8 887.8,293.5 45.1,3.4 90.2,5 135.1,5 279.7,0 555.7,-63.6 816.2,-170.7 260.6,-107 505.7,-257.6 723,-430.4 402.6,-320.1 724.2,-727.8 944.9,-1178.2 220.8,-450.4 340.6,-943.4 340.6,-1433.8 0,-332 -54.8,-662.7 -170.4,-978.7 -209.8,-573.8 -626.1,-1075.3 -1151.4,-1432.9 -525.2,-357.6 -1158.9,-571 -1801.2,-570.9 -112.8,0 -225.8,6.6 -338.5,20 -272.5,32.6 -543.5,105.1 -788.7,219.1 -245.2,114 -464.4,269.3 -634.8,467.3 -180.2,209.2 -296.4,450.6 -367.9,710 -71.5,259.4 -97.9,536.7 -97.9,815.3 0,177.4 10.6,355.2 27,529.4 36.3,385.9 99.7,780 223.2,1147 123.6,367.1 307,706.8 583.2,986.7 219.5,222.4 490.2,389.1 787.8,500.3 297.6,111.1 622.1,166.6 948,166.6 481.6,0 966.1,-121.2 1372,-360.3 446,-262.7 795,-644.9 1032.7,-1085.8 237.6,-440.8 363.6,-940.3 363.6,-1436.1 0,-72.6 -2.7,-145.2 -8.1,-217.5 -44.1,-584.9 -262.2,-1155.7 -611.1,-1643.6 -348.8,-487.9 -828.1,-892.4 -1393.3,-1145.4 -452.8,-202.7 -955.2,-302.8 -1457.8,-302.8 -751.5,-0.1 -1503.1,224 -2090.5,660.5 -382.6,284.3 -687.3,655.3 -896.1,1069.1 -208.9,413.9 -321.9,870.4 -321.9,1325.4 0,255.3 35.6,510.1 109.7,756.9 114.8,382.3 317.1,740.8 585.2,1049.4 268,308.7 601.7,567.4 978.6,750.6 450.2,218.9 956.1,325.5 1464,325.5 577,0.1 1156.2,-137.6 1658.5,-403.2 472.4,-249.9 874.4,-606.6 1181.2,-1026.3 306.9,-419.7 518.4,-902.3 610.2,-1403.3 35.1,-191.5 52.8,-386.5 52.8,-581.4 0,-635.1 -188.5,-1269.2 -578.9,-1783.3 -290.9,-383.1 -679.4,-685.7 -1119.6,-917.1 -440.2,-231.3 -931.7,-391.3 -1426.9,-489.2 -380.9,-75.39 -773.9,-116.6 -1164.9,-116.6 -762.5,0 -1517.5,156.9 -2163.8,522.2 -765.1,432.4 -1339.9,1143.1 -1613.7,1940.5 -131.5,382.8 -195.1,784.4 -195.1,1186.9 0,436.2 74.7,873.4 218.3,1288.6 247.7,715.7 716.7,1364.1 1323.2,1858.2 606.5,494.1 1350,833.8 2145.8,933.9 158.3,20 317.8,29.7 477.4,29.7 721.7,0.1 1444.4,-199.3 2058.6,-553.7 614.4,-354.4 1119.9,-863.3 1410.2,-1481.2 213.9,-455.3 309.5,-943.2 309.5,-1437.9 0.2,-841.7 -277.5,-1702.8 -719.7,-2447.2 -353.2,-594.8 -822.4,-1142.8 -1380.1,-1577.7 -557.7,-434.92 -1203.6,-756.6 -1910.9,-900.11 -274.7,-55.7 -562.3,-83.67 -852.2,-83.67 -601.1,0 -1211.9,120.39 -1737.8,361.36 -263,120.51 -504.9,271.02 -714,451.41 -209.2,180.41 -385.8,390.51 -518.8,630.81 -112.1,202.5 -188.5,421 -236.9,649.8 -48.4,228.8 -68.8,467.9 -68.8,710.9 0,550.5 104.6,1120.9 221,1636.5 116.4,516.2 288.2,1043.3 550,1507.7 130.9,232.3 284.2,448.8 464.2,640.8 180,192.1 386.6,359.7 624.7,494.2 21.7,12.2 29.3,39.7 17.1,61.3 -12.3,21.6 -39.7,29.3 -61.4,17"
       style="fill:#4b4b5b;fill-opacity:1;fill-rule:nonzero;stroke:none"
       transform="matrix(0.13333333,0,0,-0.13333333,0,2666.6667)" />
    <path
       id="path3"
       d="m 14005.9,1740.59 c -3771.6,0 -7045.04,110.19 -7045.04,205.19 0,95.12 3273.44,138.71 7045.04,138.71 3771.7,0 6829.1,-76.87 6829.1,-171.87 0,-95 -3057.4,-172.03 -6829.1,-172.03"
       style="fill:#cbbdab;fill-opacity:1;fill-rule:nonzero;stroke:none"
       transform="matrix(0.13333333,0,0,-0.13333333,0,2666.6667)" />
    <path
       id="path4"
       d="m 9495.08,2721.8 c 160.54,-29.5 571.72,-52.7 571.72,-52.7 l 52.2,428.2 -617.91,29.3 -220,-267.19 213.99,-137.61"
       style="fill:#efaea6;fill-opacity:1;fill-rule:nonzero;stroke:none"
       transform="matrix(0.13333333,0,0,-0.13333333,0,2666.6667)" />
    <path
       id="path5"
       d="m 9560.31,2682.3 c 5,-46.21 -35.39,-21.99 -105.15,-30 -159.77,-18.2 -235.75,-581.28 -260.51,-664.49 -12.81,-43.01 -249.53,-84.8 -220.86,133.4 24.8,188.67 102.07,793.4 130.55,999.69 5.97,43.2 40.07,77.19 83.32,82.3 154.37,18.09 385.31,-21.6 382.89,-79.92 16.79,-90.66 -31.1,-248.48 -10.24,-440.98"
       style="fill:#23233d;fill-opacity:1;fill-rule:nonzero;stroke:none"
       transform="matrix(0.13333333,0,0,-0.13333333,0,2666.6667)" />
    <path
       id="path6"
       d="m 17161.9,2311.6 c -43.8,146.99 -113.4,591.6 -113.4,591.6 l -431.4,-63 142.7,-575.71 293.8,-183.08 108.3,230.19"
       style="fill:#efaea6;fill-opacity:1;fill-rule:nonzero;stroke:none"
       transform="matrix(0.13333333,0,0,-0.13333333,0,2666.6667)" />
    <path
       id="path7"
       d="m 17192.5,2381.41 c 45.1,10.97 26.5,-32.19 43.5,-100.32 39.1,-155.97 607.3,-157.5 693,-171.09 44.3,-7.11 116.7,-236.29 -103.4,-236.48 -190.3,-0.12 -799.9,-2.82 -1008.1,-1.61 -43.6,0.2 -81.8,29.57 -92.5,71.8 -38.2,150.59 -29.1,384.81 29,390 87.7,28.59 250.4,1.8 438.5,47.7"
       style="fill:#23233d;fill-opacity:1;fill-rule:nonzero;stroke:none"
       transform="matrix(0.13333333,0,0,-0.13333333,0,2666.6667)" />
    <path
       id="path8"
       d="m 16614.5,2438.71 c -94.7,30.2 -259.2,1324.81 -703.4,1782.19 -146.6,151.09 -851.1,314.61 -1546.5,517.81 -490.1,143.28 -892.8,249.88 -892.8,249.88 -0.3,-0.7 -5.8,-12.5 -16,-33.98 C 13359.2,4748.79 12826.5,3598.59 12474,3042.62 11995.2,2430 9834.3,2600.7 9834.3,2600.7 c -5.24,28.99 -9.92,57.5 -14.1,85.2 l 0.07,0.12 c -28.59,184.88 -38.59,337.5 -33.71,426.99 3.21,62.58 13.83,94.18 30.32,84.49 406.32,38.98 1992.82,-51.02 2119.72,318.09 36.8,106.71 282.4,1104.1 389,1578.9 17.4,77.11 34,157.89 50.5,239.92 28.7,142.19 57,287.7 86.8,422.7 9.9,44.49 19.9,87.89 30.3,129.61 13,53.79 26.8,104.57 41,151.8 31.1,102.89 95.1,241.68 127.2,328.2 2.4,6.48 10.3,10.78 23,13.28 87,16.72 400.2,-55 714.8,-123.01 68.6,-14.8 137.2,-29.18 203.4,-42.69 33.1,-6.68 65.2,-13.28 95.4,-19.5 12.8,-2.69 25.3,-5.19 37.4,-7.81 148,-30.9 248.7,-53.08 248.7,-53.08 l 166.8,-53.01 163.1,-51.92 c 3.5,-26.28 -9.3,-22.89 -22.3,-19.57 -17.3,4.38 -35.1,8.79 -16.8,-55.19 6.1,-4.02 39.1,7.5 72.4,19.06 33.5,11.72 67.3,23.32 74.1,18.91 530.8,-342.97 1691.4,-867.89 2014,-1138.09 278,-232.62 723.3,-2196.01 773.8,-2283.9 50.5,-87.9 -499.9,-161.68 -594.7,-131.49"
       style="fill:#464656;fill-opacity:1;fill-rule:nonzero;stroke:none"
       transform="matrix(0.13333333,0,0,-0.13333333,0,2666.6667)" />
    <path
       id="path9"
       d="m 12415.6,5531.41 c 21.7,108.08 19.9,101.79 47.3,225.7 -16.1,-72.89 -31.8,-148.91 -47.3,-225.7"
       style="fill:#b4a79d;fill-opacity:1;fill-rule:nonzero;stroke:none"
       transform="matrix(0.13333333,0,0,-0.13333333,0,2666.6667)" />
    <path
       id="path10"
       d="m 12409.2,5499.49 c 2.3,11.6 4.5,22.23 6.4,31.92 15.5,76.79 31.2,152.81 47.3,225.7 9.9,44.49 19.9,87.89 30.3,129.61 l 15.4,58.79 c 57.2,-18.6 117.6,-27.31 178.8,-27.31 140.4,0 284.5,46.02 400.5,124.18 23.4,14.34 42.8,32.74 59.7,53.52 16.9,1.48 34.6,2.38 52.9,2.81 -50.9,-105.51 -153.3,-300.12 -265.6,-371.91 -160.4,-102.5 -231.5,-98.28 -525.7,-227.31"
       style="fill:#3b3b4e;fill-opacity:1;fill-rule:nonzero;stroke:none"
       transform="matrix(0.13333333,0,0,-0.13333333,0,2666.6667)" />
    <path
       id="path11"
       d="m 14004.2,4842.19 c -150.2,42.42 -278.9,77.81 -372.1,103.2 93.2,-25.39 222,-60.78 372.1,-103.2 m -548.4,112.42 c 0.1,0.19 0.2,0.51 0.3,0.7 3.8,7.97 6.9,14.57 9.3,19.81 -2.5,-5.43 -5.7,-12.23 -9.6,-20.51"
       style="fill:#82797b;fill-opacity:1;fill-rule:nonzero;stroke:none"
       transform="matrix(0.13333333,0,0,-0.13333333,0,2666.6667)" />
    <path
       id="path12"
       d="m 14364.6,4738.79 c -128,37.42 -250,72.3 -360.4,103.4 -150.1,42.42 -278.9,77.81 -372.1,103.2 -100.9,27.5 -160.3,43.32 -160.3,43.32 -0.2,-0.51 -2.4,-5.12 -6.4,-13.59 -2.4,-5.24 -5.5,-11.84 -9.3,-19.81 46.9,116.1 139.1,270.47 139.1,270.47 0,0 568.9,-256.29 769.4,-486.99"
       style="fill:#323247;fill-opacity:1;fill-rule:nonzero;stroke:none"
       transform="matrix(0.13333333,0,0,-0.13333333,0,2666.6667)" />
    <path
       id="path13"
       d="m 17545.2,8843.28 c 260.4,73.52 305.4,295 412.6,366.02 107.1,71.01 522,360.11 333.4,535.58 -47.3,44.03 -169,-249.29 -296,-219.29 -95,22.42 -53.5,121.91 -121.2,132.03 -83,12.26 -69,-74.1 -94.2,-138.52 -33.5,-85.7 -254.5,-290.12 -365.9,-353.32 -195.1,-110.9 131.3,-322.5 131.3,-322.5"
       style="fill:#efaea6;fill-opacity:1;fill-rule:nonzero;stroke:none"
       transform="matrix(0.13333333,0,0,-0.13333333,0,2666.6667)" />
    <path
       id="path14"
       d="m 14643.5,8303.01 c -136.9,148.2 -115.8,314.49 -115.8,314.49 41,149.22 261.9,355.78 380.4,448.79 130,102.11 134.9,85.9 134.9,85.9 l 85.6,-278.48 40.3,-131.21 c 0,0 -54.4,-39.69 -108,-140.59 -37.4,-70.5 -56.7,-33.32 -74.4,-170.89 -13.3,-103.13 -187.8,-87.82 -343,-128.01"
       style="fill:#efaea6;fill-opacity:1;fill-rule:nonzero;stroke:none"
       transform="matrix(0.13333333,0,0,-0.13333333,0,2666.6667)" />
    <path
       id="path15"
       d="m 15078.3,8632.5 c 47.3,78.4 90.6,110 90.6,110 0,0 -45.3,-43.09 -90.6,-110"
       style="fill:#454556;fill-opacity:1;fill-rule:nonzero;stroke:none"
       transform="matrix(0.13333333,0,0,-0.13333333,0,2666.6667)" />
    <path
       id="path16"
       d="m 15039.4,8571.21 c -232.8,73.99 -108.3,362.58 -24.1,372.07 2,0.24 4,0.31 6,0.31 51.3,0 107.3,-69.88 107.3,-69.88 l 40.3,-131.21 c 0,0 -43.3,-31.6 -90.6,-110 -12.4,-18.28 -24.8,-38.28 -36.3,-59.69 -0.8,-0.51 -1.7,-1.01 -2.6,-1.6"
       style="fill:#d29a97;fill-opacity:1;fill-rule:nonzero;stroke:none"
       transform="matrix(0.13333333,0,0,-0.13333333,0,2666.6667)" />
    <path
       id="path17"
       d="m 14638.7,8825.9 c 151.8,-23.28 124.9,-323.6 230.1,-382.5 63.8,-35.7 46,41.99 84.5,66.29 101.5,64.02 94.9,91.01 113.6,35.82 319.8,-944.49 -1033.6,-2598.91 -1033.6,-2598.91 0,0 -613.7,190.39 -918.3,145.51 -484.6,-71.41 -479.7,370.27 -418.5,459.61 234.2,342.26 1504.6,2054.57 1504.6,2054.57 0,0 151,124.61 437.6,219.61"
       style="fill:#ffffff;fill-opacity:1;fill-rule:nonzero;stroke:none"
       transform="matrix(0.13333333,0,0,-0.13333333,0,2666.6667)" />
    <path
       id="path18"
       d="m 15054.8,8573.71 c 628.5,-159.73 1116.3,14.3 1392.5,48.99 276.2,34.6 1074.5,724.41 1172.8,776.99 90.6,48.4 241.7,-267.7 234.5,-342.7 -14.5,-151.21 -942.8,-788.59 -1258.3,-885.7 -256,-78.91 -968.8,-199.3 -1204.6,-322.31 -155.5,-81.17 -588.3,-1021.87 -651.9,-1213.59 -63.6,-191.8 -229.3,-725.78 -745.3,-902.69 -211.1,-72.39 -429.3,9.92 -475.9,126.21 -79.9,199.18 548.3,619.88 823.9,1079.37 262.5,437.5 499.4,659.1 626.3,1062.93 95.9,305.39 86,572.5 86,572.5"
       style="fill:#0b75aa;fill-opacity:1;fill-rule:nonzero;stroke:none"
       transform="matrix(0.13333333,0,0,-0.13333333,0,2666.6667)" />
    <path
       id="path19"
       d="m 14111.7,7447.38 c -207.6,-414.57 -527.1,-508.16 -638.7,-715.39 -111.7,-207.19 -161.1,-354.49 -255.5,-523.98 -35,-62.89 -68.2,-128.13 -129.6,-165.63 -281.1,-189.49 -726.7,-189.76 -887.3,194.92 -80.2,163.4 207.6,117 272.3,157.19 318.4,197.7 369.6,546.8 534.4,774.61 159.7,221.21 304.7,557.19 500.2,938.28 227.4,437.74 829.5,702.5 1125.5,717.82 -74.3,-376.8 -312.7,-989.61 -521.3,-1377.82"
       style="fill:#0b75aa;fill-opacity:1;fill-rule:nonzero;stroke:none"
       transform="matrix(0.13333333,0,0,-0.13333333,0,2666.6667)" />
    <path
       id="path20"
       d="m 11582.3,9128.59 c -247.8,108.71 -317.9,334.3 -414.2,419.42 -96.4,85.08 -532.3,463.19 -321.2,610.89 52.9,37.1 188.9,-267.81 318.8,-255.62 97.2,9.1 125,145.52 170.7,116.12 70.6,-45.42 34.6,-121.78 50.7,-189.09 21.4,-89.53 269,-316.09 370.5,-394.1 178,-136.72 -175.3,-307.62 -175.3,-307.62"
       style="fill:#efaea6;fill-opacity:1;fill-rule:nonzero;stroke:none"
       transform="matrix(0.13333333,0,0,-0.13333333,0,2666.6667)" />
    <path
       id="path21"
       d="m 14461.4,8793.98 c -407,-116.09 -1520.8,-41.6 -1734.7,73.64 -213.9,115.19 -1163.6,832.69 -1226.1,841.79 -155.8,22.58 -180.8,-485.82 -180.8,-485.82 85.4,-68 899,-678.2 1132.7,-836.09 327.1,-221.09 1481.4,-326.09 1481.4,-326.09 0,0 390.5,-90.2 493.4,222.89 103,313.2 317.3,590.58 34.1,509.68"
       style="fill:#0b75aa;fill-opacity:1;fill-rule:nonzero;stroke:none"
       transform="matrix(0.13333333,0,0,-0.13333333,0,2666.6667)" />
    <path
       id="path22"
       d="m 13319.6,7730.2 c 16.5,34.8 29.5,60.7 41.5,84.21 -14,-28.51 -27.8,-56.6 -41.5,-84.21"
       style="fill:#c8baaa;fill-opacity:1;fill-rule:nonzero;stroke:none"
       transform="matrix(0.13333333,0,0,-0.13333333,0,2666.6667)" />
    <path
       id="path23"
       d="m 14285.8,7807.38 c 25.6,57.93 50.8,117.42 75.4,177.42 17,1.8 29.7,3.79 37.2,5.98 61.1,18.2 116.7,46.41 167,79.92 94.5,63.01 169.8,145.08 225.5,214.5 28.4,35.5 25.3,81.01 65.5,90 3,0.58 5.7,1.01 8.2,1.01 19.7,0 22.6,-20.19 18.4,-40.31 -4.3,-20.2 -15.7,-40.31 -24.7,-40.31 -0.8,0 -1.6,0.11 -2.3,0.5 -0.2,0 -0.4,0.12 -0.5,0.12 -16,0 -100.5,-276.99 -260.9,-393.01 -44.8,-32.5 -94.6,-58.4 -149,-71.4 -32.1,-7.7 -88.4,-16.02 -159.8,-24.42"
       style="fill:#d7d7db;fill-opacity:1;fill-rule:nonzero;stroke:none"
       transform="matrix(0.13333333,0,0,-0.13333333,0,2666.6667)" />
    <path
       id="path24"
       d="m 13426.1,7946.02 c 5.9,12.69 12.2,26.68 19.2,42.18 0.6,-0.11 1.1,-0.19 1.7,-0.19 -7,-14.1 -14,-28.13 -20.9,-41.99"
       style="fill:#c8baaa;fill-opacity:1;fill-rule:nonzero;stroke:none"
       transform="matrix(0.13333333,0,0,-0.13333333,0,2666.6667)" />
    <path
       id="path25"
       d="m 13319.4,7729.69 c 0.1,0.19 0.2,0.31 0.2,0.51 13.7,27.61 27.5,55.7 41.5,84.21 20.4,40.08 37.9,73.21 65,131.61 6.9,13.86 13.9,27.89 20.9,41.99 78.4,-9.73 292.2,-15.12 498,-15.12 172.2,0 338.8,3.83 416.2,11.91 -24.6,-60 -49.8,-119.49 -75.4,-177.42 -283.1,-33.4 -801.2,-68.79 -966.4,-77.69"
       style="fill:#0f6596;fill-opacity:1;fill-rule:nonzero;stroke:none"
       transform="matrix(0.13333333,0,0,-0.13333333,0,2666.6667)" />
    <path
       id="path26"
       d="m 14957.5,8458.28 c -7.1,28.63 -36,71.72 -96.6,58.2 -45.7,-10.19 -46,-29.57 -78.3,-69.88 -97,-121.09 -246.6,-275.51 -446.5,-334.88 -199.9,-59.42 -714.1,123.59 -1004,2.97 -289.8,-120.47 -332.3,-407.89 -755.3,-556.68 -423,-148.91 -925,-50.2 -1049.5,-95.71 -124.5,-45.5 -197.2,-87.89 -184.7,-138.2 12.5,-50.31 91.9,-122.89 188.7,-142.5 96.9,-19.61 902.1,71.41 1107,137.89 334.4,108.6 572.7,471.72 790,531.6 217.3,59.93 705.2,18.13 961.5,79.69 285.8,68.71 459.5,447.93 480.9,438.63 21.4,-9.21 41.2,-18.39 76.6,-2.3 24.3,10.98 17.3,62.69 10.2,91.17"
       style="fill:#f4aa08;fill-opacity:1;fill-rule:nonzero;stroke:none"
       transform="matrix(0.13333333,0,0,-0.13333333,0,2666.6667)" />
    <path
       id="path27"
       d="m 15632.8,8856.41 c -94.6,-82.11 -207.2,-332.82 -257.1,-264.03 -49.9,68.71 -199.8,-173.59 -255.5,-102.26 -135,172.58 -172.6,457.18 -104.6,541.99 68.1,84.88 313.8,245.39 313.8,245.39 l 303.4,-421.09"
       style="fill:#efaea6;fill-opacity:1;fill-rule:nonzero;stroke:none"
       transform="matrix(0.13333333,0,0,-0.13333333,0,2666.6667)" />
    <path
       id="path28"
       d="m 15402.9,8967.89 c 34.2,-60.51 22.4,-71.8 69.7,-97.19 47.3,-25.39 51.5,81.29 116.7,17.11 65.2,-64.1 128.1,-140.9 216.4,-88.12 127.9,76.52 31,169.92 -31.1,225.82 -40,35.97 44,113.47 -22,195.7 -51.8,64.38 -84.7,28.4 -133.4,83.79 -29.5,33.52 -22,146.41 -105.8,171.09 -155.3,45.71 -189.7,-112.18 -337.6,-87.89 -172.5,28.52 -213.3,-359.1 -168,-367.5 52.9,-9.8 121.4,111.6 168.8,97.31 71.4,-21.72 35.1,-57.5 26.8,-125.39 -8.8,-72.62 47,-154.03 87.5,-46.02 40.5,108.01 81,76.1 112,21.29"
       style="fill:#23233d;fill-opacity:1;fill-rule:nonzero;stroke:none"
       transform="matrix(0.13333333,0,0,-0.13333333,0,2666.6667)" />
    <path
       id="path29"
       d="m 17581.9,11180.4 c 49.7,34.7 840.5,-469 817.5,-326.3 -23,142.7 -183.1,444.2 -58.5,360.3 124.7,-83.8 1242.8,-854.6 1090,-927.3 -152.7,-72.8 -766.1,426.4 -766.3,340.6 -0.3,-85.9 134.1,-386.6 -19.5,-365.5 -153.7,21.1 -1161.9,849.1 -1063.2,918.2"
       style="fill:#ffffff;fill-opacity:1;fill-rule:nonzero;stroke:none"
       transform="matrix(0.13333333,0,0,-0.13333333,0,2666.6667)" />
    <path
       id="path30"
       d="m 18345.9,12886.7 c 59.5,61.2 1285.8,-426.7 1216.4,-235.5 -69.5,191.2 -370.3,565.9 -175.9,482.9 194.4,-83 1943.7,-853.8 1751.7,-994.7 -192,-140.8 -1171.8,387.5 -1149.5,268.7 22.3,-118.8 287.5,-499 69.5,-510.4 -218.1,-11.4 -1830.5,867.5 -1712.2,989"
       style="fill:#ffffff;fill-opacity:1;fill-rule:nonzero;stroke:none"
       transform="matrix(0.13333333,0,0,-0.13333333,0,2666.6667)" />
    <path
       id="path31"
       d="m 11530.6,14531.9 c -100.3,-2.4 -728.7,1415.9 -827.7,1198.2 -99,-217.7 -154.5,-779.7 -249.5,-550.1 -94.9,229.6 -929.81,2315.7 -652.74,2276.1 277.04,-39.7 665.24,-1289.3 744.14,-1171.2 79,118.1 169.1,655.5 361.6,485.8 192.4,-169.8 823.5,-2234.1 624.2,-2238.8"
       style="fill:#ffffff;fill-opacity:1;fill-rule:nonzero;stroke:none"
       transform="matrix(0.13333333,0,0,-0.13333333,0,2666.6667)" />
    <path
       id="path32"
       d="m 11342.1,13439.3 c -67.1,-73.2 -1510.85,451.8 -1423.43,231.7 87.43,-220.1 450.53,-645.5 221.43,-555.7 -229.01,89.8 -2291.15,925.9 -2072.68,1096.5 218.48,170.5 1376.88,-410.2 1346.76,-272.7 -30.08,137.4 -351.84,570.6 -98.52,591.4 253.29,20.9 2159.94,-945.7 2026.44,-1091.2"
       style="fill:#ffffff;fill-opacity:1;fill-rule:nonzero;stroke:none"
       transform="matrix(0.13333333,0,0,-0.13333333,0,2666.6667)" />
    <path
       id="path33"
       d="m 20719.8,10445.3 c 0.7,-54.1 10.9,-102.7 29.1,-144.7 67.1,-154.9 242.3,-219.9 446.8,-134.1 246.6,103.5 322.6,-64.4 537,-64 228.5,0.3 259.8,257.1 430.7,167.2 329.6,-173.6 609.3,8.1 473.7,270.9 -109.7,212.6 -272.9,249.9 -406.2,241.5 -241.9,-15.2 -207.4,166 -489.3,153.3 -85.4,-3.9 -143,-22 -185.5,-47.1 -136.7,-80.2 -118.2,-230.9 -368.2,-203.9 -203.2,21.9 -469.9,-105.4 -468.1,-239.1"
       style="fill:#ccc8c8;fill-opacity:1;fill-rule:evenodd;stroke:none"
       transform="matrix(0.13333333,0,0,-0.13333333,0,2666.6667)" />
    <path
       id="path34"
       d="m 9076.09,11007.3 c -614.25,-40.9 -1201.36,12.7 -1804.14,149.1 -92.46,21 -190.5,48.9 -253.16,126.5 -94.88,117.6 -66.37,315.5 36.01,425.2 102.35,109.7 256.61,142.6 398.91,127.3 91.09,-9.7 184.53,-36.7 272.5,-8.7 109.88,34.9 182.66,145.3 256.33,241.5 73.67,96.1 173.44,191.2 286.99,176.2 85.08,-11.3 152.19,-81.7 227.89,-125.8 75.74,-44.1 185.7,-48.8 229.14,32.4 92.89,173.8 -37.54,650.3 441.06,650.3 690.74,0 577.93,-479.6 661.05,-581.4 126.1,-154.2 350.43,-120.3 533.03,-68.1 182.6,52.2 400,101.8 540.9,-36.2 122.2,-119.6 134.7,-338.9 264.6,-448.2 138.3,-116.4 334.7,-54.3 502.2,-2 167.5,52.3 383.5,71.4 480.7,-87.3 81.6,-133.2 20.8,-326.5 -95.2,-424.1 -115.9,-97.5 -268.8,-121.4 -414.5,-131.1 -946.2,-63 -1805.28,35 -2564.31,-15.6"
       style="fill:#a0a0a0;fill-opacity:1;fill-rule:nonzero;stroke:none"
       transform="matrix(0.13333333,0,0,-0.13333333,0,2666.6667)" />
  </g>
</svg>
