<svg xmlns="http://www.w3.org/2000/svg" viewBox="0 0 100 100">
  <path d="M35.2 25.3c0-8.4 6.8-15.2 15.2-15.2h7.6c8.4 0 15.2 6.8 15.2 15.2v7.6c0 8.4-6.8 15.2-15.2 15.2h-7.6c-8.4 0-15.2-6.8-15.2-15.2v-7.6z" fill="currentColor"/>
  <path d="M27.6 67.1c0-8.4 6.8-15.2 15.2-15.2h7.6c8.4 0 15.2 6.8 15.2 15.2v7.6c0 8.4-6.8 15.2-15.2 15.2h-7.6c-8.4 0-15.2-6.8-15.2-15.2v-7.6z" fill="currentColor"/>
  <path d="M35.2 46.2c0-4.2 3.4-7.6 7.6-7.6h22.8c4.2 0 7.6 3.4 7.6 7.6s-3.4 7.6-7.6 7.6H42.8c-4.2 0-7.6-3.4-7.6-7.6z" fill="currentColor"/>
</svg>
